<mxfile host="app.diagrams.net" modified="2023-05-22T17:04:39.946Z" agent="Mozilla/5.0 (Windows NT 10.0; Win64; x64) AppleWebKit/537.36 (KHTML, like Gecko) Chrome/113.0.0.0 Safari/537.36 Edg/113.0.1774.42" etag="2xALIzm-xzo8cpjZTPYE" version="21.3.2" type="device">
  <diagram name="Page-1" id="sQJWqML8wfLAOflK8wk8">
    <mxGraphModel dx="5000" dy="1922" grid="1" gridSize="10" guides="1" tooltips="1" connect="1" arrows="1" fold="1" page="1" pageScale="1" pageWidth="850" pageHeight="1100" math="0" shadow="0">
      <root>
        <mxCell id="0" />
        <mxCell id="1" parent="0" />
        <UserObject label="" Function="EN_DIO_Error_T DIO_init(uint8_t pinNumber, EN_DIO_PORT_T portNumber, EN_DIO_DIRECTION_T direction);" tags="Flowchart" id="05g8EHRjyKozir9RmIMq-2">
          <mxCell style="vsdxID=280;fillColor=#e1d5e7;shape=stencil(UzV2Ls5ILEhVNTIoLinKz04tz0wpyVA1dlE1MsrMy0gtyiwBslSNXVWNndPyi1LTi/JL81Ig/IJEkEoQKze/DGRCBUSfrqGJnoEZSJuRQSVEyNDAAMx3g6jPycxDUm9hqmdpQrxyQ0zj8akmRTFhlwMZCG+nZebkQEINWR49mIBCkCA2dgUA);strokeColor=#9673a6;spacingTop=-1;spacingBottom=-1;spacingLeft=-1;spacingRight=-1;points=[[0,0.5,0],[1,0.5,0],[0.5,1,0],[0.5,0,0]];labelBackgroundColor=none;rounded=1;html=1;whiteSpace=wrap;fontFamily=Calibri;" vertex="1" parent="1">
            <mxGeometry x="-2542.5" y="-780" width="101" height="38" as="geometry" />
          </mxCell>
        </UserObject>
        <mxCell id="05g8EHRjyKozir9RmIMq-3" value="&lt;div style=&quot;font-size: 1px&quot;&gt;&lt;br&gt;&lt;/div&gt;" style="text;vsdxID=280;fillColor=none;gradientColor=none;strokeColor=none;spacingTop=-1;spacingBottom=-1;spacingLeft=-1;spacingRight=-1;points=[[0,0.5,0],[1,0.5,0],[0.5,1,0],[0.5,0,0]];labelBackgroundColor=none;rounded=1;html=1;whiteSpace=wrap;verticalAlign=middle;align=center;overflow=width;;html=1;fontColor=#000000;fontFamily=Calibri;" vertex="1" parent="05g8EHRjyKozir9RmIMq-2">
          <mxGeometry x="16.93" y="-0.09999999999999999" width="67.73" height="38.099999999999994" as="geometry" />
        </mxCell>
        <UserObject label="&lt;div style=&quot;font-size: 1px&quot;&gt;&lt;font style=&quot;font-size: 11.29px; direction: ltr; letter-spacing: 0px; line-height: 120%; opacity: 1;&quot;&gt;&lt;br&gt;&lt;/font&gt;&lt;/div&gt;" Function="EN_DIO_Error_T DIO_init(uint8_t pinNumber, EN_DIO_PORT_T portNumber, EN_DIO_DIRECTION_T direction);" tags="Flowchart" id="05g8EHRjyKozir9RmIMq-4">
          <mxCell style="verticalAlign=middle;align=center;overflow=width;vsdxID=30;fillColor=#dae8fc;shape=stencil(tVLREoIgEPwaHnEQxsl3s/9gEpSJwDko7e+DsEkze2l627vdu5uFRaxyHe8FosR5sCcxqMZ3iO0Rpcp0ApQPCLEasUpaEC3Yi2lS3fOojOhsr3HDmObyMtsVcYqS29Qh5FEfklwrM5OXeUa/yjkcAwfr7TDpiyTfXvjkMR+Vw2A998qaBac5tAKHU1hq3i4oNwjRr9ofvayt/+Rk+yX/4iWA159KpXWKxJx/z0Bopfyw+g4=);strokeColor=#6c8ebf;spacingTop=-1;spacingBottom=-1;spacingLeft=-1;spacingRight=-1;points=[[0.5,1,0],[0.5,0,0],[0,0.5,0],[1,0.5,0]];labelBackgroundColor=none;rounded=1;html=1;whiteSpace=wrap;fontFamily=Calibri;" vertex="1" parent="1">
            <mxGeometry x="-2542.5" y="-1100" width="101" height="38" as="geometry" />
          </mxCell>
        </UserObject>
        <mxCell id="05g8EHRjyKozir9RmIMq-5" value="Start" style="text;html=1;align=center;verticalAlign=middle;resizable=0;points=[];autosize=1;strokeColor=none;fillColor=none;fontSize=16;" vertex="1" parent="1">
          <mxGeometry x="-2364.5" y="-1096.5" width="52" height="31" as="geometry" />
        </mxCell>
        <UserObject label="&lt;div style=&quot;font-size: 1px&quot;&gt;&lt;font style=&quot;font-size: 11.29px; direction: ltr; letter-spacing: 0px; line-height: 120%; opacity: 1;&quot;&gt;&lt;br&gt;&lt;/font&gt;&lt;/div&gt;" Function="EN_DIO_Error_T DIO_init(uint8_t pinNumber, EN_DIO_PORT_T portNumber, EN_DIO_DIRECTION_T direction);" tags="Flowchart" id="05g8EHRjyKozir9RmIMq-6">
          <mxCell style="verticalAlign=middle;align=center;overflow=width;vsdxID=52;fillColor=#d5e8d4;shape=stencil(tVLREoIgEPwaHnEQxsl3s/9gEpSJwDko7e+DsEkze2l627vdu5uFRaxyHe8FosR5sCcxqMZ3iO0Rpcp0ApQPCLEasUpaEC3Yi2lS3fOojOhsr3HDmObyMtsVcYqS29Qh5FEfklwrM5OXeUa/yjkcAwfr7TDpiyTfXvjkMR+Vw2A998qaBac5tAKHU1hq3i4oNwjRr9ofvayt/+Rk+yX/4iWA159KpXWKxJx/z0Bopfyw+g4=);strokeColor=#82b366;spacingTop=-1;spacingBottom=-1;spacingLeft=-1;spacingRight=-1;points=[[0.5,1,0],[0.5,0,0],[0,0.5,0],[1,0.5,0]];labelBackgroundColor=none;rounded=1;html=1;whiteSpace=wrap;fontFamily=Calibri;" vertex="1" parent="1">
            <mxGeometry x="-2542.5" y="-1032" width="101" height="38" as="geometry" />
          </mxCell>
        </UserObject>
        <mxCell id="05g8EHRjyKozir9RmIMq-7" value="Return ErrorState OK&amp;nbsp;" style="text;html=1;align=center;verticalAlign=middle;resizable=0;points=[];autosize=1;strokeColor=none;fillColor=none;fontSize=16;" vertex="1" parent="1">
          <mxGeometry x="-2426" y="-1028.5" width="175" height="31" as="geometry" />
        </mxCell>
        <UserObject label="&lt;div style=&quot;font-size: 1px&quot;&gt;&lt;font style=&quot;font-size: 11.29px; direction: ltr; letter-spacing: 0px; line-height: 120%; opacity: 1;&quot;&gt;&lt;br&gt;&lt;/font&gt;&lt;/div&gt;" Function="EN_DIO_Error_T DIO_init(uint8_t pinNumber, EN_DIO_PORT_T portNumber, EN_DIO_DIRECTION_T direction);" tags="Flowchart" id="05g8EHRjyKozir9RmIMq-8">
          <mxCell style="verticalAlign=middle;align=center;overflow=width;vsdxID=52;fillColor=#f8cecc;shape=stencil(tVLREoIgEPwaHnEQxsl3s/9gEpSJwDko7e+DsEkze2l627vdu5uFRaxyHe8FosR5sCcxqMZ3iO0Rpcp0ApQPCLEasUpaEC3Yi2lS3fOojOhsr3HDmObyMtsVcYqS29Qh5FEfklwrM5OXeUa/yjkcAwfr7TDpiyTfXvjkMR+Vw2A998qaBac5tAKHU1hq3i4oNwjRr9ofvayt/+Rk+yX/4iWA159KpXWKxJx/z0Bopfyw+g4=);strokeColor=#b85450;spacingTop=-1;spacingBottom=-1;spacingLeft=-1;spacingRight=-1;points=[[0.5,1,0],[0.5,0,0],[0,0.5,0],[1,0.5,0]];labelBackgroundColor=none;rounded=1;html=1;whiteSpace=wrap;fontFamily=Calibri;" vertex="1" parent="1">
            <mxGeometry x="-2542.5" y="-964" width="101" height="38" as="geometry" />
          </mxCell>
        </UserObject>
        <mxCell id="05g8EHRjyKozir9RmIMq-9" value="Return ErrorState NOK&amp;nbsp;" style="text;html=1;align=center;verticalAlign=middle;resizable=0;points=[];autosize=1;strokeColor=none;fillColor=none;fontSize=16;" vertex="1" parent="1">
          <mxGeometry x="-2432" y="-960.5" width="187" height="31" as="geometry" />
        </mxCell>
        <UserObject label="" Function="EN_DIO_Error_T DIO_init(uint8_t pinNumber, EN_DIO_PORT_T portNumber, EN_DIO_DIRECTION_T direction);" tags="Flowchart" id="05g8EHRjyKozir9RmIMq-10">
          <mxCell style="vsdxID=219;fillColor=#fff2cc;shape=stencil(UzV2Ls5ILEhVNTIoLinKz04tz0wpyVA1dlE1MsrMy0gtyiwBslSNXVWNndPyi1LTi/JL81Ig/IJEkEoQKze/DGRCBUSfAUiHkUElhGcK4bpBVOZk5iGpNEVVikeloQHZpsK0YlWLz1QgA+HFtMycHEgIIcujBwlQCBKcxq4A);strokeColor=#d6b656;spacingTop=-1;spacingBottom=-1;spacingLeft=-1;spacingRight=-1;points=[[0,0.5,0],[1,0.5,0],[0.5,0,0],[0.5,1,0]];labelBackgroundColor=none;rounded=1;html=1;whiteSpace=wrap;fontFamily=Calibri;" vertex="1" parent="1">
            <mxGeometry x="-2542.5" y="-894" width="101" height="76" as="geometry" />
          </mxCell>
        </UserObject>
        <mxCell id="05g8EHRjyKozir9RmIMq-11" value="&lt;div style=&quot;font-size: 1px&quot;&gt;&lt;br&gt;&lt;/div&gt;" style="text;vsdxID=219;fillColor=none;gradientColor=none;strokeColor=none;spacingTop=-1;spacingBottom=-1;spacingLeft=-1;spacingRight=-1;points=[[0,0.5,0],[1,0.5,0],[0.5,0,0],[0.5,1,0]];labelBackgroundColor=none;rounded=1;html=1;whiteSpace=wrap;verticalAlign=middle;align=center;overflow=width;;html=1;fontColor=#000000;fontFamily=Calibri;" vertex="1" parent="05g8EHRjyKozir9RmIMq-10">
          <mxGeometry x="8.47" y="9.33" width="84.67" height="57.15" as="geometry" />
        </mxCell>
        <mxCell id="05g8EHRjyKozir9RmIMq-12" value="Decision" style="text;html=1;align=center;verticalAlign=middle;resizable=0;points=[];autosize=1;strokeColor=none;fillColor=none;fontSize=16;" vertex="1" parent="1">
          <mxGeometry x="-2378" y="-871.5" width="79" height="31" as="geometry" />
        </mxCell>
        <mxCell id="05g8EHRjyKozir9RmIMq-13" value="Input/Output" style="text;html=1;align=center;verticalAlign=middle;resizable=0;points=[];autosize=1;strokeColor=none;fillColor=none;fontSize=16;" vertex="1" parent="1">
          <mxGeometry x="-2391" y="-776.5" width="106" height="31" as="geometry" />
        </mxCell>
        <mxCell id="05g8EHRjyKozir9RmIMq-14" value="" style="rounded=0;whiteSpace=wrap;html=1;fontSize=16;fillColor=#d5e8d4;strokeColor=#82b366;" vertex="1" parent="1">
          <mxGeometry x="-2543.75" y="-697" width="103.5" height="44" as="geometry" />
        </mxCell>
        <mxCell id="05g8EHRjyKozir9RmIMq-15" value="Process" style="text;html=1;align=center;verticalAlign=middle;resizable=0;points=[];autosize=1;strokeColor=none;fillColor=none;fontSize=16;" vertex="1" parent="1">
          <mxGeometry x="-2376" y="-690.5" width="76" height="31" as="geometry" />
        </mxCell>
        <mxCell id="05g8EHRjyKozir9RmIMq-16" value="" style="endArrow=classic;html=1;rounded=0;fontSize=12;startSize=8;endSize=8;curved=1;" edge="1" parent="1">
          <mxGeometry width="50" height="50" relative="1" as="geometry">
            <mxPoint x="-2517" y="-562" as="sourcePoint" />
            <mxPoint x="-2467" y="-612" as="targetPoint" />
          </mxGeometry>
        </mxCell>
        <mxCell id="05g8EHRjyKozir9RmIMq-17" value="Arrows" style="text;html=1;align=center;verticalAlign=middle;resizable=0;points=[];autosize=1;strokeColor=none;fillColor=none;fontSize=16;" vertex="1" parent="1">
          <mxGeometry x="-2372" y="-604" width="68" height="31" as="geometry" />
        </mxCell>
        <mxCell id="05g8EHRjyKozir9RmIMq-18" value="" style="shape=process;whiteSpace=wrap;html=1;backgroundOutline=1;fontSize=16;fillColor=#ffe6cc;strokeColor=#d79b00;" vertex="1" parent="1">
          <mxGeometry x="-2550" y="-517" width="116" height="46" as="geometry" />
        </mxCell>
        <mxCell id="05g8EHRjyKozir9RmIMq-19" value="Sub-process" style="text;html=1;align=center;verticalAlign=middle;resizable=0;points=[];autosize=1;strokeColor=none;fillColor=none;fontSize=16;" vertex="1" parent="1">
          <mxGeometry x="-2392.5" y="-513" width="108" height="31" as="geometry" />
        </mxCell>
        <mxCell id="05g8EHRjyKozir9RmIMq-25" value="&lt;font style=&quot;font-size: 14px;&quot;&gt;Sub-process Name&lt;/font&gt;" style="swimlane;whiteSpace=wrap;html=1;rounded=1;fontSize=16;fontFamily=Calibri;fillColor=#ffe6cc;strokeColor=#d79b00;" vertex="1" parent="1">
          <mxGeometry x="-2579" y="-390" width="174" height="197" as="geometry">
            <mxRectangle x="-207" y="152.5" width="134" height="31" as="alternateBounds" />
          </mxGeometry>
        </mxCell>
        <mxCell id="05g8EHRjyKozir9RmIMq-84" value="" style="group" vertex="1" connectable="0" parent="1">
          <mxGeometry x="-2030" y="-1086.75" width="128.25" height="461.5" as="geometry" />
        </mxCell>
        <UserObject label="&lt;div style=&quot;font-size: 1px&quot;&gt;&lt;font style=&quot;font-size: 11.29px; direction: ltr; letter-spacing: 0px; line-height: 120%; opacity: 1;&quot;&gt;start&lt;/font&gt;&lt;/div&gt;" Function="EN_DIO_Error_T DIO_init(uint8_t pinNumber, EN_DIO_PORT_T portNumber, EN_DIO_DIRECTION_T direction);" tags="Flowchart" id="05g8EHRjyKozir9RmIMq-1">
          <mxCell style="verticalAlign=middle;align=center;overflow=width;vsdxID=30;fillColor=#dae8fc;shape=stencil(tVLREoIgEPwaHnEQxsl3s/9gEpSJwDko7e+DsEkze2l627vdu5uFRaxyHe8FosR5sCcxqMZ3iO0Rpcp0ApQPCLEasUpaEC3Yi2lS3fOojOhsr3HDmObyMtsVcYqS29Qh5FEfklwrM5OXeUa/yjkcAwfr7TDpiyTfXvjkMR+Vw2A998qaBac5tAKHU1hq3i4oNwjRr9ofvayt/+Rk+yX/4iWA159KpXWKxJx/z0Bopfyw+g4=);strokeColor=#6c8ebf;spacingTop=-1;spacingBottom=-1;spacingLeft=-1;spacingRight=-1;points=[[0.5,1,0],[0.5,0,0],[0,0.5,0],[1,0.5,0]];labelBackgroundColor=none;rounded=1;html=1;whiteSpace=wrap;fontFamily=Calibri;" vertex="1" parent="05g8EHRjyKozir9RmIMq-84">
            <mxGeometry x="10.930000000000064" y="48" width="101" height="38" as="geometry" />
          </mxCell>
        </UserObject>
        <mxCell id="05g8EHRjyKozir9RmIMq-20" value="Ultrasonic_init" style="text;html=1;strokeColor=#666666;fillColor=#f5f5f5;align=center;verticalAlign=middle;whiteSpace=wrap;rounded=0;fontColor=#333333;" vertex="1" parent="05g8EHRjyKozir9RmIMq-84">
          <mxGeometry x="6.430000000000064" width="110" height="30" as="geometry" />
        </mxCell>
        <mxCell id="05g8EHRjyKozir9RmIMq-21" value="&lt;font style=&quot;font-size: 12px;&quot;&gt;configure ICU clock&lt;br&gt;detection edge&lt;br&gt;interrupt source&lt;br&gt;&lt;/font&gt;" style="rounded=0;whiteSpace=wrap;html=1;fontSize=16;fillColor=#d5e8d4;strokeColor=#82b366;" vertex="1" parent="05g8EHRjyKozir9RmIMq-84">
          <mxGeometry x="9.690000000000055" y="119" width="108.86" height="64" as="geometry" />
        </mxCell>
        <mxCell id="05g8EHRjyKozir9RmIMq-53" style="edgeStyle=orthogonalEdgeStyle;rounded=0;orthogonalLoop=1;jettySize=auto;html=1;exitX=0.5;exitY=1;exitDx=0;exitDy=0;exitPerimeter=0;entryX=0.5;entryY=0;entryDx=0;entryDy=0;" edge="1" parent="05g8EHRjyKozir9RmIMq-84" source="05g8EHRjyKozir9RmIMq-1" target="05g8EHRjyKozir9RmIMq-21">
          <mxGeometry relative="1" as="geometry" />
        </mxCell>
        <mxCell id="05g8EHRjyKozir9RmIMq-22" value="&lt;font style=&quot;font-size: 12px;&quot;&gt;set ICU callback&lt;br&gt;to edgeprcossing&lt;/font&gt;" style="whiteSpace=wrap;html=1;fontSize=16;fillColor=#d5e8d4;strokeColor=#82b366;rounded=0;" vertex="1" parent="05g8EHRjyKozir9RmIMq-84">
          <mxGeometry y="223" width="128.25" height="60" as="geometry" />
        </mxCell>
        <mxCell id="05g8EHRjyKozir9RmIMq-58" style="edgeStyle=orthogonalEdgeStyle;rounded=0;orthogonalLoop=1;jettySize=auto;html=1;exitX=0.5;exitY=1;exitDx=0;exitDy=0;entryX=0.5;entryY=0;entryDx=0;entryDy=0;" edge="1" parent="05g8EHRjyKozir9RmIMq-84" source="05g8EHRjyKozir9RmIMq-21" target="05g8EHRjyKozir9RmIMq-22">
          <mxGeometry relative="1" as="geometry" />
        </mxCell>
        <UserObject label="&lt;div style=&quot;font-size: 1px&quot;&gt;&lt;font style=&quot;font-size: 11.29px; direction: ltr; letter-spacing: 0px; line-height: 120%; opacity: 1;&quot;&gt;end&lt;/font&gt;&lt;/div&gt;" Function="EN_DIO_Error_T DIO_init(uint8_t pinNumber, EN_DIO_PORT_T portNumber, EN_DIO_DIRECTION_T direction);" tags="Flowchart" id="05g8EHRjyKozir9RmIMq-56">
          <mxCell style="verticalAlign=middle;align=center;overflow=width;vsdxID=30;fillColor=#dae8fc;shape=stencil(tVLREoIgEPwaHnEQxsl3s/9gEpSJwDko7e+DsEkze2l627vdu5uFRaxyHe8FosR5sCcxqMZ3iO0Rpcp0ApQPCLEasUpaEC3Yi2lS3fOojOhsr3HDmObyMtsVcYqS29Qh5FEfklwrM5OXeUa/yjkcAwfr7TDpiyTfXvjkMR+Vw2A998qaBac5tAKHU1hq3i4oNwjRr9ofvayt/+Rk+yX/4iWA159KpXWKxJx/z0Bopfyw+g4=);strokeColor=#6c8ebf;spacingTop=-1;spacingBottom=-1;spacingLeft=-1;spacingRight=-1;points=[[0.5,1,0],[0.5,0,0],[0,0.5,0],[1,0.5,0]];labelBackgroundColor=none;rounded=1;html=1;whiteSpace=wrap;fontFamily=Calibri;" vertex="1" parent="05g8EHRjyKozir9RmIMq-84">
            <mxGeometry x="13.620000000000118" y="423.5" width="101" height="38" as="geometry" />
          </mxCell>
        </UserObject>
        <mxCell id="05g8EHRjyKozir9RmIMq-63" style="edgeStyle=orthogonalEdgeStyle;rounded=0;orthogonalLoop=1;jettySize=auto;html=1;exitX=0.5;exitY=1;exitDx=0;exitDy=0;entryX=0.5;entryY=0;entryDx=0;entryDy=0;entryPerimeter=0;" edge="1" parent="05g8EHRjyKozir9RmIMq-84" source="05g8EHRjyKozir9RmIMq-61" target="05g8EHRjyKozir9RmIMq-56">
          <mxGeometry relative="1" as="geometry" />
        </mxCell>
        <mxCell id="05g8EHRjyKozir9RmIMq-61" value="&lt;font style=&quot;font-size: 12px;&quot;&gt;setup trigger pin direction as output&lt;/font&gt;" style="whiteSpace=wrap;html=1;fontSize=16;fillColor=#d5e8d4;strokeColor=#82b366;rounded=0;" vertex="1" parent="05g8EHRjyKozir9RmIMq-84">
          <mxGeometry y="326" width="128.25" height="60" as="geometry" />
        </mxCell>
        <mxCell id="05g8EHRjyKozir9RmIMq-62" value="" style="edgeStyle=orthogonalEdgeStyle;rounded=0;orthogonalLoop=1;jettySize=auto;html=1;" edge="1" parent="05g8EHRjyKozir9RmIMq-84" source="05g8EHRjyKozir9RmIMq-22" target="05g8EHRjyKozir9RmIMq-61">
          <mxGeometry relative="1" as="geometry" />
        </mxCell>
        <mxCell id="05g8EHRjyKozir9RmIMq-86" value="" style="group" vertex="1" connectable="0" parent="1">
          <mxGeometry x="-1190" y="-1045.25" width="380" height="639" as="geometry" />
        </mxCell>
        <UserObject label="&lt;div style=&quot;font-size: 1px&quot;&gt;&lt;font style=&quot;font-size: 11.29px; direction: ltr; letter-spacing: 0px; line-height: 120%; opacity: 1;&quot;&gt;start&lt;/font&gt;&lt;/div&gt;" Function="EN_DIO_Error_T DIO_init(uint8_t pinNumber, EN_DIO_PORT_T portNumber, EN_DIO_DIRECTION_T direction);" tags="Flowchart" id="05g8EHRjyKozir9RmIMq-65">
          <mxCell style="verticalAlign=middle;align=center;overflow=width;vsdxID=30;fillColor=#dae8fc;shape=stencil(tVLREoIgEPwaHnEQxsl3s/9gEpSJwDko7e+DsEkze2l627vdu5uFRaxyHe8FosR5sCcxqMZ3iO0Rpcp0ApQPCLEasUpaEC3Yi2lS3fOojOhsr3HDmObyMtsVcYqS29Qh5FEfklwrM5OXeUa/yjkcAwfr7TDpiyTfXvjkMR+Vw2A998qaBac5tAKHU1hq3i4oNwjRr9ofvayt/+Rk+yX/4iWA159KpXWKxJx/z0Bopfyw+g4=);strokeColor=#6c8ebf;spacingTop=-1;spacingBottom=-1;spacingLeft=-1;spacingRight=-1;points=[[0.5,1,0],[0.5,0,0],[0,0.5,0],[1,0.5,0]];labelBackgroundColor=none;rounded=1;html=1;whiteSpace=wrap;fontFamily=Calibri;" vertex="1" parent="05g8EHRjyKozir9RmIMq-86">
            <mxGeometry x="39.5" y="48" width="101" height="38" as="geometry" />
          </mxCell>
        </UserObject>
        <mxCell id="05g8EHRjyKozir9RmIMq-66" value="Ultrasonic_readDistance" style="text;html=1;strokeColor=#666666;fillColor=#f5f5f5;align=center;verticalAlign=middle;whiteSpace=wrap;rounded=0;fontColor=#333333;" vertex="1" parent="05g8EHRjyKozir9RmIMq-86">
          <mxGeometry x="20" width="140" height="30" as="geometry" />
        </mxCell>
        <UserObject label="" Function="EN_DIO_Error_T DIO_init(uint8_t pinNumber, EN_DIO_PORT_T portNumber, EN_DIO_DIRECTION_T direction);" tags="Flowchart" id="05g8EHRjyKozir9RmIMq-68">
          <mxCell style="vsdxID=219;fillColor=#fff2cc;shape=stencil(UzV2Ls5ILEhVNTIoLinKz04tz0wpyVA1dlE1MsrMy0gtyiwBslSNXVWNndPyi1LTi/JL81Ig/IJEkEoQKze/DGRCBUSfAUiHkUElhGcK4bpBVOZk5iGpNEVVikeloQHZpsK0YlWLz1QgA+HFtMycHEgIIcujBwlQCBKcxq4A);strokeColor=#d6b656;spacingTop=-1;spacingBottom=-1;spacingLeft=-1;spacingRight=-1;points=[[0,0.5,0],[1,0.5,0],[0.5,0,0],[0.5,1,0]];labelBackgroundColor=none;rounded=1;html=1;whiteSpace=wrap;fontFamily=Calibri;" vertex="1" parent="05g8EHRjyKozir9RmIMq-86">
            <mxGeometry x="9.75" y="213" width="160.5" height="100" as="geometry" />
          </mxCell>
        </UserObject>
        <mxCell id="05g8EHRjyKozir9RmIMq-69" value="&lt;div style=&quot;&quot;&gt;&lt;font style=&quot;font-size: 12px;&quot;&gt;while(u8_g_edgeCount != 2)&lt;/font&gt;&lt;/div&gt;" style="text;vsdxID=219;fillColor=none;gradientColor=none;strokeColor=none;spacingTop=-1;spacingBottom=-1;spacingLeft=-1;spacingRight=-1;points=[[0,0.5,0],[1,0.5,0],[0.5,0,0],[0.5,1,0]];labelBackgroundColor=none;rounded=1;html=1;whiteSpace=wrap;verticalAlign=middle;align=center;overflow=width;;html=1;fontColor=#000000;fontFamily=Calibri;" vertex="1" parent="05g8EHRjyKozir9RmIMq-68">
          <mxGeometry x="5.6686250000000005" y="23.246315789473684" width="149.17137499999998" height="53.51315789473685" as="geometry" />
        </mxCell>
        <mxCell id="05g8EHRjyKozir9RmIMq-73" value="false" style="edgeStyle=orthogonalEdgeStyle;rounded=0;orthogonalLoop=1;jettySize=auto;html=1;exitX=0.5;exitY=1;exitDx=0;exitDy=0;exitPerimeter=0;" edge="1" parent="05g8EHRjyKozir9RmIMq-86" source="05g8EHRjyKozir9RmIMq-68">
          <mxGeometry relative="1" as="geometry">
            <mxPoint y="263" as="targetPoint" />
          </mxGeometry>
        </mxCell>
        <UserObject label="" Function="EN_DIO_Error_T DIO_init(uint8_t pinNumber, EN_DIO_PORT_T portNumber, EN_DIO_DIRECTION_T direction);" tags="Flowchart" id="05g8EHRjyKozir9RmIMq-74">
          <mxCell style="vsdxID=280;fillColor=#e1d5e7;shape=stencil(UzV2Ls5ILEhVNTIoLinKz04tz0wpyVA1dlE1MsrMy0gtyiwBslSNXVWNndPyi1LTi/JL81Ig/IJEkEoQKze/DGRCBUSfrqGJnoEZSJuRQSVEyNDAAMx3g6jPycxDUm9hqmdpQrxyQ0zj8akmRTFhlwMZCG+nZebkQEINWR49mIBCkCA2dgUA);strokeColor=#9673a6;spacingTop=-1;spacingBottom=-1;spacingLeft=-1;spacingRight=-1;points=[[0,0.5,0],[1,0.5,0],[0.5,1,0],[0.5,0,0]];labelBackgroundColor=none;rounded=1;html=1;whiteSpace=wrap;fontFamily=Calibri;" vertex="1" parent="05g8EHRjyKozir9RmIMq-86">
            <mxGeometry x="39.5" y="132" width="101" height="38" as="geometry" />
          </mxCell>
        </UserObject>
        <mxCell id="05g8EHRjyKozir9RmIMq-75" value="&lt;div style=&quot;&quot;&gt;send trigger signal&amp;nbsp;&lt;br&gt;&lt;/div&gt;" style="text;vsdxID=280;fillColor=none;gradientColor=none;strokeColor=none;spacingTop=-1;spacingBottom=-1;spacingLeft=-1;spacingRight=-1;points=[[0,0.5,0],[1,0.5,0],[0.5,1,0],[0.5,0,0]];labelBackgroundColor=none;rounded=1;html=1;whiteSpace=wrap;verticalAlign=middle;align=center;overflow=width;;html=1;fontColor=#000000;fontFamily=Calibri;" vertex="1" parent="05g8EHRjyKozir9RmIMq-74">
          <mxGeometry x="16.93" y="-0.09999999999999999" width="67.73" height="38.099999999999994" as="geometry" />
        </mxCell>
        <mxCell id="05g8EHRjyKozir9RmIMq-79" style="edgeStyle=orthogonalEdgeStyle;rounded=0;orthogonalLoop=1;jettySize=auto;html=1;exitX=0.5;exitY=1;exitDx=0;exitDy=0;exitPerimeter=0;entryX=0.5;entryY=0;entryDx=0;entryDy=0;entryPerimeter=0;" edge="1" parent="05g8EHRjyKozir9RmIMq-86" source="05g8EHRjyKozir9RmIMq-65" target="05g8EHRjyKozir9RmIMq-75">
          <mxGeometry relative="1" as="geometry" />
        </mxCell>
        <mxCell id="05g8EHRjyKozir9RmIMq-76" value="&lt;font style=&quot;font-size: 12px;&quot;&gt;calculate the distance=&lt;br&gt;u16_g_timeHigh/58&lt;/font&gt;" style="rounded=0;whiteSpace=wrap;html=1;fontSize=16;fillColor=#d5e8d4;strokeColor=#82b366;" vertex="1" parent="05g8EHRjyKozir9RmIMq-86">
          <mxGeometry x="39.5" y="392.5" width="110" height="60.5" as="geometry" />
        </mxCell>
        <mxCell id="05g8EHRjyKozir9RmIMq-77" value="true" style="edgeStyle=orthogonalEdgeStyle;rounded=0;orthogonalLoop=1;jettySize=auto;html=1;exitX=1;exitY=0.5;exitDx=0;exitDy=0;exitPerimeter=0;" edge="1" parent="05g8EHRjyKozir9RmIMq-86" source="05g8EHRjyKozir9RmIMq-68" target="05g8EHRjyKozir9RmIMq-76">
          <mxGeometry relative="1" as="geometry" />
        </mxCell>
        <mxCell id="05g8EHRjyKozir9RmIMq-78" style="edgeStyle=orthogonalEdgeStyle;rounded=0;orthogonalLoop=1;jettySize=auto;html=1;exitX=0.5;exitY=1;exitDx=0;exitDy=0;exitPerimeter=0;entryX=0.5;entryY=0;entryDx=0;entryDy=0;entryPerimeter=0;" edge="1" parent="05g8EHRjyKozir9RmIMq-86" source="05g8EHRjyKozir9RmIMq-75" target="05g8EHRjyKozir9RmIMq-68">
          <mxGeometry relative="1" as="geometry" />
        </mxCell>
        <mxCell id="05g8EHRjyKozir9RmIMq-80" value="&lt;font style=&quot;font-size: 12px;&quot;&gt;clear edge count to be ready for new read&lt;br&gt;&lt;span style=&quot;&quot;&gt;u8_g_edgeCount=0&lt;/span&gt;&lt;br&gt;&lt;/font&gt;" style="rounded=0;whiteSpace=wrap;html=1;fontSize=16;fillColor=#d5e8d4;strokeColor=#82b366;" vertex="1" parent="05g8EHRjyKozir9RmIMq-86">
          <mxGeometry x="34.25" y="486" width="120.5" height="80" as="geometry" />
        </mxCell>
        <mxCell id="05g8EHRjyKozir9RmIMq-81" value="" style="edgeStyle=orthogonalEdgeStyle;rounded=0;orthogonalLoop=1;jettySize=auto;html=1;" edge="1" parent="05g8EHRjyKozir9RmIMq-86" source="05g8EHRjyKozir9RmIMq-76" target="05g8EHRjyKozir9RmIMq-80">
          <mxGeometry relative="1" as="geometry" />
        </mxCell>
        <UserObject label="&lt;div style=&quot;font-size: 1px&quot;&gt;&lt;font style=&quot;font-size: 11.29px; direction: ltr; letter-spacing: 0px; line-height: 120%; opacity: 1;&quot;&gt;end&lt;/font&gt;&lt;/div&gt;" Function="EN_DIO_Error_T DIO_init(uint8_t pinNumber, EN_DIO_PORT_T portNumber, EN_DIO_DIRECTION_T direction);" tags="Flowchart" id="05g8EHRjyKozir9RmIMq-82">
          <mxCell style="verticalAlign=middle;align=center;overflow=width;vsdxID=30;fillColor=#dae8fc;shape=stencil(tVLREoIgEPwaHnEQxsl3s/9gEpSJwDko7e+DsEkze2l627vdu5uFRaxyHe8FosR5sCcxqMZ3iO0Rpcp0ApQPCLEasUpaEC3Yi2lS3fOojOhsr3HDmObyMtsVcYqS29Qh5FEfklwrM5OXeUa/yjkcAwfr7TDpiyTfXvjkMR+Vw2A998qaBac5tAKHU1hq3i4oNwjRr9ofvayt/+Rk+yX/4iWA159KpXWKxJx/z0Bopfyw+g4=);strokeColor=#6c8ebf;spacingTop=-1;spacingBottom=-1;spacingLeft=-1;spacingRight=-1;points=[[0.5,1,0],[0.5,0,0],[0,0.5,0],[1,0.5,0]];labelBackgroundColor=none;rounded=1;html=1;whiteSpace=wrap;fontFamily=Calibri;" vertex="1" parent="05g8EHRjyKozir9RmIMq-86">
            <mxGeometry x="44.00000000000023" y="601" width="101" height="38" as="geometry" />
          </mxCell>
        </UserObject>
        <mxCell id="05g8EHRjyKozir9RmIMq-83" style="edgeStyle=orthogonalEdgeStyle;rounded=0;orthogonalLoop=1;jettySize=auto;html=1;exitX=0.5;exitY=1;exitDx=0;exitDy=0;entryX=0.5;entryY=0;entryDx=0;entryDy=0;entryPerimeter=0;" edge="1" parent="05g8EHRjyKozir9RmIMq-86" source="05g8EHRjyKozir9RmIMq-80" target="05g8EHRjyKozir9RmIMq-82">
          <mxGeometry relative="1" as="geometry" />
        </mxCell>
        <mxCell id="05g8EHRjyKozir9RmIMq-85" value="&lt;h1&gt;note&lt;/h1&gt;&lt;p&gt;wait until ultrasonic sound to travel towards the object and return.&lt;br&gt;&lt;/p&gt;" style="text;html=1;spacing=5;spacingTop=-20;whiteSpace=wrap;overflow=hidden;rounded=0;" vertex="1" parent="05g8EHRjyKozir9RmIMq-86">
          <mxGeometry x="210" y="157" width="170" height="106" as="geometry" />
        </mxCell>
        <mxCell id="05g8EHRjyKozir9RmIMq-137" value="" style="group" vertex="1" connectable="0" parent="1">
          <mxGeometry x="-1770" y="-1100" width="451.25" height="748.5" as="geometry" />
        </mxCell>
        <mxCell id="05g8EHRjyKozir9RmIMq-136" style="edgeStyle=orthogonalEdgeStyle;rounded=0;orthogonalLoop=1;jettySize=auto;html=1;exitX=0.5;exitY=1;exitDx=0;exitDy=0;exitPerimeter=0;" edge="1" parent="05g8EHRjyKozir9RmIMq-137" source="05g8EHRjyKozir9RmIMq-88">
          <mxGeometry relative="1" as="geometry">
            <mxPoint x="240.78176470588232" y="109.99999999999989" as="targetPoint" />
          </mxGeometry>
        </mxCell>
        <UserObject label="&lt;div style=&quot;font-size: 1px&quot;&gt;&lt;font style=&quot;font-size: 11.29px; direction: ltr; letter-spacing: 0px; line-height: 120%; opacity: 1;&quot;&gt;start&lt;/font&gt;&lt;/div&gt;" Function="EN_DIO_Error_T DIO_init(uint8_t pinNumber, EN_DIO_PORT_T portNumber, EN_DIO_DIRECTION_T direction);" tags="Flowchart" id="05g8EHRjyKozir9RmIMq-88">
          <mxCell style="verticalAlign=middle;align=center;overflow=width;vsdxID=30;fillColor=#dae8fc;shape=stencil(tVLREoIgEPwaHnEQxsl3s/9gEpSJwDko7e+DsEkze2l627vdu5uFRaxyHe8FosR5sCcxqMZ3iO0Rpcp0ApQPCLEasUpaEC3Yi2lS3fOojOhsr3HDmObyMtsVcYqS29Qh5FEfklwrM5OXeUa/yjkcAwfr7TDpiyTfXvjkMR+Vw2A998qaBac5tAKHU1hq3i4oNwjRr9ofvayt/+Rk+yX/4iWA159KpXWKxJx/z0Bopfyw+g4=);strokeColor=#6c8ebf;spacingTop=-1;spacingBottom=-1;spacingLeft=-1;spacingRight=-1;points=[[0.5,1,0],[0.5,0,0],[0,0.5,0],[1,0.5,0]];labelBackgroundColor=none;rounded=1;html=1;whiteSpace=wrap;fontFamily=Calibri;container=0;" vertex="1" parent="05g8EHRjyKozir9RmIMq-137">
            <mxGeometry x="190.24999999999977" y="50" width="101" height="38" as="geometry" />
          </mxCell>
        </UserObject>
        <mxCell id="05g8EHRjyKozir9RmIMq-89" value="Ultrasonic_edgeProcessing" style="text;html=1;strokeColor=#666666;fillColor=#f5f5f5;align=center;verticalAlign=middle;whiteSpace=wrap;rounded=0;fontColor=#333333;container=0;" vertex="1" parent="05g8EHRjyKozir9RmIMq-137">
          <mxGeometry x="160.49999999999977" width="150" height="30" as="geometry" />
        </mxCell>
        <UserObject label="" Function="EN_DIO_Error_T DIO_init(uint8_t pinNumber, EN_DIO_PORT_T portNumber, EN_DIO_DIRECTION_T direction);" tags="Flowchart" id="05g8EHRjyKozir9RmIMq-90">
          <mxCell style="vsdxID=219;fillColor=#fff2cc;shape=stencil(UzV2Ls5ILEhVNTIoLinKz04tz0wpyVA1dlE1MsrMy0gtyiwBslSNXVWNndPyi1LTi/JL81Ig/IJEkEoQKze/DGRCBUSfAUiHkUElhGcK4bpBVOZk5iGpNEVVikeloQHZpsK0YlWLz1QgA+HFtMycHEgIIcujBwlQCBKcxq4A);strokeColor=#d6b656;spacingTop=-1;spacingBottom=-1;spacingLeft=-1;spacingRight=-1;points=[[0,0.5,0],[1,0.5,0],[0.5,0,0],[0.5,1,0]];labelBackgroundColor=none;rounded=1;html=1;whiteSpace=wrap;fontFamily=Calibri;container=0;" vertex="1" parent="05g8EHRjyKozir9RmIMq-137">
            <mxGeometry x="160.5" y="190" width="160.5" height="100" as="geometry" />
          </mxCell>
        </UserObject>
        <UserObject label="&lt;div style=&quot;font-size: 1px&quot;&gt;&lt;font style=&quot;font-size: 11.29px; direction: ltr; letter-spacing: 0px; line-height: 120%; opacity: 1;&quot;&gt;end&lt;/font&gt;&lt;/div&gt;" Function="EN_DIO_Error_T DIO_init(uint8_t pinNumber, EN_DIO_PORT_T portNumber, EN_DIO_DIRECTION_T direction);" tags="Flowchart" id="05g8EHRjyKozir9RmIMq-101">
          <mxCell style="verticalAlign=middle;align=center;overflow=width;vsdxID=30;fillColor=#dae8fc;shape=stencil(tVLREoIgEPwaHnEQxsl3s/9gEpSJwDko7e+DsEkze2l627vdu5uFRaxyHe8FosR5sCcxqMZ3iO0Rpcp0ApQPCLEasUpaEC3Yi2lS3fOojOhsr3HDmObyMtsVcYqS29Qh5FEfklwrM5OXeUa/yjkcAwfr7TDpiyTfXvjkMR+Vw2A998qaBac5tAKHU1hq3i4oNwjRr9ofvayt/+Rk+yX/4iWA159KpXWKxJx/z0Bopfyw+g4=);strokeColor=#6c8ebf;spacingTop=-1;spacingBottom=-1;spacingLeft=-1;spacingRight=-1;points=[[0.5,1,0],[0.5,0,0],[0,0.5,0],[1,0.5,0]];labelBackgroundColor=none;rounded=1;html=1;whiteSpace=wrap;fontFamily=Calibri;container=0;" vertex="1" parent="05g8EHRjyKozir9RmIMq-137">
            <mxGeometry x="175.59000000000015" y="710.5" width="101" height="38" as="geometry" />
          </mxCell>
        </UserObject>
        <mxCell id="05g8EHRjyKozir9RmIMq-91" value="&lt;div style=&quot;&quot;&gt;if(u8_g_edgeCount==1)&lt;span style=&quot;&quot;&gt;&lt;/span&gt;&lt;br&gt;&lt;/div&gt;" style="text;vsdxID=219;fillColor=none;gradientColor=none;strokeColor=none;spacingTop=-1;spacingBottom=-1;spacingLeft=-1;spacingRight=-1;points=[[0,0.5,0],[1,0.5,0],[0.5,0,0],[0.5,1,0]];labelBackgroundColor=none;rounded=1;html=1;whiteSpace=wrap;verticalAlign=middle;align=center;overflow=width;;html=1;fontColor=#000000;fontFamily=Calibri;container=0;" vertex="1" parent="05g8EHRjyKozir9RmIMq-137">
          <mxGeometry x="166.1686249999998" y="213.24631578947367" width="149.17137499999998" height="53.51315789473685" as="geometry" />
        </mxCell>
        <mxCell id="05g8EHRjyKozir9RmIMq-135" style="edgeStyle=orthogonalEdgeStyle;rounded=0;orthogonalLoop=1;jettySize=auto;html=1;exitX=0.5;exitY=1;exitDx=0;exitDy=0;entryX=0.5;entryY=0;entryDx=0;entryDy=0;entryPerimeter=0;" edge="1" parent="05g8EHRjyKozir9RmIMq-137" source="05g8EHRjyKozir9RmIMq-105" target="05g8EHRjyKozir9RmIMq-90">
          <mxGeometry relative="1" as="geometry" />
        </mxCell>
        <mxCell id="05g8EHRjyKozir9RmIMq-105" value="&lt;font style=&quot;font-size: 12px;&quot;&gt;u8_g_edgeCount++&lt;/font&gt;" style="rounded=0;whiteSpace=wrap;html=1;fontSize=16;fillColor=#d5e8d4;strokeColor=#82b366;container=0;" vertex="1" parent="05g8EHRjyKozir9RmIMq-137">
          <mxGeometry x="180.49999999999977" y="111" width="120.5" height="44" as="geometry" />
        </mxCell>
        <mxCell id="05g8EHRjyKozir9RmIMq-106" value="&lt;font style=&quot;font-size: 12px;&quot;&gt;clear timer value&lt;/font&gt;" style="rounded=0;whiteSpace=wrap;html=1;fontSize=16;fillColor=#d5e8d4;strokeColor=#82b366;container=0;" vertex="1" parent="05g8EHRjyKozir9RmIMq-137">
          <mxGeometry x="330.75" y="313.5" width="120.5" height="44" as="geometry" />
        </mxCell>
        <mxCell id="05g8EHRjyKozir9RmIMq-118" value="true" style="edgeStyle=orthogonalEdgeStyle;rounded=0;orthogonalLoop=1;jettySize=auto;html=1;exitX=1;exitY=0.5;exitDx=0;exitDy=0;exitPerimeter=0;entryX=0.5;entryY=0;entryDx=0;entryDy=0;" edge="1" parent="05g8EHRjyKozir9RmIMq-137" source="05g8EHRjyKozir9RmIMq-91" target="05g8EHRjyKozir9RmIMq-106">
          <mxGeometry relative="1" as="geometry" />
        </mxCell>
        <mxCell id="05g8EHRjyKozir9RmIMq-134" style="edgeStyle=orthogonalEdgeStyle;rounded=0;orthogonalLoop=1;jettySize=auto;html=1;exitX=0.5;exitY=1;exitDx=0;exitDy=0;entryX=1;entryY=0.5;entryDx=0;entryDy=0;entryPerimeter=0;" edge="1" parent="05g8EHRjyKozir9RmIMq-137" source="05g8EHRjyKozir9RmIMq-119" target="05g8EHRjyKozir9RmIMq-101">
          <mxGeometry relative="1" as="geometry" />
        </mxCell>
        <mxCell id="05g8EHRjyKozir9RmIMq-119" value="&lt;font style=&quot;font-size: 12px;&quot;&gt;set edge detection to falling&lt;/font&gt;" style="rounded=0;whiteSpace=wrap;html=1;fontSize=16;fillColor=#d5e8d4;strokeColor=#82b366;container=0;" vertex="1" parent="05g8EHRjyKozir9RmIMq-137">
          <mxGeometry x="330.75" y="383" width="120.5" height="44" as="geometry" />
        </mxCell>
        <mxCell id="05g8EHRjyKozir9RmIMq-120" value="" style="edgeStyle=orthogonalEdgeStyle;rounded=0;orthogonalLoop=1;jettySize=auto;html=1;" edge="1" parent="05g8EHRjyKozir9RmIMq-137" source="05g8EHRjyKozir9RmIMq-106" target="05g8EHRjyKozir9RmIMq-119">
          <mxGeometry relative="1" as="geometry" />
        </mxCell>
        <mxCell id="05g8EHRjyKozir9RmIMq-133" value="false" style="edgeStyle=orthogonalEdgeStyle;rounded=0;orthogonalLoop=1;jettySize=auto;html=1;exitX=0;exitY=0.5;exitDx=0;exitDy=0;exitPerimeter=0;entryX=0;entryY=0.5;entryDx=0;entryDy=0;entryPerimeter=0;" edge="1" parent="05g8EHRjyKozir9RmIMq-137" source="05g8EHRjyKozir9RmIMq-123" target="05g8EHRjyKozir9RmIMq-101">
          <mxGeometry relative="1" as="geometry" />
        </mxCell>
        <UserObject label="if(u8_g_edgeCount==2)" Function="EN_DIO_Error_T DIO_init(uint8_t pinNumber, EN_DIO_PORT_T portNumber, EN_DIO_DIRECTION_T direction);" tags="Flowchart" id="05g8EHRjyKozir9RmIMq-123">
          <mxCell style="vsdxID=219;fillColor=#fff2cc;shape=stencil(UzV2Ls5ILEhVNTIoLinKz04tz0wpyVA1dlE1MsrMy0gtyiwBslSNXVWNndPyi1LTi/JL81Ig/IJEkEoQKze/DGRCBUSfAUiHkUElhGcK4bpBVOZk5iGpNEVVikeloQHZpsK0YlWLz1QgA+HFtMycHEgIIcujBwlQCBKcxq4A);strokeColor=#d6b656;spacingTop=-1;spacingBottom=-1;spacingLeft=-1;spacingRight=-1;points=[[0,0.5,0],[1,0.5,0],[0.5,0,0],[0.5,1,0]];labelBackgroundColor=none;rounded=1;html=1;whiteSpace=wrap;fontFamily=Calibri;container=0;" vertex="1" parent="05g8EHRjyKozir9RmIMq-137">
            <mxGeometry y="290" width="160.5" height="100" as="geometry" />
          </mxCell>
        </UserObject>
        <mxCell id="05g8EHRjyKozir9RmIMq-124" value="false" style="edgeStyle=orthogonalEdgeStyle;rounded=0;orthogonalLoop=1;jettySize=auto;html=1;exitX=0;exitY=0.5;exitDx=0;exitDy=0;exitPerimeter=0;entryX=0.5;entryY=0;entryDx=0;entryDy=0;entryPerimeter=0;" edge="1" parent="05g8EHRjyKozir9RmIMq-137" source="05g8EHRjyKozir9RmIMq-91" target="05g8EHRjyKozir9RmIMq-123">
          <mxGeometry relative="1" as="geometry" />
        </mxCell>
        <mxCell id="05g8EHRjyKozir9RmIMq-125" value="&lt;span style=&quot;font-size: 12px;&quot;&gt;read timer value&lt;/span&gt;" style="rounded=0;whiteSpace=wrap;html=1;fontSize=16;fillColor=#d5e8d4;strokeColor=#82b366;container=0;" vertex="1" parent="05g8EHRjyKozir9RmIMq-137">
          <mxGeometry x="25.58999999999969" y="427" width="110" height="43.5" as="geometry" />
        </mxCell>
        <mxCell id="05g8EHRjyKozir9RmIMq-131" value="true" style="edgeStyle=orthogonalEdgeStyle;rounded=0;orthogonalLoop=1;jettySize=auto;html=1;exitX=0.5;exitY=1;exitDx=0;exitDy=0;exitPerimeter=0;entryX=0.5;entryY=0;entryDx=0;entryDy=0;" edge="1" parent="05g8EHRjyKozir9RmIMq-137" source="05g8EHRjyKozir9RmIMq-123" target="05g8EHRjyKozir9RmIMq-125">
          <mxGeometry relative="1" as="geometry" />
        </mxCell>
        <mxCell id="05g8EHRjyKozir9RmIMq-126" value="&lt;span style=&quot;font-size: 12px;&quot;&gt;clear the timer&lt;/span&gt;" style="rounded=0;whiteSpace=wrap;html=1;fontSize=16;fillColor=#d5e8d4;strokeColor=#82b366;container=0;" vertex="1" parent="05g8EHRjyKozir9RmIMq-137">
          <mxGeometry x="25.58999999999969" y="501" width="110" height="40" as="geometry" />
        </mxCell>
        <mxCell id="05g8EHRjyKozir9RmIMq-127" value="" style="edgeStyle=orthogonalEdgeStyle;rounded=0;orthogonalLoop=1;jettySize=auto;html=1;" edge="1" parent="05g8EHRjyKozir9RmIMq-137" source="05g8EHRjyKozir9RmIMq-125" target="05g8EHRjyKozir9RmIMq-126">
          <mxGeometry relative="1" as="geometry" />
        </mxCell>
        <mxCell id="05g8EHRjyKozir9RmIMq-132" style="edgeStyle=orthogonalEdgeStyle;rounded=0;orthogonalLoop=1;jettySize=auto;html=1;exitX=0.5;exitY=1;exitDx=0;exitDy=0;entryX=0.5;entryY=0;entryDx=0;entryDy=0;entryPerimeter=0;" edge="1" parent="05g8EHRjyKozir9RmIMq-137" source="05g8EHRjyKozir9RmIMq-128" target="05g8EHRjyKozir9RmIMq-101">
          <mxGeometry relative="1" as="geometry" />
        </mxCell>
        <mxCell id="05g8EHRjyKozir9RmIMq-128" value="&lt;span style=&quot;font-size: 12px;&quot;&gt;set edge detection to rising&lt;/span&gt;" style="rounded=0;whiteSpace=wrap;html=1;fontSize=16;fillColor=#d5e8d4;strokeColor=#82b366;container=0;" vertex="1" parent="05g8EHRjyKozir9RmIMq-137">
          <mxGeometry x="25.58999999999969" y="573" width="110" height="52" as="geometry" />
        </mxCell>
        <mxCell id="05g8EHRjyKozir9RmIMq-129" value="" style="edgeStyle=orthogonalEdgeStyle;rounded=0;orthogonalLoop=1;jettySize=auto;html=1;" edge="1" parent="05g8EHRjyKozir9RmIMq-137" source="05g8EHRjyKozir9RmIMq-126" target="05g8EHRjyKozir9RmIMq-128">
          <mxGeometry relative="1" as="geometry" />
        </mxCell>
        <mxCell id="05g8EHRjyKozir9RmIMq-178" value="" style="group" vertex="1" connectable="0" parent="1">
          <mxGeometry x="-680" y="-1080.5" width="140" height="407.5" as="geometry" />
        </mxCell>
        <UserObject label="&lt;div style=&quot;font-size: 1px&quot;&gt;&lt;font style=&quot;font-size: 11.29px; direction: ltr; letter-spacing: 0px; line-height: 120%; opacity: 1;&quot;&gt;start&lt;/font&gt;&lt;/div&gt;" Function="EN_DIO_Error_T DIO_init(uint8_t pinNumber, EN_DIO_PORT_T portNumber, EN_DIO_DIRECTION_T direction);" tags="Flowchart" id="05g8EHRjyKozir9RmIMq-156">
          <mxCell style="verticalAlign=middle;align=center;overflow=width;vsdxID=30;fillColor=#dae8fc;shape=stencil(tVLREoIgEPwaHnEQxsl3s/9gEpSJwDko7e+DsEkze2l627vdu5uFRaxyHe8FosR5sCcxqMZ3iO0Rpcp0ApQPCLEasUpaEC3Yi2lS3fOojOhsr3HDmObyMtsVcYqS29Qh5FEfklwrM5OXeUa/yjkcAwfr7TDpiyTfXvjkMR+Vw2A998qaBac5tAKHU1hq3i4oNwjRr9ofvayt/+Rk+yX/4iWA159KpXWKxJx/z0Bopfyw+g4=);strokeColor=#6c8ebf;spacingTop=-1;spacingBottom=-1;spacingLeft=-1;spacingRight=-1;points=[[0.5,1,0],[0.5,0,0],[0,0.5,0],[1,0.5,0]];labelBackgroundColor=none;rounded=1;html=1;whiteSpace=wrap;fontFamily=Calibri;" vertex="1" parent="05g8EHRjyKozir9RmIMq-178">
            <mxGeometry x="19.5" y="48" width="101" height="38" as="geometry" />
          </mxCell>
        </UserObject>
        <mxCell id="05g8EHRjyKozir9RmIMq-157" value="Ultrasonic_Trigger" style="text;html=1;strokeColor=#666666;fillColor=#f5f5f5;align=center;verticalAlign=middle;whiteSpace=wrap;rounded=0;fontColor=#333333;" vertex="1" parent="05g8EHRjyKozir9RmIMq-178">
          <mxGeometry width="140" height="30" as="geometry" />
        </mxCell>
        <UserObject label="" Function="EN_DIO_Error_T DIO_init(uint8_t pinNumber, EN_DIO_PORT_T portNumber, EN_DIO_DIRECTION_T direction);" tags="Flowchart" id="05g8EHRjyKozir9RmIMq-161">
          <mxCell style="vsdxID=280;fillColor=#e1d5e7;shape=stencil(UzV2Ls5ILEhVNTIoLinKz04tz0wpyVA1dlE1MsrMy0gtyiwBslSNXVWNndPyi1LTi/JL81Ig/IJEkEoQKze/DGRCBUSfrqGJnoEZSJuRQSVEyNDAAMx3g6jPycxDUm9hqmdpQrxyQ0zj8akmRTFhlwMZCG+nZebkQEINWR49mIBCkCA2dgUA);strokeColor=#9673a6;spacingTop=-1;spacingBottom=-1;spacingLeft=-1;spacingRight=-1;points=[[0,0.5,0],[1,0.5,0],[0.5,1,0],[0.5,0,0]];labelBackgroundColor=none;rounded=1;html=1;whiteSpace=wrap;fontFamily=Calibri;" vertex="1" parent="05g8EHRjyKozir9RmIMq-178">
            <mxGeometry x="19.5" y="132" width="101" height="38" as="geometry" />
          </mxCell>
        </UserObject>
        <mxCell id="05g8EHRjyKozir9RmIMq-162" value="&lt;div style=&quot;&quot;&gt;send low signal&lt;br&gt;&lt;/div&gt;" style="text;vsdxID=280;fillColor=none;gradientColor=none;strokeColor=none;spacingTop=-1;spacingBottom=-1;spacingLeft=-1;spacingRight=-1;points=[[0,0.5,0],[1,0.5,0],[0.5,1,0],[0.5,0,0]];labelBackgroundColor=none;rounded=1;html=1;whiteSpace=wrap;verticalAlign=middle;align=center;overflow=width;;html=1;fontColor=#000000;fontFamily=Calibri;" vertex="1" parent="05g8EHRjyKozir9RmIMq-161">
          <mxGeometry x="16.93" y="-0.09999999999999999" width="67.73" height="38.099999999999994" as="geometry" />
        </mxCell>
        <mxCell id="05g8EHRjyKozir9RmIMq-163" style="edgeStyle=orthogonalEdgeStyle;rounded=0;orthogonalLoop=1;jettySize=auto;html=1;exitX=0.5;exitY=1;exitDx=0;exitDy=0;exitPerimeter=0;entryX=0.5;entryY=0;entryDx=0;entryDy=0;entryPerimeter=0;" edge="1" parent="05g8EHRjyKozir9RmIMq-178" source="05g8EHRjyKozir9RmIMq-156" target="05g8EHRjyKozir9RmIMq-162">
          <mxGeometry relative="1" as="geometry" />
        </mxCell>
        <UserObject label="&lt;div style=&quot;font-size: 1px&quot;&gt;&lt;font style=&quot;font-size: 11.29px; direction: ltr; letter-spacing: 0px; line-height: 120%; opacity: 1;&quot;&gt;end&lt;/font&gt;&lt;/div&gt;" Function="EN_DIO_Error_T DIO_init(uint8_t pinNumber, EN_DIO_PORT_T portNumber, EN_DIO_DIRECTION_T direction);" tags="Flowchart" id="05g8EHRjyKozir9RmIMq-169">
          <mxCell style="verticalAlign=middle;align=center;overflow=width;vsdxID=30;fillColor=#dae8fc;shape=stencil(tVLREoIgEPwaHnEQxsl3s/9gEpSJwDko7e+DsEkze2l627vdu5uFRaxyHe8FosR5sCcxqMZ3iO0Rpcp0ApQPCLEasUpaEC3Yi2lS3fOojOhsr3HDmObyMtsVcYqS29Qh5FEfklwrM5OXeUa/yjkcAwfr7TDpiyTfXvjkMR+Vw2A998qaBac5tAKHU1hq3i4oNwjRr9ofvayt/+Rk+yX/4iWA159KpXWKxJx/z0Bopfyw+g4=);strokeColor=#6c8ebf;spacingTop=-1;spacingBottom=-1;spacingLeft=-1;spacingRight=-1;points=[[0.5,1,0],[0.5,0,0],[0,0.5,0],[1,0.5,0]];labelBackgroundColor=none;rounded=1;html=1;whiteSpace=wrap;fontFamily=Calibri;" vertex="1" parent="05g8EHRjyKozir9RmIMq-178">
            <mxGeometry x="19.79000000000019" y="369.5" width="101" height="38" as="geometry" />
          </mxCell>
        </UserObject>
        <mxCell id="05g8EHRjyKozir9RmIMq-170" style="edgeStyle=orthogonalEdgeStyle;rounded=0;orthogonalLoop=1;jettySize=auto;html=1;exitX=0.5;exitY=1;exitDx=0;exitDy=0;entryX=0.5;entryY=0;entryDx=0;entryDy=0;entryPerimeter=0;" edge="1" parent="05g8EHRjyKozir9RmIMq-178" target="05g8EHRjyKozir9RmIMq-169">
          <mxGeometry relative="1" as="geometry">
            <mxPoint x="70.28999999999996" y="334.5" as="sourcePoint" />
          </mxGeometry>
        </mxCell>
        <UserObject label="" Function="EN_DIO_Error_T DIO_init(uint8_t pinNumber, EN_DIO_PORT_T portNumber, EN_DIO_DIRECTION_T direction);" tags="Flowchart" id="05g8EHRjyKozir9RmIMq-172">
          <mxCell style="vsdxID=280;fillColor=#e1d5e7;shape=stencil(UzV2Ls5ILEhVNTIoLinKz04tz0wpyVA1dlE1MsrMy0gtyiwBslSNXVWNndPyi1LTi/JL81Ig/IJEkEoQKze/DGRCBUSfrqGJnoEZSJuRQSVEyNDAAMx3g6jPycxDUm9hqmdpQrxyQ0zj8akmRTFhlwMZCG+nZebkQEINWR49mIBCkCA2dgUA);strokeColor=#9673a6;spacingTop=-1;spacingBottom=-1;spacingLeft=-1;spacingRight=-1;points=[[0,0.5,0],[1,0.5,0],[0.5,1,0],[0.5,0,0]];labelBackgroundColor=none;rounded=1;html=1;whiteSpace=wrap;fontFamily=Calibri;" vertex="1" parent="05g8EHRjyKozir9RmIMq-178">
            <mxGeometry x="19.789999999999964" y="285.76" width="101" height="38" as="geometry" />
          </mxCell>
        </UserObject>
        <mxCell id="05g8EHRjyKozir9RmIMq-173" value="&lt;div style=&quot;&quot;&gt;send High signal&lt;br&gt;&lt;/div&gt;" style="text;vsdxID=280;fillColor=none;gradientColor=none;strokeColor=none;spacingTop=-1;spacingBottom=-1;spacingLeft=-1;spacingRight=-1;points=[[0,0.5,0],[1,0.5,0],[0.5,1,0],[0.5,0,0]];labelBackgroundColor=none;rounded=1;html=1;whiteSpace=wrap;verticalAlign=middle;align=center;overflow=width;;html=1;fontColor=#000000;fontFamily=Calibri;" vertex="1" parent="05g8EHRjyKozir9RmIMq-172">
          <mxGeometry x="16.93" y="-0.09999999999999999" width="67.73" height="38.099999999999994" as="geometry" />
        </mxCell>
        <mxCell id="05g8EHRjyKozir9RmIMq-176" style="edgeStyle=orthogonalEdgeStyle;rounded=0;orthogonalLoop=1;jettySize=auto;html=1;exitX=0.5;exitY=1;exitDx=0;exitDy=0;entryX=0.5;entryY=0;entryDx=0;entryDy=0;entryPerimeter=0;" edge="1" parent="05g8EHRjyKozir9RmIMq-178" source="05g8EHRjyKozir9RmIMq-174" target="05g8EHRjyKozir9RmIMq-173">
          <mxGeometry relative="1" as="geometry" />
        </mxCell>
        <mxCell id="05g8EHRjyKozir9RmIMq-174" value="&lt;span style=&quot;font-size: 12px;&quot;&gt;delay_ms(50)&lt;/span&gt;" style="rounded=0;whiteSpace=wrap;html=1;fontSize=16;fillColor=#d5e8d4;strokeColor=#82b366;container=0;" vertex="1" parent="05g8EHRjyKozir9RmIMq-178">
          <mxGeometry x="10.039999999999964" y="209" width="120.5" height="44" as="geometry" />
        </mxCell>
        <mxCell id="05g8EHRjyKozir9RmIMq-175" style="edgeStyle=orthogonalEdgeStyle;rounded=0;orthogonalLoop=1;jettySize=auto;html=1;exitX=0.5;exitY=1;exitDx=0;exitDy=0;exitPerimeter=0;entryX=0.5;entryY=0;entryDx=0;entryDy=0;" edge="1" parent="05g8EHRjyKozir9RmIMq-178" source="05g8EHRjyKozir9RmIMq-162" target="05g8EHRjyKozir9RmIMq-174">
          <mxGeometry relative="1" as="geometry" />
        </mxCell>
        <mxCell id="05g8EHRjyKozir9RmIMq-177" style="edgeStyle=orthogonalEdgeStyle;rounded=0;orthogonalLoop=1;jettySize=auto;html=1;exitX=0.5;exitY=1;exitDx=0;exitDy=0;exitPerimeter=0;entryX=0.5;entryY=0;entryDx=0;entryDy=0;entryPerimeter=0;" edge="1" parent="05g8EHRjyKozir9RmIMq-178" source="05g8EHRjyKozir9RmIMq-173" target="05g8EHRjyKozir9RmIMq-169">
          <mxGeometry relative="1" as="geometry" />
        </mxCell>
        <UserObject label="&lt;div style=&quot;font-size: 1px&quot;&gt;&lt;font style=&quot;font-size: 11.29px; direction: ltr; letter-spacing: 0px; line-height: 120%; opacity: 1;&quot;&gt;start&lt;/font&gt;&lt;/div&gt;" Function="EN_DIO_Error_T DIO_init(uint8_t pinNumber, EN_DIO_PORT_T portNumber, EN_DIO_DIRECTION_T direction);" tags="Flowchart" id="05g8EHRjyKozir9RmIMq-181">
          <mxCell style="verticalAlign=middle;align=center;overflow=width;vsdxID=30;fillColor=#dae8fc;shape=stencil(tVLREoIgEPwaHnEQxsl3s/9gEpSJwDko7e+DsEkze2l627vdu5uFRaxyHe8FosR5sCcxqMZ3iO0Rpcp0ApQPCLEasUpaEC3Yi2lS3fOojOhsr3HDmObyMtsVcYqS29Qh5FEfklwrM5OXeUa/yjkcAwfr7TDpiyTfXvjkMR+Vw2A998qaBac5tAKHU1hq3i4oNwjRr9ofvayt/+Rk+yX/4iWA159KpXWKxJx/z0Bopfyw+g4=);strokeColor=#6c8ebf;spacingTop=-1;spacingBottom=-1;spacingLeft=-1;spacingRight=-1;points=[[0.5,1,0],[0.5,0,0],[0,0.5,0],[1,0.5,0]];labelBackgroundColor=none;rounded=1;html=1;whiteSpace=wrap;fontFamily=Calibri;" vertex="1" parent="1">
            <mxGeometry x="-2049.0699999999997" y="-82" width="101" height="38" as="geometry" />
          </mxCell>
        </UserObject>
        <mxCell id="05g8EHRjyKozir9RmIMq-182" value="Icu_init" style="text;html=1;strokeColor=#666666;fillColor=#f5f5f5;align=center;verticalAlign=middle;whiteSpace=wrap;rounded=0;fontColor=#333333;" vertex="1" parent="1">
          <mxGeometry x="-2053.5699999999997" y="-130" width="110" height="30" as="geometry" />
        </mxCell>
        <mxCell id="05g8EHRjyKozir9RmIMq-183" value="&lt;font style=&quot;font-size: 12px;&quot;&gt;set timer clock and timer mode&lt;br&gt;&lt;/font&gt;" style="rounded=0;whiteSpace=wrap;html=1;fontSize=16;fillColor=#d5e8d4;strokeColor=#82b366;" vertex="1" parent="1">
          <mxGeometry x="-2050.31" y="-11" width="108.86" height="64" as="geometry" />
        </mxCell>
        <mxCell id="05g8EHRjyKozir9RmIMq-184" style="edgeStyle=orthogonalEdgeStyle;rounded=0;orthogonalLoop=1;jettySize=auto;html=1;exitX=0.5;exitY=1;exitDx=0;exitDy=0;exitPerimeter=0;entryX=0.5;entryY=0;entryDx=0;entryDy=0;" edge="1" parent="1" source="05g8EHRjyKozir9RmIMq-181" target="05g8EHRjyKozir9RmIMq-183">
          <mxGeometry relative="1" as="geometry" />
        </mxCell>
        <mxCell id="05g8EHRjyKozir9RmIMq-191" style="edgeStyle=orthogonalEdgeStyle;rounded=0;orthogonalLoop=1;jettySize=auto;html=1;exitX=0.5;exitY=1;exitDx=0;exitDy=0;entryX=0.5;entryY=0;entryDx=0;entryDy=0;entryPerimeter=0;" edge="1" parent="1" source="05g8EHRjyKozir9RmIMq-185" target="05g8EHRjyKozir9RmIMq-187">
          <mxGeometry relative="1" as="geometry" />
        </mxCell>
        <mxCell id="05g8EHRjyKozir9RmIMq-185" value="&lt;span style=&quot;font-size: 12px;&quot;&gt;enable external inetrrupt source and trigger edge&lt;/span&gt;" style="whiteSpace=wrap;html=1;fontSize=16;fillColor=#d5e8d4;strokeColor=#82b366;rounded=0;" vertex="1" parent="1">
          <mxGeometry x="-2060" y="93" width="128.25" height="60" as="geometry" />
        </mxCell>
        <mxCell id="05g8EHRjyKozir9RmIMq-186" style="edgeStyle=orthogonalEdgeStyle;rounded=0;orthogonalLoop=1;jettySize=auto;html=1;exitX=0.5;exitY=1;exitDx=0;exitDy=0;entryX=0.5;entryY=0;entryDx=0;entryDy=0;" edge="1" parent="1" source="05g8EHRjyKozir9RmIMq-183" target="05g8EHRjyKozir9RmIMq-185">
          <mxGeometry relative="1" as="geometry" />
        </mxCell>
        <UserObject label="&lt;div style=&quot;font-size: 1px&quot;&gt;&lt;font style=&quot;font-size: 11.29px; direction: ltr; letter-spacing: 0px; line-height: 120%; opacity: 1;&quot;&gt;end&lt;/font&gt;&lt;/div&gt;" Function="EN_DIO_Error_T DIO_init(uint8_t pinNumber, EN_DIO_PORT_T portNumber, EN_DIO_DIRECTION_T direction);" tags="Flowchart" id="05g8EHRjyKozir9RmIMq-187">
          <mxCell style="verticalAlign=middle;align=center;overflow=width;vsdxID=30;fillColor=#dae8fc;shape=stencil(tVLREoIgEPwaHnEQxsl3s/9gEpSJwDko7e+DsEkze2l627vdu5uFRaxyHe8FosR5sCcxqMZ3iO0Rpcp0ApQPCLEasUpaEC3Yi2lS3fOojOhsr3HDmObyMtsVcYqS29Qh5FEfklwrM5OXeUa/yjkcAwfr7TDpiyTfXvjkMR+Vw2A998qaBac5tAKHU1hq3i4oNwjRr9ofvayt/+Rk+yX/4iWA159KpXWKxJx/z0Bopfyw+g4=);strokeColor=#6c8ebf;spacingTop=-1;spacingBottom=-1;spacingLeft=-1;spacingRight=-1;points=[[0.5,1,0],[0.5,0,0],[0,0.5,0],[1,0.5,0]];labelBackgroundColor=none;rounded=1;html=1;whiteSpace=wrap;fontFamily=Calibri;" vertex="1" parent="1">
            <mxGeometry x="-2046.3799999999999" y="190" width="101" height="38" as="geometry" />
          </mxCell>
        </UserObject>
        <UserObject label="&lt;div style=&quot;font-size: 1px&quot;&gt;&lt;font style=&quot;font-size: 11.29px; direction: ltr; letter-spacing: 0px; line-height: 120%; opacity: 1;&quot;&gt;start&lt;/font&gt;&lt;/div&gt;" Function="EN_DIO_Error_T DIO_init(uint8_t pinNumber, EN_DIO_PORT_T portNumber, EN_DIO_DIRECTION_T direction);" tags="Flowchart" id="05g8EHRjyKozir9RmIMq-192">
          <mxCell style="verticalAlign=middle;align=center;overflow=width;vsdxID=30;fillColor=#dae8fc;shape=stencil(tVLREoIgEPwaHnEQxsl3s/9gEpSJwDko7e+DsEkze2l627vdu5uFRaxyHe8FosR5sCcxqMZ3iO0Rpcp0ApQPCLEasUpaEC3Yi2lS3fOojOhsr3HDmObyMtsVcYqS29Qh5FEfklwrM5OXeUa/yjkcAwfr7TDpiyTfXvjkMR+Vw2A998qaBac5tAKHU1hq3i4oNwjRr9ofvayt/+Rk+yX/4iWA159KpXWKxJx/z0Bopfyw+g4=);strokeColor=#6c8ebf;spacingTop=-1;spacingBottom=-1;spacingLeft=-1;spacingRight=-1;points=[[0.5,1,0],[0.5,0,0],[0,0.5,0],[1,0.5,0]];labelBackgroundColor=none;rounded=1;html=1;whiteSpace=wrap;fontFamily=Calibri;" vertex="1" parent="1">
            <mxGeometry x="-1835.4999999999998" y="-82" width="101" height="38" as="geometry" />
          </mxCell>
        </UserObject>
        <mxCell id="05g8EHRjyKozir9RmIMq-193" value="Icu_setCallBack" style="text;html=1;strokeColor=#666666;fillColor=#f5f5f5;align=center;verticalAlign=middle;whiteSpace=wrap;rounded=0;fontColor=#333333;" vertex="1" parent="1">
          <mxGeometry x="-1839.9999999999998" y="-130" width="110" height="30" as="geometry" />
        </mxCell>
        <mxCell id="05g8EHRjyKozir9RmIMq-197" style="edgeStyle=orthogonalEdgeStyle;rounded=0;orthogonalLoop=1;jettySize=auto;html=1;exitX=0.5;exitY=1;exitDx=0;exitDy=0;" edge="1" parent="1" source="05g8EHRjyKozir9RmIMq-194" target="05g8EHRjyKozir9RmIMq-196">
          <mxGeometry relative="1" as="geometry" />
        </mxCell>
        <mxCell id="05g8EHRjyKozir9RmIMq-194" value="&lt;font style=&quot;font-size: 12px;&quot;&gt;set external interrupt callback&lt;br&gt;&lt;/font&gt;" style="rounded=0;whiteSpace=wrap;html=1;fontSize=16;fillColor=#d5e8d4;strokeColor=#82b366;" vertex="1" parent="1">
          <mxGeometry x="-1836.74" y="-11" width="108.86" height="64" as="geometry" />
        </mxCell>
        <mxCell id="05g8EHRjyKozir9RmIMq-195" style="edgeStyle=orthogonalEdgeStyle;rounded=0;orthogonalLoop=1;jettySize=auto;html=1;exitX=0.5;exitY=1;exitDx=0;exitDy=0;exitPerimeter=0;entryX=0.5;entryY=0;entryDx=0;entryDy=0;" edge="1" parent="1" source="05g8EHRjyKozir9RmIMq-192" target="05g8EHRjyKozir9RmIMq-194">
          <mxGeometry relative="1" as="geometry" />
        </mxCell>
        <UserObject label="&lt;div style=&quot;font-size: 1px&quot;&gt;&lt;font style=&quot;font-size: 11.29px; direction: ltr; letter-spacing: 0px; line-height: 120%; opacity: 1;&quot;&gt;end&lt;/font&gt;&lt;/div&gt;" Function="EN_DIO_Error_T DIO_init(uint8_t pinNumber, EN_DIO_PORT_T portNumber, EN_DIO_DIRECTION_T direction);" tags="Flowchart" id="05g8EHRjyKozir9RmIMq-196">
          <mxCell style="verticalAlign=middle;align=center;overflow=width;vsdxID=30;fillColor=#dae8fc;shape=stencil(tVLREoIgEPwaHnEQxsl3s/9gEpSJwDko7e+DsEkze2l627vdu5uFRaxyHe8FosR5sCcxqMZ3iO0Rpcp0ApQPCLEasUpaEC3Yi2lS3fOojOhsr3HDmObyMtsVcYqS29Qh5FEfklwrM5OXeUa/yjkcAwfr7TDpiyTfXvjkMR+Vw2A998qaBac5tAKHU1hq3i4oNwjRr9ofvayt/+Rk+yX/4iWA159KpXWKxJx/z0Bopfyw+g4=);strokeColor=#6c8ebf;spacingTop=-1;spacingBottom=-1;spacingLeft=-1;spacingRight=-1;points=[[0.5,1,0],[0.5,0,0],[0,0.5,0],[1,0.5,0]];labelBackgroundColor=none;rounded=1;html=1;whiteSpace=wrap;fontFamily=Calibri;" vertex="1" parent="1">
            <mxGeometry x="-1832.8099999999997" y="80" width="101" height="38" as="geometry" />
          </mxCell>
        </UserObject>
        <mxCell id="05g8EHRjyKozir9RmIMq-202" style="edgeStyle=orthogonalEdgeStyle;rounded=0;orthogonalLoop=1;jettySize=auto;html=1;exitX=0.5;exitY=1;exitDx=0;exitDy=0;exitPerimeter=0;entryX=0.5;entryY=0;entryDx=0;entryDy=0;entryPerimeter=0;" edge="1" parent="1" source="05g8EHRjyKozir9RmIMq-198" target="05g8EHRjyKozir9RmIMq-200">
          <mxGeometry relative="1" as="geometry" />
        </mxCell>
        <UserObject label="&lt;div style=&quot;font-size: 1px&quot;&gt;&lt;font style=&quot;font-size: 11.29px; direction: ltr; letter-spacing: 0px; line-height: 120%; opacity: 1;&quot;&gt;start&lt;/font&gt;&lt;/div&gt;" Function="EN_DIO_Error_T DIO_init(uint8_t pinNumber, EN_DIO_PORT_T portNumber, EN_DIO_DIRECTION_T direction);" tags="Flowchart" id="05g8EHRjyKozir9RmIMq-198">
          <mxCell style="verticalAlign=middle;align=center;overflow=width;vsdxID=30;fillColor=#dae8fc;shape=stencil(tVLREoIgEPwaHnEQxsl3s/9gEpSJwDko7e+DsEkze2l627vdu5uFRaxyHe8FosR5sCcxqMZ3iO0Rpcp0ApQPCLEasUpaEC3Yi2lS3fOojOhsr3HDmObyMtsVcYqS29Qh5FEfklwrM5OXeUa/yjkcAwfr7TDpiyTfXvjkMR+Vw2A998qaBac5tAKHU1hq3i4oNwjRr9ofvayt/+Rk+yX/4iWA159KpXWKxJx/z0Bopfyw+g4=);strokeColor=#6c8ebf;spacingTop=-1;spacingBottom=-1;spacingLeft=-1;spacingRight=-1;points=[[0.5,1,0],[0.5,0,0],[0,0.5,0],[1,0.5,0]];labelBackgroundColor=none;rounded=1;html=1;whiteSpace=wrap;fontFamily=Calibri;" vertex="1" parent="1">
            <mxGeometry x="-1515.4999999999998" y="-82" width="101" height="38" as="geometry" />
          </mxCell>
        </UserObject>
        <mxCell id="05g8EHRjyKozir9RmIMq-199" value="Icu_setEdgeDetectionType" style="text;html=1;strokeColor=#666666;fillColor=#f5f5f5;align=center;verticalAlign=middle;whiteSpace=wrap;rounded=0;fontColor=#333333;" vertex="1" parent="1">
          <mxGeometry x="-1540" y="-130" width="150" height="30" as="geometry" />
        </mxCell>
        <mxCell id="05g8EHRjyKozir9RmIMq-204" value="true" style="edgeStyle=orthogonalEdgeStyle;rounded=0;orthogonalLoop=1;jettySize=auto;html=1;entryX=0.5;entryY=0;entryDx=0;entryDy=0;" edge="1" parent="1" source="05g8EHRjyKozir9RmIMq-200" target="05g8EHRjyKozir9RmIMq-203">
          <mxGeometry relative="1" as="geometry" />
        </mxCell>
        <mxCell id="05g8EHRjyKozir9RmIMq-206" value="false" style="edgeStyle=orthogonalEdgeStyle;rounded=0;orthogonalLoop=1;jettySize=auto;html=1;exitX=0;exitY=0.5;exitDx=0;exitDy=0;exitPerimeter=0;entryX=0.5;entryY=0;entryDx=0;entryDy=0;" edge="1" parent="1" source="05g8EHRjyKozir9RmIMq-200" target="05g8EHRjyKozir9RmIMq-205">
          <mxGeometry relative="1" as="geometry" />
        </mxCell>
        <UserObject label="if(edgeType==RISING)" Function="EN_DIO_Error_T DIO_init(uint8_t pinNumber, EN_DIO_PORT_T portNumber, EN_DIO_DIRECTION_T direction);" tags="Flowchart" id="05g8EHRjyKozir9RmIMq-200">
          <mxCell style="vsdxID=219;fillColor=#fff2cc;shape=stencil(UzV2Ls5ILEhVNTIoLinKz04tz0wpyVA1dlE1MsrMy0gtyiwBslSNXVWNndPyi1LTi/JL81Ig/IJEkEoQKze/DGRCBUSfAUiHkUElhGcK4bpBVOZk5iGpNEVVikeloQHZpsK0YlWLz1QgA+HFtMycHEgIIcujBwlQCBKcxq4A);strokeColor=#d6b656;spacingTop=-1;spacingBottom=-1;spacingLeft=-1;spacingRight=-1;points=[[0,0.5,0],[1,0.5,0],[0.5,0,0],[0.5,1,0]];labelBackgroundColor=none;rounded=1;html=1;whiteSpace=wrap;fontFamily=Calibri;" vertex="1" parent="1">
            <mxGeometry x="-1527.75" y="-11" width="125.5" height="81" as="geometry" />
          </mxCell>
        </UserObject>
        <mxCell id="05g8EHRjyKozir9RmIMq-201" value="&lt;div style=&quot;font-size: 1px&quot;&gt;&lt;br&gt;&lt;/div&gt;" style="text;vsdxID=219;fillColor=none;gradientColor=none;strokeColor=none;spacingTop=-1;spacingBottom=-1;spacingLeft=-1;spacingRight=-1;points=[[0,0.5,0],[1,0.5,0],[0.5,0,0],[0.5,1,0]];labelBackgroundColor=none;rounded=1;html=1;whiteSpace=wrap;verticalAlign=middle;align=center;overflow=width;;html=1;fontColor=#000000;fontFamily=Calibri;" vertex="1" parent="05g8EHRjyKozir9RmIMq-200">
          <mxGeometry x="10.52460396039604" y="9.943815789473685" width="105.20876237623763" height="60.909868421052636" as="geometry" />
        </mxCell>
        <mxCell id="05g8EHRjyKozir9RmIMq-211" style="edgeStyle=orthogonalEdgeStyle;rounded=0;orthogonalLoop=1;jettySize=auto;html=1;exitX=0.5;exitY=1;exitDx=0;exitDy=0;entryX=1;entryY=0.5;entryDx=0;entryDy=0;entryPerimeter=0;" edge="1" parent="1" source="05g8EHRjyKozir9RmIMq-203" target="05g8EHRjyKozir9RmIMq-207">
          <mxGeometry relative="1" as="geometry" />
        </mxCell>
        <mxCell id="05g8EHRjyKozir9RmIMq-203" value="&lt;font style=&quot;font-size: 12px;&quot;&gt;change interrupt trigger to rising edge&lt;br&gt;&lt;/font&gt;" style="rounded=0;whiteSpace=wrap;html=1;fontSize=16;fillColor=#d5e8d4;strokeColor=#82b366;" vertex="1" parent="1">
          <mxGeometry x="-1370" y="67" width="120" height="64" as="geometry" />
        </mxCell>
        <mxCell id="05g8EHRjyKozir9RmIMq-210" style="edgeStyle=orthogonalEdgeStyle;rounded=0;orthogonalLoop=1;jettySize=auto;html=1;exitX=0.5;exitY=1;exitDx=0;exitDy=0;entryX=0;entryY=0.5;entryDx=0;entryDy=0;entryPerimeter=0;" edge="1" parent="1" source="05g8EHRjyKozir9RmIMq-205" target="05g8EHRjyKozir9RmIMq-207">
          <mxGeometry relative="1" as="geometry" />
        </mxCell>
        <mxCell id="05g8EHRjyKozir9RmIMq-205" value="&lt;font style=&quot;font-size: 12px;&quot;&gt;change interrupt trigger to falling edge&lt;br&gt;&lt;/font&gt;" style="rounded=0;whiteSpace=wrap;html=1;fontSize=16;fillColor=#d5e8d4;strokeColor=#82b366;" vertex="1" parent="1">
          <mxGeometry x="-1660" y="70" width="120" height="64" as="geometry" />
        </mxCell>
        <UserObject label="&lt;div style=&quot;font-size: 1px&quot;&gt;&lt;font style=&quot;font-size: 11.29px; direction: ltr; letter-spacing: 0px; line-height: 120%; opacity: 1;&quot;&gt;end&lt;/font&gt;&lt;/div&gt;" Function="EN_DIO_Error_T DIO_init(uint8_t pinNumber, EN_DIO_PORT_T portNumber, EN_DIO_DIRECTION_T direction);" tags="Flowchart" id="05g8EHRjyKozir9RmIMq-207">
          <mxCell style="verticalAlign=middle;align=center;overflow=width;vsdxID=30;fillColor=#dae8fc;shape=stencil(tVLREoIgEPwaHnEQxsl3s/9gEpSJwDko7e+DsEkze2l627vdu5uFRaxyHe8FosR5sCcxqMZ3iO0Rpcp0ApQPCLEasUpaEC3Yi2lS3fOojOhsr3HDmObyMtsVcYqS29Qh5FEfklwrM5OXeUa/yjkcAwfr7TDpiyTfXvjkMR+Vw2A998qaBac5tAKHU1hq3i4oNwjRr9ofvayt/+Rk+yX/4iWA159KpXWKxJx/z0Bopfyw+g4=);strokeColor=#6c8ebf;spacingTop=-1;spacingBottom=-1;spacingLeft=-1;spacingRight=-1;points=[[0.5,1,0],[0.5,0,0],[0,0.5,0],[1,0.5,0]];labelBackgroundColor=none;rounded=1;html=1;whiteSpace=wrap;fontFamily=Calibri;" vertex="1" parent="1">
            <mxGeometry x="-1509.9999999999998" y="180" width="101" height="38" as="geometry" />
          </mxCell>
        </UserObject>
        <mxCell id="05g8EHRjyKozir9RmIMq-212" value="Icu_getInputCaptureValue" style="text;html=1;strokeColor=#666666;fillColor=#f5f5f5;align=center;verticalAlign=middle;whiteSpace=wrap;rounded=0;fontColor=#333333;" vertex="1" parent="1">
          <mxGeometry x="-1170" y="-130" width="150" height="30" as="geometry" />
        </mxCell>
        <mxCell id="05g8EHRjyKozir9RmIMq-215" style="edgeStyle=orthogonalEdgeStyle;rounded=0;orthogonalLoop=1;jettySize=auto;html=1;exitX=0.5;exitY=1;exitDx=0;exitDy=0;exitPerimeter=0;entryX=0.5;entryY=0;entryDx=0;entryDy=0;" edge="1" parent="1" source="05g8EHRjyKozir9RmIMq-213" target="05g8EHRjyKozir9RmIMq-214">
          <mxGeometry relative="1" as="geometry" />
        </mxCell>
        <UserObject label="&lt;div style=&quot;font-size: 1px&quot;&gt;&lt;font style=&quot;font-size: 11.29px; direction: ltr; letter-spacing: 0px; line-height: 120%; opacity: 1;&quot;&gt;start&lt;/font&gt;&lt;/div&gt;" Function="EN_DIO_Error_T DIO_init(uint8_t pinNumber, EN_DIO_PORT_T portNumber, EN_DIO_DIRECTION_T direction);" tags="Flowchart" id="05g8EHRjyKozir9RmIMq-213">
          <mxCell style="verticalAlign=middle;align=center;overflow=width;vsdxID=30;fillColor=#dae8fc;shape=stencil(tVLREoIgEPwaHnEQxsl3s/9gEpSJwDko7e+DsEkze2l627vdu5uFRaxyHe8FosR5sCcxqMZ3iO0Rpcp0ApQPCLEasUpaEC3Yi2lS3fOojOhsr3HDmObyMtsVcYqS29Qh5FEfklwrM5OXeUa/yjkcAwfr7TDpiyTfXvjkMR+Vw2A998qaBac5tAKHU1hq3i4oNwjRr9ofvayt/+Rk+yX/4iWA159KpXWKxJx/z0Bopfyw+g4=);strokeColor=#6c8ebf;spacingTop=-1;spacingBottom=-1;spacingLeft=-1;spacingRight=-1;points=[[0.5,1,0],[0.5,0,0],[0,0.5,0],[1,0.5,0]];labelBackgroundColor=none;rounded=1;html=1;whiteSpace=wrap;fontFamily=Calibri;" vertex="1" parent="1">
            <mxGeometry x="-1145.4999999999998" y="-82" width="101" height="38" as="geometry" />
          </mxCell>
        </UserObject>
        <mxCell id="05g8EHRjyKozir9RmIMq-217" style="edgeStyle=orthogonalEdgeStyle;rounded=0;orthogonalLoop=1;jettySize=auto;html=1;exitX=0.5;exitY=1;exitDx=0;exitDy=0;entryX=0.5;entryY=0;entryDx=0;entryDy=0;entryPerimeter=0;" edge="1" parent="1" source="05g8EHRjyKozir9RmIMq-214" target="05g8EHRjyKozir9RmIMq-216">
          <mxGeometry relative="1" as="geometry" />
        </mxCell>
        <mxCell id="05g8EHRjyKozir9RmIMq-214" value="&lt;font style=&quot;font-size: 12px;&quot;&gt;return timer value&lt;/font&gt;" style="rounded=0;whiteSpace=wrap;html=1;fontSize=16;fillColor=#d5e8d4;strokeColor=#82b366;" vertex="1" parent="1">
          <mxGeometry x="-1145.5" y="-11" width="103.5" height="44" as="geometry" />
        </mxCell>
        <UserObject label="&lt;div style=&quot;font-size: 1px&quot;&gt;&lt;font style=&quot;font-size: 11.29px; direction: ltr; letter-spacing: 0px; line-height: 120%; opacity: 1;&quot;&gt;end&lt;/font&gt;&lt;/div&gt;" Function="EN_DIO_Error_T DIO_init(uint8_t pinNumber, EN_DIO_PORT_T portNumber, EN_DIO_DIRECTION_T direction);" tags="Flowchart" id="05g8EHRjyKozir9RmIMq-216">
          <mxCell style="verticalAlign=middle;align=center;overflow=width;vsdxID=30;fillColor=#dae8fc;shape=stencil(tVLREoIgEPwaHnEQxsl3s/9gEpSJwDko7e+DsEkze2l627vdu5uFRaxyHe8FosR5sCcxqMZ3iO0Rpcp0ApQPCLEasUpaEC3Yi2lS3fOojOhsr3HDmObyMtsVcYqS29Qh5FEfklwrM5OXeUa/yjkcAwfr7TDpiyTfXvjkMR+Vw2A998qaBac5tAKHU1hq3i4oNwjRr9ofvayt/+Rk+yX/4iWA159KpXWKxJx/z0Bopfyw+g4=);strokeColor=#6c8ebf;spacingTop=-1;spacingBottom=-1;spacingLeft=-1;spacingRight=-1;points=[[0.5,1,0],[0.5,0,0],[0,0.5,0],[1,0.5,0]];labelBackgroundColor=none;rounded=1;html=1;whiteSpace=wrap;fontFamily=Calibri;" vertex="1" parent="1">
            <mxGeometry x="-1144.2499999999998" y="70" width="101" height="38" as="geometry" />
          </mxCell>
        </UserObject>
        <mxCell id="05g8EHRjyKozir9RmIMq-218" value="Icu_clearTimerValue" style="text;html=1;strokeColor=#666666;fillColor=#f5f5f5;align=center;verticalAlign=middle;whiteSpace=wrap;rounded=0;fontColor=#333333;" vertex="1" parent="1">
          <mxGeometry x="-960" y="-130" width="150" height="30" as="geometry" />
        </mxCell>
        <mxCell id="05g8EHRjyKozir9RmIMq-219" style="edgeStyle=orthogonalEdgeStyle;rounded=0;orthogonalLoop=1;jettySize=auto;html=1;exitX=0.5;exitY=1;exitDx=0;exitDy=0;exitPerimeter=0;entryX=0.5;entryY=0;entryDx=0;entryDy=0;" edge="1" parent="1" source="05g8EHRjyKozir9RmIMq-220" target="05g8EHRjyKozir9RmIMq-222">
          <mxGeometry relative="1" as="geometry" />
        </mxCell>
        <UserObject label="&lt;div style=&quot;font-size: 1px&quot;&gt;&lt;font style=&quot;font-size: 11.29px; direction: ltr; letter-spacing: 0px; line-height: 120%; opacity: 1;&quot;&gt;start&lt;/font&gt;&lt;/div&gt;" Function="EN_DIO_Error_T DIO_init(uint8_t pinNumber, EN_DIO_PORT_T portNumber, EN_DIO_DIRECTION_T direction);" tags="Flowchart" id="05g8EHRjyKozir9RmIMq-220">
          <mxCell style="verticalAlign=middle;align=center;overflow=width;vsdxID=30;fillColor=#dae8fc;shape=stencil(tVLREoIgEPwaHnEQxsl3s/9gEpSJwDko7e+DsEkze2l627vdu5uFRaxyHe8FosR5sCcxqMZ3iO0Rpcp0ApQPCLEasUpaEC3Yi2lS3fOojOhsr3HDmObyMtsVcYqS29Qh5FEfklwrM5OXeUa/yjkcAwfr7TDpiyTfXvjkMR+Vw2A998qaBac5tAKHU1hq3i4oNwjRr9ofvayt/+Rk+yX/4iWA159KpXWKxJx/z0Bopfyw+g4=);strokeColor=#6c8ebf;spacingTop=-1;spacingBottom=-1;spacingLeft=-1;spacingRight=-1;points=[[0.5,1,0],[0.5,0,0],[0,0.5,0],[1,0.5,0]];labelBackgroundColor=none;rounded=1;html=1;whiteSpace=wrap;fontFamily=Calibri;" vertex="1" parent="1">
            <mxGeometry x="-935.4999999999998" y="-82" width="101" height="38" as="geometry" />
          </mxCell>
        </UserObject>
        <mxCell id="05g8EHRjyKozir9RmIMq-221" style="edgeStyle=orthogonalEdgeStyle;rounded=0;orthogonalLoop=1;jettySize=auto;html=1;exitX=0.5;exitY=1;exitDx=0;exitDy=0;entryX=0.5;entryY=0;entryDx=0;entryDy=0;entryPerimeter=0;" edge="1" parent="1" source="05g8EHRjyKozir9RmIMq-222" target="05g8EHRjyKozir9RmIMq-223">
          <mxGeometry relative="1" as="geometry" />
        </mxCell>
        <mxCell id="05g8EHRjyKozir9RmIMq-222" value="&lt;font style=&quot;font-size: 12px;&quot;&gt;clear timer value&lt;/font&gt;" style="rounded=0;whiteSpace=wrap;html=1;fontSize=16;fillColor=#d5e8d4;strokeColor=#82b366;" vertex="1" parent="1">
          <mxGeometry x="-935.5" y="-11" width="103.5" height="44" as="geometry" />
        </mxCell>
        <UserObject label="&lt;div style=&quot;font-size: 1px&quot;&gt;&lt;font style=&quot;font-size: 11.29px; direction: ltr; letter-spacing: 0px; line-height: 120%; opacity: 1;&quot;&gt;end&lt;/font&gt;&lt;/div&gt;" Function="EN_DIO_Error_T DIO_init(uint8_t pinNumber, EN_DIO_PORT_T portNumber, EN_DIO_DIRECTION_T direction);" tags="Flowchart" id="05g8EHRjyKozir9RmIMq-223">
          <mxCell style="verticalAlign=middle;align=center;overflow=width;vsdxID=30;fillColor=#dae8fc;shape=stencil(tVLREoIgEPwaHnEQxsl3s/9gEpSJwDko7e+DsEkze2l627vdu5uFRaxyHe8FosR5sCcxqMZ3iO0Rpcp0ApQPCLEasUpaEC3Yi2lS3fOojOhsr3HDmObyMtsVcYqS29Qh5FEfklwrM5OXeUa/yjkcAwfr7TDpiyTfXvjkMR+Vw2A998qaBac5tAKHU1hq3i4oNwjRr9ofvayt/+Rk+yX/4iWA159KpXWKxJx/z0Bopfyw+g4=);strokeColor=#6c8ebf;spacingTop=-1;spacingBottom=-1;spacingLeft=-1;spacingRight=-1;points=[[0.5,1,0],[0.5,0,0],[0,0.5,0],[1,0.5,0]];labelBackgroundColor=none;rounded=1;html=1;whiteSpace=wrap;fontFamily=Calibri;" vertex="1" parent="1">
            <mxGeometry x="-934.2499999999998" y="70" width="101" height="38" as="geometry" />
          </mxCell>
        </UserObject>
        <mxCell id="05g8EHRjyKozir9RmIMq-225" value="Icu_DeInit" style="text;html=1;strokeColor=#666666;fillColor=#f5f5f5;align=center;verticalAlign=middle;whiteSpace=wrap;rounded=0;fontColor=#333333;" vertex="1" parent="1">
          <mxGeometry x="-720" y="-130" width="150" height="30" as="geometry" />
        </mxCell>
        <mxCell id="05g8EHRjyKozir9RmIMq-226" style="edgeStyle=orthogonalEdgeStyle;rounded=0;orthogonalLoop=1;jettySize=auto;html=1;exitX=0.5;exitY=1;exitDx=0;exitDy=0;exitPerimeter=0;entryX=0.5;entryY=0;entryDx=0;entryDy=0;" edge="1" parent="1" source="05g8EHRjyKozir9RmIMq-227" target="05g8EHRjyKozir9RmIMq-229">
          <mxGeometry relative="1" as="geometry" />
        </mxCell>
        <UserObject label="&lt;div style=&quot;font-size: 1px&quot;&gt;&lt;font style=&quot;font-size: 11.29px; direction: ltr; letter-spacing: 0px; line-height: 120%; opacity: 1;&quot;&gt;start&lt;/font&gt;&lt;/div&gt;" Function="EN_DIO_Error_T DIO_init(uint8_t pinNumber, EN_DIO_PORT_T portNumber, EN_DIO_DIRECTION_T direction);" tags="Flowchart" id="05g8EHRjyKozir9RmIMq-227">
          <mxCell style="verticalAlign=middle;align=center;overflow=width;vsdxID=30;fillColor=#dae8fc;shape=stencil(tVLREoIgEPwaHnEQxsl3s/9gEpSJwDko7e+DsEkze2l627vdu5uFRaxyHe8FosR5sCcxqMZ3iO0Rpcp0ApQPCLEasUpaEC3Yi2lS3fOojOhsr3HDmObyMtsVcYqS29Qh5FEfklwrM5OXeUa/yjkcAwfr7TDpiyTfXvjkMR+Vw2A998qaBac5tAKHU1hq3i4oNwjRr9ofvayt/+Rk+yX/4iWA159KpXWKxJx/z0Bopfyw+g4=);strokeColor=#6c8ebf;spacingTop=-1;spacingBottom=-1;spacingLeft=-1;spacingRight=-1;points=[[0.5,1,0],[0.5,0,0],[0,0.5,0],[1,0.5,0]];labelBackgroundColor=none;rounded=1;html=1;whiteSpace=wrap;fontFamily=Calibri;" vertex="1" parent="1">
            <mxGeometry x="-695.4999999999998" y="-82" width="101" height="38" as="geometry" />
          </mxCell>
        </UserObject>
        <mxCell id="05g8EHRjyKozir9RmIMq-233" value="" style="edgeStyle=orthogonalEdgeStyle;rounded=0;orthogonalLoop=1;jettySize=auto;html=1;" edge="1" parent="1" source="05g8EHRjyKozir9RmIMq-229" target="05g8EHRjyKozir9RmIMq-232">
          <mxGeometry relative="1" as="geometry" />
        </mxCell>
        <mxCell id="05g8EHRjyKozir9RmIMq-229" value="&lt;font style=&quot;font-size: 12px;&quot;&gt;disable interrupt source&lt;/font&gt;" style="rounded=0;whiteSpace=wrap;html=1;fontSize=16;fillColor=#d5e8d4;strokeColor=#82b366;" vertex="1" parent="1">
          <mxGeometry x="-695.5" y="-11" width="103.5" height="44" as="geometry" />
        </mxCell>
        <UserObject label="&lt;div style=&quot;font-size: 1px&quot;&gt;&lt;font style=&quot;font-size: 11.29px; direction: ltr; letter-spacing: 0px; line-height: 120%; opacity: 1;&quot;&gt;end&lt;/font&gt;&lt;/div&gt;" Function="EN_DIO_Error_T DIO_init(uint8_t pinNumber, EN_DIO_PORT_T portNumber, EN_DIO_DIRECTION_T direction);" tags="Flowchart" id="05g8EHRjyKozir9RmIMq-230">
          <mxCell style="verticalAlign=middle;align=center;overflow=width;vsdxID=30;fillColor=#dae8fc;shape=stencil(tVLREoIgEPwaHnEQxsl3s/9gEpSJwDko7e+DsEkze2l627vdu5uFRaxyHe8FosR5sCcxqMZ3iO0Rpcp0ApQPCLEasUpaEC3Yi2lS3fOojOhsr3HDmObyMtsVcYqS29Qh5FEfklwrM5OXeUa/yjkcAwfr7TDpiyTfXvjkMR+Vw2A998qaBac5tAKHU1hq3i4oNwjRr9ofvayt/+Rk+yX/4iWA159KpXWKxJx/z0Bopfyw+g4=);strokeColor=#6c8ebf;spacingTop=-1;spacingBottom=-1;spacingLeft=-1;spacingRight=-1;points=[[0.5,1,0],[0.5,0,0],[0,0.5,0],[1,0.5,0]];labelBackgroundColor=none;rounded=1;html=1;whiteSpace=wrap;fontFamily=Calibri;" vertex="1" parent="1">
            <mxGeometry x="-695.4999999999998" y="134" width="101" height="38" as="geometry" />
          </mxCell>
        </UserObject>
        <mxCell id="05g8EHRjyKozir9RmIMq-234" style="edgeStyle=orthogonalEdgeStyle;rounded=0;orthogonalLoop=1;jettySize=auto;html=1;exitX=0.5;exitY=1;exitDx=0;exitDy=0;" edge="1" parent="1" source="05g8EHRjyKozir9RmIMq-232" target="05g8EHRjyKozir9RmIMq-230">
          <mxGeometry relative="1" as="geometry" />
        </mxCell>
        <mxCell id="05g8EHRjyKozir9RmIMq-232" value="&lt;font style=&quot;font-size: 12px;&quot;&gt;disable timer clock&lt;/font&gt;" style="rounded=0;whiteSpace=wrap;html=1;fontSize=16;fillColor=#d5e8d4;strokeColor=#82b366;" vertex="1" parent="1">
          <mxGeometry x="-695.5" y="64" width="103.5" height="44" as="geometry" />
        </mxCell>
        <UserObject label="&lt;div style=&quot;font-size: 1px&quot;&gt;&lt;font style=&quot;font-size: 11.29px; direction: ltr; letter-spacing: 0px; line-height: 120%; opacity: 1;&quot;&gt;start&lt;/font&gt;&lt;/div&gt;" Function="EN_DIO_Error_T DIO_init(uint8_t pinNumber, EN_DIO_PORT_T portNumber, EN_DIO_DIRECTION_T direction);" tags="Flowchart" id="05g8EHRjyKozir9RmIMq-243">
          <mxCell style="verticalAlign=middle;align=center;overflow=width;vsdxID=30;fillColor=#dae8fc;shape=stencil(tVLREoIgEPwaHnEQxsl3s/9gEpSJwDko7e+DsEkze2l627vdu5uFRaxyHe8FosR5sCcxqMZ3iO0Rpcp0ApQPCLEasUpaEC3Yi2lS3fOojOhsr3HDmObyMtsVcYqS29Qh5FEfklwrM5OXeUa/yjkcAwfr7TDpiyTfXvjkMR+Vw2A998qaBac5tAKHU1hq3i4oNwjRr9ofvayt/+Rk+yX/4iWA159KpXWKxJx/z0Bopfyw+g4=);strokeColor=#6c8ebf;spacingTop=-1;spacingBottom=-1;spacingLeft=-1;spacingRight=-1;points=[[0.5,1,0],[0.5,0,0],[0,0.5,0],[1,0.5,0]];labelBackgroundColor=none;rounded=1;html=1;whiteSpace=wrap;fontFamily=Calibri;" vertex="1" parent="1">
            <mxGeometry x="-2051.7699999999995" y="419" width="101" height="38" as="geometry" />
          </mxCell>
        </UserObject>
        <mxCell id="05g8EHRjyKozir9RmIMq-244" value="TMR0_Delay_MS" style="text;html=1;strokeColor=#666666;fillColor=#f5f5f5;align=center;verticalAlign=middle;whiteSpace=wrap;rounded=0;fontColor=#333333;" vertex="1" parent="1">
          <mxGeometry x="-2056.2699999999995" y="371" width="110" height="30" as="geometry" />
        </mxCell>
        <mxCell id="05g8EHRjyKozir9RmIMq-265" style="edgeStyle=orthogonalEdgeStyle;rounded=0;orthogonalLoop=1;jettySize=auto;html=1;exitX=0.5;exitY=1;exitDx=0;exitDy=0;entryX=1;entryY=0.5;entryDx=0;entryDy=0;" edge="1" parent="1" source="05g8EHRjyKozir9RmIMq-245" target="05g8EHRjyKozir9RmIMq-264">
          <mxGeometry relative="1" as="geometry" />
        </mxCell>
        <mxCell id="05g8EHRjyKozir9RmIMq-245" value="&lt;font style=&quot;font-size: 12px;&quot;&gt;clear number of overflows = 0&lt;br&gt;&lt;/font&gt;" style="rounded=0;whiteSpace=wrap;html=1;fontSize=16;fillColor=#d5e8d4;strokeColor=#82b366;" vertex="1" parent="1">
          <mxGeometry x="-1882.4299999999998" y="740" width="108.86" height="64" as="geometry" />
        </mxCell>
        <UserObject label="&lt;div style=&quot;font-size: 1px&quot;&gt;&lt;font style=&quot;font-size: 11.29px; direction: ltr; letter-spacing: 0px; line-height: 120%; opacity: 1;&quot;&gt;end&lt;/font&gt;&lt;/div&gt;" Function="EN_DIO_Error_T DIO_init(uint8_t pinNumber, EN_DIO_PORT_T portNumber, EN_DIO_DIRECTION_T direction);" tags="Flowchart" id="05g8EHRjyKozir9RmIMq-250">
          <mxCell style="verticalAlign=middle;align=center;overflow=width;vsdxID=30;fillColor=#dae8fc;shape=stencil(tVLREoIgEPwaHnEQxsl3s/9gEpSJwDko7e+DsEkze2l627vdu5uFRaxyHe8FosR5sCcxqMZ3iO0Rpcp0ApQPCLEasUpaEC3Yi2lS3fOojOhsr3HDmObyMtsVcYqS29Qh5FEfklwrM5OXeUa/yjkcAwfr7TDpiyTfXvjkMR+Vw2A998qaBac5tAKHU1hq3i4oNwjRr9ofvayt/+Rk+yX/4iWA159KpXWKxJx/z0Bopfyw+g4=);strokeColor=#6c8ebf;spacingTop=-1;spacingBottom=-1;spacingLeft=-1;spacingRight=-1;points=[[0.5,1,0],[0.5,0,0],[0,0.5,0],[1,0.5,0]];labelBackgroundColor=none;rounded=1;html=1;whiteSpace=wrap;fontFamily=Calibri;" vertex="1" parent="1">
            <mxGeometry x="-2016.37" y="2120" width="101" height="38" as="geometry" />
          </mxCell>
        </UserObject>
        <mxCell id="05g8EHRjyKozir9RmIMq-257" value="true" style="edgeStyle=orthogonalEdgeStyle;rounded=0;orthogonalLoop=1;jettySize=auto;html=1;exitX=1;exitY=0.5;exitDx=0;exitDy=0;exitPerimeter=0;entryX=0.5;entryY=0;entryDx=0;entryDy=0;" edge="1" parent="1" source="05g8EHRjyKozir9RmIMq-251" target="05g8EHRjyKozir9RmIMq-254">
          <mxGeometry relative="1" as="geometry" />
        </mxCell>
        <mxCell id="05g8EHRjyKozir9RmIMq-263" value="false" style="edgeStyle=orthogonalEdgeStyle;rounded=0;orthogonalLoop=1;jettySize=auto;html=1;exitX=0;exitY=0.5;exitDx=0;exitDy=0;exitPerimeter=0;entryX=0.5;entryY=0;entryDx=0;entryDy=0;" edge="1" parent="1" source="05g8EHRjyKozir9RmIMq-251" target="05g8EHRjyKozir9RmIMq-258">
          <mxGeometry relative="1" as="geometry" />
        </mxCell>
        <UserObject label="check the return state" Function="EN_DIO_Error_T DIO_init(uint8_t pinNumber, EN_DIO_PORT_T portNumber, EN_DIO_DIRECTION_T direction);" tags="Flowchart" id="05g8EHRjyKozir9RmIMq-251">
          <mxCell style="vsdxID=219;fillColor=#fff2cc;shape=stencil(UzV2Ls5ILEhVNTIoLinKz04tz0wpyVA1dlE1MsrMy0gtyiwBslSNXVWNndPyi1LTi/JL81Ig/IJEkEoQKze/DGRCBUSfAUiHkUElhGcK4bpBVOZk5iGpNEVVikeloQHZpsK0YlWLz1QgA+HFtMycHEgIIcujBwlQCBKcxq4A);strokeColor=#d6b656;spacingTop=-1;spacingBottom=-1;spacingLeft=-1;spacingRight=-1;points=[[0,0.5,0],[1,0.5,0],[0.5,0,0],[0.5,1,0]];labelBackgroundColor=none;rounded=1;html=1;whiteSpace=wrap;fontFamily=Calibri;" vertex="1" parent="1">
            <mxGeometry x="-2061.88" y="574" width="127.23" height="100" as="geometry" />
          </mxCell>
        </UserObject>
        <mxCell id="05g8EHRjyKozir9RmIMq-252" value="&lt;div style=&quot;font-size: 1px&quot;&gt;&lt;br&gt;&lt;/div&gt;" style="text;vsdxID=219;fillColor=none;gradientColor=none;strokeColor=none;spacingTop=-1;spacingBottom=-1;spacingLeft=-1;spacingRight=-1;points=[[0,0.5,0],[1,0.5,0],[0.5,0,0],[0.5,1,0]];labelBackgroundColor=none;rounded=1;html=1;whiteSpace=wrap;verticalAlign=middle;align=center;overflow=width;;html=1;fontColor=#000000;fontFamily=Calibri;" vertex="1" parent="05g8EHRjyKozir9RmIMq-251">
          <mxGeometry x="10.669684158415844" y="12.276315789473683" width="106.65905049504951" height="75.19736842105263" as="geometry" />
        </mxCell>
        <mxCell id="05g8EHRjyKozir9RmIMq-253" value="&lt;font style=&quot;font-size: 12px;&quot;&gt;calc_prescaler&lt;/font&gt;" style="shape=process;whiteSpace=wrap;html=1;backgroundOutline=1;fontSize=16;fillColor=#ffe6cc;strokeColor=#d79b00;" vertex="1" parent="1">
          <mxGeometry x="-2056.27" y="490" width="116" height="46" as="geometry" />
        </mxCell>
        <mxCell id="05g8EHRjyKozir9RmIMq-255" style="edgeStyle=orthogonalEdgeStyle;rounded=0;orthogonalLoop=1;jettySize=auto;html=1;exitX=0.5;exitY=1;exitDx=0;exitDy=0;entryX=0.5;entryY=0;entryDx=0;entryDy=0;" edge="1" parent="1" source="05g8EHRjyKozir9RmIMq-254" target="05g8EHRjyKozir9RmIMq-245">
          <mxGeometry relative="1" as="geometry" />
        </mxCell>
        <mxCell id="05g8EHRjyKozir9RmIMq-254" value="&lt;font style=&quot;font-size: 12px;&quot;&gt;calc_initialvalue&lt;/font&gt;" style="shape=process;whiteSpace=wrap;html=1;backgroundOutline=1;fontSize=16;fillColor=#ffe6cc;strokeColor=#d79b00;" vertex="1" parent="1">
          <mxGeometry x="-1886" y="650" width="116" height="46" as="geometry" />
        </mxCell>
        <mxCell id="05g8EHRjyKozir9RmIMq-260" value="" style="edgeStyle=orthogonalEdgeStyle;rounded=0;orthogonalLoop=1;jettySize=auto;html=1;" edge="1" parent="1" source="05g8EHRjyKozir9RmIMq-258" target="05g8EHRjyKozir9RmIMq-259">
          <mxGeometry relative="1" as="geometry" />
        </mxCell>
        <mxCell id="05g8EHRjyKozir9RmIMq-258" value="&lt;font style=&quot;font-size: 12px;&quot;&gt;prescaler = 1024&lt;br&gt;&lt;/font&gt;" style="rounded=0;whiteSpace=wrap;html=1;fontSize=16;fillColor=#d5e8d4;strokeColor=#82b366;" vertex="1" parent="1">
          <mxGeometry x="-2200" y="670" width="100" height="30" as="geometry" />
        </mxCell>
        <mxCell id="05g8EHRjyKozir9RmIMq-262" value="" style="edgeStyle=orthogonalEdgeStyle;rounded=0;orthogonalLoop=1;jettySize=auto;html=1;" edge="1" parent="1" source="05g8EHRjyKozir9RmIMq-259" target="05g8EHRjyKozir9RmIMq-261">
          <mxGeometry relative="1" as="geometry" />
        </mxCell>
        <mxCell id="05g8EHRjyKozir9RmIMq-259" value="&lt;font style=&quot;font-size: 12px;&quot;&gt;number of overflows=&lt;br&gt;delay/max_delay&lt;/font&gt;&lt;font style=&quot;&quot;&gt;&lt;font style=&quot;font-size: 10px;&quot;&gt;(P_1024)&lt;/font&gt;&lt;br&gt;&lt;/font&gt;" style="rounded=0;whiteSpace=wrap;html=1;fontSize=16;fillColor=#d5e8d4;strokeColor=#82b366;" vertex="1" parent="1">
          <mxGeometry x="-2220" y="730" width="140" height="60" as="geometry" />
        </mxCell>
        <mxCell id="05g8EHRjyKozir9RmIMq-266" style="edgeStyle=orthogonalEdgeStyle;rounded=0;orthogonalLoop=1;jettySize=auto;html=1;exitX=0.5;exitY=1;exitDx=0;exitDy=0;entryX=0;entryY=0.5;entryDx=0;entryDy=0;" edge="1" parent="1" source="05g8EHRjyKozir9RmIMq-261" target="05g8EHRjyKozir9RmIMq-264">
          <mxGeometry relative="1" as="geometry" />
        </mxCell>
        <mxCell id="05g8EHRjyKozir9RmIMq-261" value="&lt;font style=&quot;&quot;&gt;&lt;span style=&quot;font-size: 12px;&quot;&gt;initial value =0&lt;/span&gt;&lt;br&gt;&lt;/font&gt;" style="rounded=0;whiteSpace=wrap;html=1;fontSize=16;fillColor=#d5e8d4;strokeColor=#82b366;" vertex="1" parent="1">
          <mxGeometry x="-2195" y="810" width="90" height="30" as="geometry" />
        </mxCell>
        <mxCell id="05g8EHRjyKozir9RmIMq-270" style="edgeStyle=orthogonalEdgeStyle;rounded=0;orthogonalLoop=1;jettySize=auto;html=1;exitX=0.5;exitY=1;exitDx=0;exitDy=0;entryX=0.5;entryY=0;entryDx=0;entryDy=0;" edge="1" parent="1" source="05g8EHRjyKozir9RmIMq-264" target="05g8EHRjyKozir9RmIMq-267">
          <mxGeometry relative="1" as="geometry" />
        </mxCell>
        <mxCell id="05g8EHRjyKozir9RmIMq-264" value="" style="ellipse;whiteSpace=wrap;html=1;aspect=fixed;fillColor=#f5f5f5;fontColor=#333333;strokeColor=#666666;" vertex="1" parent="1">
          <mxGeometry x="-2005" y="860" width="30" height="30" as="geometry" />
        </mxCell>
        <mxCell id="05g8EHRjyKozir9RmIMq-269" value="" style="edgeStyle=orthogonalEdgeStyle;rounded=0;orthogonalLoop=1;jettySize=auto;html=1;" edge="1" parent="1" source="05g8EHRjyKozir9RmIMq-267" target="05g8EHRjyKozir9RmIMq-268">
          <mxGeometry relative="1" as="geometry" />
        </mxCell>
        <mxCell id="05g8EHRjyKozir9RmIMq-267" value="&lt;font style=&quot;&quot;&gt;&lt;span style=&quot;font-size: 12px;&quot;&gt;calculate real part of the overflows&lt;/span&gt;&lt;br&gt;&lt;/font&gt;" style="rounded=0;whiteSpace=wrap;html=1;fontSize=16;fillColor=#d5e8d4;strokeColor=#82b366;" vertex="1" parent="1">
          <mxGeometry x="-2055.89" y="910" width="131.77" height="40" as="geometry" />
        </mxCell>
        <mxCell id="05g8EHRjyKozir9RmIMq-307" style="edgeStyle=orthogonalEdgeStyle;rounded=0;orthogonalLoop=1;jettySize=auto;html=1;exitX=0.5;exitY=1;exitDx=0;exitDy=0;entryX=0.5;entryY=0;entryDx=0;entryDy=0;entryPerimeter=0;" edge="1" parent="1" source="05g8EHRjyKozir9RmIMq-268" target="05g8EHRjyKozir9RmIMq-272">
          <mxGeometry relative="1" as="geometry" />
        </mxCell>
        <mxCell id="05g8EHRjyKozir9RmIMq-268" value="&lt;font style=&quot;&quot;&gt;&lt;span style=&quot;font-size: 12px;&quot;&gt;calculate reminder part of the overflows&lt;/span&gt;&lt;br&gt;&lt;/font&gt;" style="rounded=0;whiteSpace=wrap;html=1;fontSize=16;fillColor=#d5e8d4;strokeColor=#82b366;" vertex="1" parent="1">
          <mxGeometry x="-2060" y="980" width="140" height="40" as="geometry" />
        </mxCell>
        <UserObject label="if(real_part == 0)" Function="EN_DIO_Error_T DIO_init(uint8_t pinNumber, EN_DIO_PORT_T portNumber, EN_DIO_DIRECTION_T direction);" tags="Flowchart" id="05g8EHRjyKozir9RmIMq-272">
          <mxCell style="vsdxID=219;fillColor=#fff2cc;shape=stencil(UzV2Ls5ILEhVNTIoLinKz04tz0wpyVA1dlE1MsrMy0gtyiwBslSNXVWNndPyi1LTi/JL81Ig/IJEkEoQKze/DGRCBUSfAUiHkUElhGcK4bpBVOZk5iGpNEVVikeloQHZpsK0YlWLz1QgA+HFtMycHEgIIcujBwlQCBKcxq4A);strokeColor=#d6b656;spacingTop=-1;spacingBottom=-1;spacingLeft=-1;spacingRight=-1;points=[[0,0.5,0],[1,0.5,0],[0.5,0,0],[0.5,1,0]];labelBackgroundColor=none;rounded=1;html=1;whiteSpace=wrap;fontFamily=Calibri;" vertex="1" parent="1">
            <mxGeometry x="-2053.57" y="1050" width="127.23" height="100" as="geometry" />
          </mxCell>
        </UserObject>
        <mxCell id="05g8EHRjyKozir9RmIMq-273" value="&lt;div style=&quot;font-size: 1px&quot;&gt;&lt;br&gt;&lt;/div&gt;" style="text;vsdxID=219;fillColor=none;gradientColor=none;strokeColor=none;spacingTop=-1;spacingBottom=-1;spacingLeft=-1;spacingRight=-1;points=[[0,0.5,0],[1,0.5,0],[0.5,0,0],[0.5,1,0]];labelBackgroundColor=none;rounded=1;html=1;whiteSpace=wrap;verticalAlign=middle;align=center;overflow=width;;html=1;fontColor=#000000;fontFamily=Calibri;" vertex="1" parent="05g8EHRjyKozir9RmIMq-272">
          <mxGeometry x="10.669684158415844" y="12.276315789473683" width="106.65905049504951" height="75.19736842105263" as="geometry" />
        </mxCell>
        <mxCell id="05g8EHRjyKozir9RmIMq-278" style="edgeStyle=orthogonalEdgeStyle;rounded=0;orthogonalLoop=1;jettySize=auto;html=1;exitX=0.5;exitY=1;exitDx=0;exitDy=0;entryX=0.5;entryY=0;entryDx=0;entryDy=0;entryPerimeter=0;" edge="1" parent="1" source="05g8EHRjyKozir9RmIMq-275" target="05g8EHRjyKozir9RmIMq-276">
          <mxGeometry relative="1" as="geometry" />
        </mxCell>
        <mxCell id="05g8EHRjyKozir9RmIMq-275" value="&lt;font style=&quot;font-size: 12px;&quot;&gt;set_prescaler&lt;/font&gt;" style="shape=process;whiteSpace=wrap;html=1;backgroundOutline=1;fontSize=16;fillColor=#ffe6cc;strokeColor=#d79b00;" vertex="1" parent="1">
          <mxGeometry x="-2208" y="1130" width="116" height="46" as="geometry" />
        </mxCell>
        <mxCell id="05g8EHRjyKozir9RmIMq-279" value="true" style="edgeStyle=orthogonalEdgeStyle;rounded=0;orthogonalLoop=1;jettySize=auto;html=1;exitX=0.5;exitY=1;exitDx=0;exitDy=0;exitPerimeter=0;" edge="1" parent="1" source="05g8EHRjyKozir9RmIMq-276">
          <mxGeometry relative="1" as="geometry">
            <mxPoint x="-2220" y="1270" as="targetPoint" />
          </mxGeometry>
        </mxCell>
        <mxCell id="05g8EHRjyKozir9RmIMq-306" value="false" style="edgeStyle=orthogonalEdgeStyle;rounded=0;orthogonalLoop=1;jettySize=auto;html=1;exitX=1;exitY=0.5;exitDx=0;exitDy=0;exitPerimeter=0;entryX=0;entryY=0.5;entryDx=0;entryDy=0;entryPerimeter=0;" edge="1" parent="1" source="05g8EHRjyKozir9RmIMq-276" target="05g8EHRjyKozir9RmIMq-250">
          <mxGeometry relative="1" as="geometry" />
        </mxCell>
        <UserObject label="while(!(TIFR &amp;amp; (1&amp;lt;&amp;lt;TOV0)));&lt;span style=&quot;&quot;&gt;&lt;/span&gt;" Function="EN_DIO_Error_T DIO_init(uint8_t pinNumber, EN_DIO_PORT_T portNumber, EN_DIO_DIRECTION_T direction);" tags="Flowchart" id="05g8EHRjyKozir9RmIMq-276">
          <mxCell style="vsdxID=219;fillColor=#fff2cc;shape=stencil(UzV2Ls5ILEhVNTIoLinKz04tz0wpyVA1dlE1MsrMy0gtyiwBslSNXVWNndPyi1LTi/JL81Ig/IJEkEoQKze/DGRCBUSfAUiHkUElhGcK4bpBVOZk5iGpNEVVikeloQHZpsK0YlWLz1QgA+HFtMycHEgIIcujBwlQCBKcxq4A);strokeColor=#d6b656;spacingTop=-1;spacingBottom=-1;spacingLeft=-1;spacingRight=-1;points=[[0,0.5,0],[1,0.5,0],[0.5,0,0],[0.5,1,0]];labelBackgroundColor=none;rounded=1;html=1;whiteSpace=wrap;fontFamily=Calibri;" vertex="1" parent="1">
            <mxGeometry x="-2213.6200000000003" y="1220" width="127.23" height="100" as="geometry" />
          </mxCell>
        </UserObject>
        <mxCell id="05g8EHRjyKozir9RmIMq-280" value="true" style="edgeStyle=orthogonalEdgeStyle;rounded=0;orthogonalLoop=1;jettySize=auto;html=1;entryX=0.5;entryY=0;entryDx=0;entryDy=0;" edge="1" parent="1" source="05g8EHRjyKozir9RmIMq-273" target="05g8EHRjyKozir9RmIMq-275">
          <mxGeometry relative="1" as="geometry" />
        </mxCell>
        <mxCell id="05g8EHRjyKozir9RmIMq-304" style="edgeStyle=orthogonalEdgeStyle;rounded=0;orthogonalLoop=1;jettySize=auto;html=1;exitX=0.5;exitY=1;exitDx=0;exitDy=0;entryX=0.5;entryY=0;entryDx=0;entryDy=0;entryPerimeter=0;" edge="1" parent="1" source="05g8EHRjyKozir9RmIMq-281" target="05g8EHRjyKozir9RmIMq-282">
          <mxGeometry relative="1" as="geometry" />
        </mxCell>
        <mxCell id="05g8EHRjyKozir9RmIMq-281" value="&lt;font style=&quot;&quot;&gt;&lt;font style=&quot;font-size: 12px;&quot;&gt;use clock pre_scale 1024&lt;/font&gt;&lt;br&gt;&lt;/font&gt;" style="rounded=0;whiteSpace=wrap;html=1;fontSize=16;fillColor=#d5e8d4;strokeColor=#82b366;" vertex="1" parent="1">
          <mxGeometry x="-1888.82" y="1140" width="140" height="40" as="geometry" />
        </mxCell>
        <mxCell id="05g8EHRjyKozir9RmIMq-284" value="true" style="edgeStyle=orthogonalEdgeStyle;rounded=0;orthogonalLoop=1;jettySize=auto;html=1;exitX=1;exitY=0.5;exitDx=0;exitDy=0;exitPerimeter=0;entryX=0.5;entryY=0;entryDx=0;entryDy=0;entryPerimeter=0;" edge="1" parent="1" source="05g8EHRjyKozir9RmIMq-282" target="05g8EHRjyKozir9RmIMq-283">
          <mxGeometry relative="1" as="geometry" />
        </mxCell>
        <mxCell id="05g8EHRjyKozir9RmIMq-302" value="false" style="edgeStyle=orthogonalEdgeStyle;rounded=0;orthogonalLoop=1;jettySize=auto;html=1;exitX=0;exitY=0.5;exitDx=0;exitDy=0;exitPerimeter=0;entryX=0;entryY=0.5;entryDx=0;entryDy=0;" edge="1" parent="1" source="05g8EHRjyKozir9RmIMq-282" target="05g8EHRjyKozir9RmIMq-299">
          <mxGeometry relative="1" as="geometry">
            <Array as="points">
              <mxPoint x="-1920" y="1270" />
              <mxPoint x="-1920" y="1655" />
            </Array>
          </mxGeometry>
        </mxCell>
        <UserObject label="while(NO_OF_OV!= 0)&lt;span style=&quot;&quot;&gt;&lt;/span&gt;" Function="EN_DIO_Error_T DIO_init(uint8_t pinNumber, EN_DIO_PORT_T portNumber, EN_DIO_DIRECTION_T direction);" tags="Flowchart" id="05g8EHRjyKozir9RmIMq-282">
          <mxCell style="vsdxID=219;fillColor=#fff2cc;shape=stencil(UzV2Ls5ILEhVNTIoLinKz04tz0wpyVA1dlE1MsrMy0gtyiwBslSNXVWNndPyi1LTi/JL81Ig/IJEkEoQKze/DGRCBUSfAUiHkUElhGcK4bpBVOZk5iGpNEVVikeloQHZpsK0YlWLz1QgA+HFtMycHEgIIcujBwlQCBKcxq4A);strokeColor=#d6b656;spacingTop=-1;spacingBottom=-1;spacingLeft=-1;spacingRight=-1;points=[[0,0.5,0],[1,0.5,0],[0.5,0,0],[0.5,1,0]];labelBackgroundColor=none;rounded=1;html=1;whiteSpace=wrap;fontFamily=Calibri;" vertex="1" parent="1">
            <mxGeometry x="-1882.4300000000003" y="1220" width="127.23" height="100" as="geometry" />
          </mxCell>
        </UserObject>
        <mxCell id="05g8EHRjyKozir9RmIMq-288" value="true" style="edgeStyle=orthogonalEdgeStyle;rounded=0;orthogonalLoop=1;jettySize=auto;html=1;exitX=0.5;exitY=1;exitDx=0;exitDy=0;exitPerimeter=0;" edge="1" parent="1" source="05g8EHRjyKozir9RmIMq-283">
          <mxGeometry relative="1" as="geometry">
            <mxPoint x="-1780" y="1380" as="targetPoint" />
          </mxGeometry>
        </mxCell>
        <mxCell id="05g8EHRjyKozir9RmIMq-289" value="false" style="edgeStyle=orthogonalEdgeStyle;rounded=0;orthogonalLoop=1;jettySize=auto;html=1;exitX=1;exitY=0.5;exitDx=0;exitDy=0;exitPerimeter=0;entryX=0.5;entryY=0;entryDx=0;entryDy=0;" edge="1" parent="1" source="05g8EHRjyKozir9RmIMq-283" target="05g8EHRjyKozir9RmIMq-285">
          <mxGeometry relative="1" as="geometry" />
        </mxCell>
        <UserObject label="while(!(TIFR &amp;amp; (1&amp;lt;&amp;lt;TOV0)));&lt;span style=&quot;&quot;&gt;&lt;/span&gt;" Function="EN_DIO_Error_T DIO_init(uint8_t pinNumber, EN_DIO_PORT_T portNumber, EN_DIO_DIRECTION_T direction);" tags="Flowchart" id="05g8EHRjyKozir9RmIMq-283">
          <mxCell style="vsdxID=219;fillColor=#fff2cc;shape=stencil(UzV2Ls5ILEhVNTIoLinKz04tz0wpyVA1dlE1MsrMy0gtyiwBslSNXVWNndPyi1LTi/JL81Ig/IJEkEoQKze/DGRCBUSfAUiHkUElhGcK4bpBVOZk5iGpNEVVikeloQHZpsK0YlWLz1QgA+HFtMycHEgIIcujBwlQCBKcxq4A);strokeColor=#d6b656;spacingTop=-1;spacingBottom=-1;spacingLeft=-1;spacingRight=-1;points=[[0,0.5,0],[1,0.5,0],[0.5,0,0],[0.5,1,0]];labelBackgroundColor=none;rounded=1;html=1;whiteSpace=wrap;fontFamily=Calibri;" vertex="1" parent="1">
            <mxGeometry x="-1770.0000000000005" y="1330" width="127.23" height="100" as="geometry" />
          </mxCell>
        </UserObject>
        <mxCell id="05g8EHRjyKozir9RmIMq-287" value="" style="edgeStyle=orthogonalEdgeStyle;rounded=0;orthogonalLoop=1;jettySize=auto;html=1;" edge="1" parent="1" source="05g8EHRjyKozir9RmIMq-285" target="05g8EHRjyKozir9RmIMq-286">
          <mxGeometry relative="1" as="geometry" />
        </mxCell>
        <mxCell id="05g8EHRjyKozir9RmIMq-285" value="&lt;font style=&quot;&quot;&gt;&lt;font style=&quot;font-size: 12px;&quot;&gt;NO_OF_OV--&lt;/font&gt;&lt;br&gt;&lt;/font&gt;" style="rounded=0;whiteSpace=wrap;html=1;fontSize=16;fillColor=#d5e8d4;strokeColor=#82b366;" vertex="1" parent="1">
          <mxGeometry x="-1754.5800000000002" y="1510" width="96.39" height="40" as="geometry" />
        </mxCell>
        <mxCell id="05g8EHRjyKozir9RmIMq-301" style="edgeStyle=orthogonalEdgeStyle;rounded=0;orthogonalLoop=1;jettySize=auto;html=1;exitX=0.5;exitY=1;exitDx=0;exitDy=0;entryX=1;entryY=0.5;entryDx=0;entryDy=0;" edge="1" parent="1" source="05g8EHRjyKozir9RmIMq-286" target="05g8EHRjyKozir9RmIMq-299">
          <mxGeometry relative="1" as="geometry" />
        </mxCell>
        <mxCell id="05g8EHRjyKozir9RmIMq-286" value="&lt;font style=&quot;&quot;&gt;&lt;font style=&quot;font-size: 12px;&quot;&gt;TIFR |= (1&amp;lt;&amp;lt;TOV0);&lt;/font&gt;&lt;br&gt;&lt;/font&gt;" style="rounded=0;whiteSpace=wrap;html=1;fontSize=16;fillColor=#d5e8d4;strokeColor=#82b366;" vertex="1" parent="1">
          <mxGeometry x="-1763.6799999999998" y="1590" width="114.58" height="40" as="geometry" />
        </mxCell>
        <mxCell id="05g8EHRjyKozir9RmIMq-294" style="edgeStyle=orthogonalEdgeStyle;rounded=0;orthogonalLoop=1;jettySize=auto;html=1;exitX=1;exitY=0.5;exitDx=0;exitDy=0;exitPerimeter=0;entryX=0.5;entryY=0;entryDx=0;entryDy=0;" edge="1" parent="1" source="05g8EHRjyKozir9RmIMq-291" target="05g8EHRjyKozir9RmIMq-292">
          <mxGeometry relative="1" as="geometry" />
        </mxCell>
        <UserObject label="if(reminder&amp;gt;0)&lt;span style=&quot;&quot;&gt;&lt;/span&gt;" Function="EN_DIO_Error_T DIO_init(uint8_t pinNumber, EN_DIO_PORT_T portNumber, EN_DIO_DIRECTION_T direction);" tags="Flowchart" id="05g8EHRjyKozir9RmIMq-291">
          <mxCell style="vsdxID=219;fillColor=#fff2cc;shape=stencil(UzV2Ls5ILEhVNTIoLinKz04tz0wpyVA1dlE1MsrMy0gtyiwBslSNXVWNndPyi1LTi/JL81Ig/IJEkEoQKze/DGRCBUSfAUiHkUElhGcK4bpBVOZk5iGpNEVVikeloQHZpsK0YlWLz1QgA+HFtMycHEgIIcujBwlQCBKcxq4A);strokeColor=#d6b656;spacingTop=-1;spacingBottom=-1;spacingLeft=-1;spacingRight=-1;points=[[0,0.5,0],[1,0.5,0],[0.5,0,0],[0.5,1,0]];labelBackgroundColor=none;rounded=1;html=1;whiteSpace=wrap;fontFamily=Calibri;" vertex="1" parent="1">
            <mxGeometry x="-1886.0000000000005" y="1690" width="127.23" height="100" as="geometry" />
          </mxCell>
        </UserObject>
        <mxCell id="05g8EHRjyKozir9RmIMq-295" style="edgeStyle=orthogonalEdgeStyle;rounded=0;orthogonalLoop=1;jettySize=auto;html=1;exitX=0.5;exitY=1;exitDx=0;exitDy=0;entryX=0.5;entryY=0;entryDx=0;entryDy=0;" edge="1" parent="1" source="05g8EHRjyKozir9RmIMq-292" target="05g8EHRjyKozir9RmIMq-293">
          <mxGeometry relative="1" as="geometry" />
        </mxCell>
        <mxCell id="05g8EHRjyKozir9RmIMq-292" value="&lt;font style=&quot;font-size: 12px;&quot;&gt;calc_prescaler&lt;/font&gt;" style="shape=process;whiteSpace=wrap;html=1;backgroundOutline=1;fontSize=16;fillColor=#ffe6cc;strokeColor=#d79b00;" vertex="1" parent="1">
          <mxGeometry x="-1743.35" y="1790" width="116" height="46" as="geometry" />
        </mxCell>
        <mxCell id="05g8EHRjyKozir9RmIMq-298" style="edgeStyle=orthogonalEdgeStyle;rounded=0;orthogonalLoop=1;jettySize=auto;html=1;exitX=0.5;exitY=1;exitDx=0;exitDy=0;entryX=0.524;entryY=0;entryDx=0;entryDy=0;entryPerimeter=0;" edge="1" parent="1" source="05g8EHRjyKozir9RmIMq-293" target="05g8EHRjyKozir9RmIMq-296">
          <mxGeometry relative="1" as="geometry" />
        </mxCell>
        <mxCell id="05g8EHRjyKozir9RmIMq-293" value="&lt;font style=&quot;font-size: 12px;&quot;&gt;set_prescaler&lt;/font&gt;" style="shape=process;whiteSpace=wrap;html=1;backgroundOutline=1;fontSize=16;fillColor=#ffe6cc;strokeColor=#d79b00;" vertex="1" parent="1">
          <mxGeometry x="-1743.97" y="1880" width="116" height="46" as="geometry" />
        </mxCell>
        <mxCell id="05g8EHRjyKozir9RmIMq-297" value="true" style="edgeStyle=orthogonalEdgeStyle;rounded=0;orthogonalLoop=1;jettySize=auto;html=1;exitX=0.5;exitY=1;exitDx=0;exitDy=0;exitPerimeter=0;" edge="1" parent="1" source="05g8EHRjyKozir9RmIMq-296">
          <mxGeometry relative="1" as="geometry">
            <mxPoint x="-1758.77" y="2020" as="targetPoint" />
          </mxGeometry>
        </mxCell>
        <mxCell id="05g8EHRjyKozir9RmIMq-305" value="false" style="edgeStyle=orthogonalEdgeStyle;rounded=0;orthogonalLoop=1;jettySize=auto;html=1;exitX=1;exitY=0.5;exitDx=0;exitDy=0;exitPerimeter=0;entryX=1;entryY=0.5;entryDx=0;entryDy=0;entryPerimeter=0;" edge="1" parent="1" source="05g8EHRjyKozir9RmIMq-296" target="05g8EHRjyKozir9RmIMq-250">
          <mxGeometry relative="1" as="geometry" />
        </mxCell>
        <UserObject label="while(!(TIFR &amp;amp; (1&amp;lt;&amp;lt;TOV0)));&lt;span style=&quot;&quot;&gt;&lt;/span&gt;" Function="EN_DIO_Error_T DIO_init(uint8_t pinNumber, EN_DIO_PORT_T portNumber, EN_DIO_DIRECTION_T direction);" tags="Flowchart" id="05g8EHRjyKozir9RmIMq-296">
          <mxCell style="vsdxID=219;fillColor=#fff2cc;shape=stencil(UzV2Ls5ILEhVNTIoLinKz04tz0wpyVA1dlE1MsrMy0gtyiwBslSNXVWNndPyi1LTi/JL81Ig/IJEkEoQKze/DGRCBUSfAUiHkUElhGcK4bpBVOZk5iGpNEVVikeloQHZpsK0YlWLz1QgA+HFtMycHEgIIcujBwlQCBKcxq4A);strokeColor=#d6b656;spacingTop=-1;spacingBottom=-1;spacingLeft=-1;spacingRight=-1;points=[[0,0.5,0],[1,0.5,0],[0.5,0,0],[0.5,1,0]];labelBackgroundColor=none;rounded=1;html=1;whiteSpace=wrap;fontFamily=Calibri;" vertex="1" parent="1">
            <mxGeometry x="-1752.4500000000003" y="1970" width="127.23" height="100" as="geometry" />
          </mxCell>
        </UserObject>
        <mxCell id="05g8EHRjyKozir9RmIMq-300" style="edgeStyle=orthogonalEdgeStyle;rounded=0;orthogonalLoop=1;jettySize=auto;html=1;exitX=0.5;exitY=1;exitDx=0;exitDy=0;entryX=0.5;entryY=0;entryDx=0;entryDy=0;entryPerimeter=0;" edge="1" parent="1" source="05g8EHRjyKozir9RmIMq-299" target="05g8EHRjyKozir9RmIMq-291">
          <mxGeometry relative="1" as="geometry" />
        </mxCell>
        <mxCell id="05g8EHRjyKozir9RmIMq-299" value="" style="ellipse;whiteSpace=wrap;html=1;aspect=fixed;" vertex="1" parent="1">
          <mxGeometry x="-1837.3899999999999" y="1640" width="30" height="30" as="geometry" />
        </mxCell>
        <mxCell id="05g8EHRjyKozir9RmIMq-303" value="false" style="edgeStyle=orthogonalEdgeStyle;rounded=0;orthogonalLoop=1;jettySize=auto;html=1;exitX=1;exitY=0.5;exitDx=0;exitDy=0;exitPerimeter=0;entryX=0.5;entryY=0;entryDx=0;entryDy=0;" edge="1" parent="1" source="05g8EHRjyKozir9RmIMq-273" target="05g8EHRjyKozir9RmIMq-281">
          <mxGeometry relative="1" as="geometry" />
        </mxCell>
        <mxCell id="05g8EHRjyKozir9RmIMq-308" value="TMR0_Stop" style="text;html=1;strokeColor=#666666;fillColor=#f5f5f5;align=center;verticalAlign=middle;whiteSpace=wrap;rounded=0;fontColor=#333333;" vertex="1" parent="1">
          <mxGeometry x="-1649.1" y="360" width="150" height="30" as="geometry" />
        </mxCell>
        <mxCell id="05g8EHRjyKozir9RmIMq-309" style="edgeStyle=orthogonalEdgeStyle;rounded=0;orthogonalLoop=1;jettySize=auto;html=1;exitX=0.5;exitY=1;exitDx=0;exitDy=0;exitPerimeter=0;entryX=0.5;entryY=0;entryDx=0;entryDy=0;" edge="1" parent="1" source="05g8EHRjyKozir9RmIMq-310" target="05g8EHRjyKozir9RmIMq-312">
          <mxGeometry relative="1" as="geometry" />
        </mxCell>
        <UserObject label="&lt;div style=&quot;font-size: 1px&quot;&gt;&lt;font style=&quot;font-size: 11.29px; direction: ltr; letter-spacing: 0px; line-height: 120%; opacity: 1;&quot;&gt;start&lt;/font&gt;&lt;/div&gt;" Function="EN_DIO_Error_T DIO_init(uint8_t pinNumber, EN_DIO_PORT_T portNumber, EN_DIO_DIRECTION_T direction);" tags="Flowchart" id="05g8EHRjyKozir9RmIMq-310">
          <mxCell style="verticalAlign=middle;align=center;overflow=width;vsdxID=30;fillColor=#dae8fc;shape=stencil(tVLREoIgEPwaHnEQxsl3s/9gEpSJwDko7e+DsEkze2l627vdu5uFRaxyHe8FosR5sCcxqMZ3iO0Rpcp0ApQPCLEasUpaEC3Yi2lS3fOojOhsr3HDmObyMtsVcYqS29Qh5FEfklwrM5OXeUa/yjkcAwfr7TDpiyTfXvjkMR+Vw2A998qaBac5tAKHU1hq3i4oNwjRr9ofvayt/+Rk+yX/4iWA159KpXWKxJx/z0Bopfyw+g4=);strokeColor=#6c8ebf;spacingTop=-1;spacingBottom=-1;spacingLeft=-1;spacingRight=-1;points=[[0.5,1,0],[0.5,0,0],[0,0.5,0],[1,0.5,0]];labelBackgroundColor=none;rounded=1;html=1;whiteSpace=wrap;fontFamily=Calibri;" vertex="1" parent="1">
            <mxGeometry x="-1624.5999999999997" y="408" width="101" height="38" as="geometry" />
          </mxCell>
        </UserObject>
        <mxCell id="05g8EHRjyKozir9RmIMq-311" style="edgeStyle=orthogonalEdgeStyle;rounded=0;orthogonalLoop=1;jettySize=auto;html=1;exitX=0.5;exitY=1;exitDx=0;exitDy=0;entryX=0.5;entryY=0;entryDx=0;entryDy=0;entryPerimeter=0;" edge="1" parent="1" source="05g8EHRjyKozir9RmIMq-312" target="05g8EHRjyKozir9RmIMq-313">
          <mxGeometry relative="1" as="geometry" />
        </mxCell>
        <mxCell id="05g8EHRjyKozir9RmIMq-312" value="&lt;font style=&quot;font-size: 12px;&quot;&gt;disconnect CLK source&lt;/font&gt;" style="rounded=0;whiteSpace=wrap;html=1;fontSize=16;fillColor=#d5e8d4;strokeColor=#82b366;" vertex="1" parent="1">
          <mxGeometry x="-1624.6" y="479" width="103.5" height="44" as="geometry" />
        </mxCell>
        <UserObject label="&lt;div style=&quot;font-size: 1px&quot;&gt;&lt;font style=&quot;font-size: 11.29px; direction: ltr; letter-spacing: 0px; line-height: 120%; opacity: 1;&quot;&gt;end&lt;/font&gt;&lt;/div&gt;" Function="EN_DIO_Error_T DIO_init(uint8_t pinNumber, EN_DIO_PORT_T portNumber, EN_DIO_DIRECTION_T direction);" tags="Flowchart" id="05g8EHRjyKozir9RmIMq-313">
          <mxCell style="verticalAlign=middle;align=center;overflow=width;vsdxID=30;fillColor=#dae8fc;shape=stencil(tVLREoIgEPwaHnEQxsl3s/9gEpSJwDko7e+DsEkze2l627vdu5uFRaxyHe8FosR5sCcxqMZ3iO0Rpcp0ApQPCLEasUpaEC3Yi2lS3fOojOhsr3HDmObyMtsVcYqS29Qh5FEfklwrM5OXeUa/yjkcAwfr7TDpiyTfXvjkMR+Vw2A998qaBac5tAKHU1hq3i4oNwjRr9ofvayt/+Rk+yX/4iWA159KpXWKxJx/z0Bopfyw+g4=);strokeColor=#6c8ebf;spacingTop=-1;spacingBottom=-1;spacingLeft=-1;spacingRight=-1;points=[[0.5,1,0],[0.5,0,0],[0,0.5,0],[1,0.5,0]];labelBackgroundColor=none;rounded=1;html=1;whiteSpace=wrap;fontFamily=Calibri;" vertex="1" parent="1">
            <mxGeometry x="-1623.3499999999997" y="560" width="101" height="38" as="geometry" />
          </mxCell>
        </UserObject>
        <mxCell id="05g8EHRjyKozir9RmIMq-314" value="TMR0_CallEvent" style="text;html=1;strokeColor=#666666;fillColor=#f5f5f5;align=center;verticalAlign=middle;whiteSpace=wrap;rounded=0;fontColor=#333333;" vertex="1" parent="1">
          <mxGeometry x="-1295.5" y="371" width="150" height="30" as="geometry" />
        </mxCell>
        <mxCell id="05g8EHRjyKozir9RmIMq-315" style="edgeStyle=orthogonalEdgeStyle;rounded=0;orthogonalLoop=1;jettySize=auto;html=1;exitX=0.5;exitY=1;exitDx=0;exitDy=0;exitPerimeter=0;entryX=0.5;entryY=0;entryDx=0;entryDy=0;" edge="1" parent="1" source="05g8EHRjyKozir9RmIMq-316" target="05g8EHRjyKozir9RmIMq-318">
          <mxGeometry relative="1" as="geometry" />
        </mxCell>
        <UserObject label="&lt;div style=&quot;font-size: 1px&quot;&gt;&lt;font style=&quot;font-size: 11.29px; direction: ltr; letter-spacing: 0px; line-height: 120%; opacity: 1;&quot;&gt;start&lt;/font&gt;&lt;/div&gt;" Function="EN_DIO_Error_T DIO_init(uint8_t pinNumber, EN_DIO_PORT_T portNumber, EN_DIO_DIRECTION_T direction);" tags="Flowchart" id="05g8EHRjyKozir9RmIMq-316">
          <mxCell style="verticalAlign=middle;align=center;overflow=width;vsdxID=30;fillColor=#dae8fc;shape=stencil(tVLREoIgEPwaHnEQxsl3s/9gEpSJwDko7e+DsEkze2l627vdu5uFRaxyHe8FosR5sCcxqMZ3iO0Rpcp0ApQPCLEasUpaEC3Yi2lS3fOojOhsr3HDmObyMtsVcYqS29Qh5FEfklwrM5OXeUa/yjkcAwfr7TDpiyTfXvjkMR+Vw2A998qaBac5tAKHU1hq3i4oNwjRr9ofvayt/+Rk+yX/4iWA159KpXWKxJx/z0Bopfyw+g4=);strokeColor=#6c8ebf;spacingTop=-1;spacingBottom=-1;spacingLeft=-1;spacingRight=-1;points=[[0.5,1,0],[0.5,0,0],[0,0.5,0],[1,0.5,0]];labelBackgroundColor=none;rounded=1;html=1;whiteSpace=wrap;fontFamily=Calibri;" vertex="1" parent="1">
            <mxGeometry x="-1274.9999999999998" y="419" width="101" height="38" as="geometry" />
          </mxCell>
        </UserObject>
        <mxCell id="05g8EHRjyKozir9RmIMq-340" style="edgeStyle=orthogonalEdgeStyle;rounded=0;orthogonalLoop=1;jettySize=auto;html=1;exitX=0.5;exitY=1;exitDx=0;exitDy=0;entryX=0.5;entryY=0;entryDx=0;entryDy=0;entryPerimeter=0;" edge="1" parent="1" source="05g8EHRjyKozir9RmIMq-318" target="05g8EHRjyKozir9RmIMq-320">
          <mxGeometry relative="1" as="geometry" />
        </mxCell>
        <mxCell id="05g8EHRjyKozir9RmIMq-318" value="&lt;font style=&quot;font-size: 12px;&quot;&gt;enable over flow interrupt&lt;/font&gt;" style="rounded=0;whiteSpace=wrap;html=1;fontSize=16;fillColor=#d5e8d4;strokeColor=#82b366;" vertex="1" parent="1">
          <mxGeometry x="-1278.87" y="490" width="103.5" height="44" as="geometry" />
        </mxCell>
        <UserObject label="&lt;div style=&quot;font-size: 1px&quot;&gt;&lt;font style=&quot;font-size: 11.29px; direction: ltr; letter-spacing: 0px; line-height: 120%; opacity: 1;&quot;&gt;end&lt;/font&gt;&lt;/div&gt;" Function="EN_DIO_Error_T DIO_init(uint8_t pinNumber, EN_DIO_PORT_T portNumber, EN_DIO_DIRECTION_T direction);" tags="Flowchart" id="05g8EHRjyKozir9RmIMq-319">
          <mxCell style="verticalAlign=middle;align=center;overflow=width;vsdxID=30;fillColor=#dae8fc;shape=stencil(tVLREoIgEPwaHnEQxsl3s/9gEpSJwDko7e+DsEkze2l627vdu5uFRaxyHe8FosR5sCcxqMZ3iO0Rpcp0ApQPCLEasUpaEC3Yi2lS3fOojOhsr3HDmObyMtsVcYqS29Qh5FEfklwrM5OXeUa/yjkcAwfr7TDpiyTfXvjkMR+Vw2A998qaBac5tAKHU1hq3i4oNwjRr9ofvayt/+Rk+yX/4iWA159KpXWKxJx/z0Bopfyw+g4=);strokeColor=#6c8ebf;spacingTop=-1;spacingBottom=-1;spacingLeft=-1;spacingRight=-1;points=[[0.5,1,0],[0.5,0,0],[0,0.5,0],[1,0.5,0]];labelBackgroundColor=none;rounded=1;html=1;whiteSpace=wrap;fontFamily=Calibri;" vertex="1" parent="1">
            <mxGeometry x="-1264.2499999999998" y="1102" width="101" height="38" as="geometry" />
          </mxCell>
        </UserObject>
        <mxCell id="05g8EHRjyKozir9RmIMq-329" value="true" style="edgeStyle=orthogonalEdgeStyle;rounded=0;orthogonalLoop=1;jettySize=auto;html=1;exitX=1;exitY=0.5;exitDx=0;exitDy=0;exitPerimeter=0;entryX=0.5;entryY=0;entryDx=0;entryDy=0;" edge="1" parent="1" source="05g8EHRjyKozir9RmIMq-320" target="05g8EHRjyKozir9RmIMq-322">
          <mxGeometry relative="1" as="geometry" />
        </mxCell>
        <mxCell id="05g8EHRjyKozir9RmIMq-330" value="false" style="edgeStyle=orthogonalEdgeStyle;rounded=0;orthogonalLoop=1;jettySize=auto;html=1;entryX=0.5;entryY=0;entryDx=0;entryDy=0;" edge="1" parent="1" source="05g8EHRjyKozir9RmIMq-320" target="05g8EHRjyKozir9RmIMq-325">
          <mxGeometry relative="1" as="geometry" />
        </mxCell>
        <UserObject label="if(delay &lt; MAX_DELAY_MS(P_1024))" Function="EN_DIO_Error_T DIO_init(uint8_t pinNumber, EN_DIO_PORT_T portNumber, EN_DIO_DIRECTION_T direction);" tags="Flowchart" id="05g8EHRjyKozir9RmIMq-320">
          <mxCell style="vsdxID=219;fillColor=#fff2cc;shape=stencil(UzV2Ls5ILEhVNTIoLinKz04tz0wpyVA1dlE1MsrMy0gtyiwBslSNXVWNndPyi1LTi/JL81Ig/IJEkEoQKze/DGRCBUSfAUiHkUElhGcK4bpBVOZk5iGpNEVVikeloQHZpsK0YlWLz1QgA+HFtMycHEgIIcujBwlQCBKcxq4A);strokeColor=#d6b656;spacingTop=-1;spacingBottom=-1;spacingLeft=-1;spacingRight=-1;points=[[0,0.5,0],[1,0.5,0],[0.5,0,0],[0.5,1,0]];labelBackgroundColor=none;rounded=1;html=1;whiteSpace=wrap;fontFamily=Calibri;" vertex="1" parent="1">
            <mxGeometry x="-1303.75" y="586.28" width="153.25" height="93.72" as="geometry" />
          </mxCell>
        </UserObject>
        <mxCell id="05g8EHRjyKozir9RmIMq-321" value="&lt;div style=&quot;font-size: 1px&quot;&gt;&lt;br&gt;&lt;/div&gt;" style="text;vsdxID=219;fillColor=none;gradientColor=none;strokeColor=none;spacingTop=-1;spacingBottom=-1;spacingLeft=-1;spacingRight=-1;points=[[0,0.5,0],[1,0.5,0],[0.5,0,0],[0.5,1,0]];labelBackgroundColor=none;rounded=1;html=1;whiteSpace=wrap;verticalAlign=middle;align=center;overflow=width;;html=1;fontColor=#000000;fontFamily=Calibri;" vertex="1" parent="05g8EHRjyKozir9RmIMq-320">
          <mxGeometry x="12.851757425742576" y="11.505363157894738" width="128.47205445544554" height="70.47497368421054" as="geometry" />
        </mxCell>
        <mxCell id="05g8EHRjyKozir9RmIMq-324" value="" style="edgeStyle=orthogonalEdgeStyle;rounded=0;orthogonalLoop=1;jettySize=auto;html=1;" edge="1" parent="1" source="05g8EHRjyKozir9RmIMq-322" target="05g8EHRjyKozir9RmIMq-323">
          <mxGeometry relative="1" as="geometry" />
        </mxCell>
        <mxCell id="05g8EHRjyKozir9RmIMq-322" value="&lt;font style=&quot;font-size: 12px;&quot;&gt;initial value=(max delay - delay)/tick&lt;/font&gt;" style="rounded=0;whiteSpace=wrap;html=1;fontSize=16;fillColor=#d5e8d4;strokeColor=#82b366;" vertex="1" parent="1">
          <mxGeometry x="-1110" y="674" width="103.5" height="44" as="geometry" />
        </mxCell>
        <mxCell id="05g8EHRjyKozir9RmIMq-332" style="edgeStyle=orthogonalEdgeStyle;rounded=0;orthogonalLoop=1;jettySize=auto;html=1;exitX=0.5;exitY=1;exitDx=0;exitDy=0;entryX=1;entryY=0.5;entryDx=0;entryDy=0;" edge="1" parent="1" source="05g8EHRjyKozir9RmIMq-323" target="05g8EHRjyKozir9RmIMq-327">
          <mxGeometry relative="1" as="geometry" />
        </mxCell>
        <mxCell id="05g8EHRjyKozir9RmIMq-323" value="&lt;font style=&quot;font-size: 12px;&quot;&gt;num_of_ov=0&lt;/font&gt;" style="rounded=0;whiteSpace=wrap;html=1;fontSize=16;fillColor=#d5e8d4;strokeColor=#82b366;" vertex="1" parent="1">
          <mxGeometry x="-1110" y="760" width="103.5" height="44" as="geometry" />
        </mxCell>
        <mxCell id="05g8EHRjyKozir9RmIMq-331" style="edgeStyle=orthogonalEdgeStyle;rounded=0;orthogonalLoop=1;jettySize=auto;html=1;exitX=0.5;exitY=1;exitDx=0;exitDy=0;entryX=0.5;entryY=0;entryDx=0;entryDy=0;" edge="1" parent="1" source="05g8EHRjyKozir9RmIMq-325" target="05g8EHRjyKozir9RmIMq-326">
          <mxGeometry relative="1" as="geometry" />
        </mxCell>
        <mxCell id="05g8EHRjyKozir9RmIMq-325" value="&lt;span style=&quot;font-size: 12px;&quot;&gt;num_of_ov=delay/max delay&lt;/span&gt;" style="rounded=0;whiteSpace=wrap;html=1;fontSize=16;fillColor=#d5e8d4;strokeColor=#82b366;" vertex="1" parent="1">
          <mxGeometry x="-1450" y="670" width="130" height="60" as="geometry" />
        </mxCell>
        <mxCell id="05g8EHRjyKozir9RmIMq-333" style="edgeStyle=orthogonalEdgeStyle;rounded=0;orthogonalLoop=1;jettySize=auto;html=1;exitX=0.5;exitY=1;exitDx=0;exitDy=0;entryX=0;entryY=0.5;entryDx=0;entryDy=0;" edge="1" parent="1" source="05g8EHRjyKozir9RmIMq-326" target="05g8EHRjyKozir9RmIMq-327">
          <mxGeometry relative="1" as="geometry" />
        </mxCell>
        <mxCell id="05g8EHRjyKozir9RmIMq-326" value="&lt;font style=&quot;font-size: 12px;&quot;&gt;initial value= 0&lt;/font&gt;" style="rounded=0;whiteSpace=wrap;html=1;fontSize=16;fillColor=#d5e8d4;strokeColor=#82b366;" vertex="1" parent="1">
          <mxGeometry x="-1436.75" y="760" width="103.5" height="44" as="geometry" />
        </mxCell>
        <mxCell id="05g8EHRjyKozir9RmIMq-339" style="edgeStyle=orthogonalEdgeStyle;rounded=0;orthogonalLoop=1;jettySize=auto;html=1;exitX=0.5;exitY=1;exitDx=0;exitDy=0;entryX=0.5;entryY=0;entryDx=0;entryDy=0;" edge="1" parent="1" source="05g8EHRjyKozir9RmIMq-327" target="05g8EHRjyKozir9RmIMq-334">
          <mxGeometry relative="1" as="geometry" />
        </mxCell>
        <mxCell id="05g8EHRjyKozir9RmIMq-327" value="" style="ellipse;whiteSpace=wrap;html=1;aspect=fixed;" vertex="1" parent="1">
          <mxGeometry x="-1230" y="830" width="30" height="30" as="geometry" />
        </mxCell>
        <mxCell id="05g8EHRjyKozir9RmIMq-336" value="" style="edgeStyle=orthogonalEdgeStyle;rounded=0;orthogonalLoop=1;jettySize=auto;html=1;" edge="1" parent="1" source="05g8EHRjyKozir9RmIMq-334" target="05g8EHRjyKozir9RmIMq-335">
          <mxGeometry relative="1" as="geometry" />
        </mxCell>
        <mxCell id="05g8EHRjyKozir9RmIMq-334" value="&lt;span style=&quot;font-size: 12px;&quot;&gt;set timer initial value&lt;/span&gt;" style="rounded=0;whiteSpace=wrap;html=1;fontSize=16;fillColor=#d5e8d4;strokeColor=#82b366;" vertex="1" parent="1">
          <mxGeometry x="-1266.75" y="890" width="103.5" height="44" as="geometry" />
        </mxCell>
        <mxCell id="05g8EHRjyKozir9RmIMq-338" value="" style="edgeStyle=orthogonalEdgeStyle;rounded=0;orthogonalLoop=1;jettySize=auto;html=1;" edge="1" parent="1" source="05g8EHRjyKozir9RmIMq-335" target="05g8EHRjyKozir9RmIMq-337">
          <mxGeometry relative="1" as="geometry" />
        </mxCell>
        <mxCell id="05g8EHRjyKozir9RmIMq-335" value="&lt;span style=&quot;font-size: 12px;&quot;&gt;set call back variable&lt;/span&gt;" style="rounded=0;whiteSpace=wrap;html=1;fontSize=16;fillColor=#d5e8d4;strokeColor=#82b366;" vertex="1" parent="1">
          <mxGeometry x="-1266.75" y="960" width="103.5" height="44" as="geometry" />
        </mxCell>
        <mxCell id="05g8EHRjyKozir9RmIMq-341" style="edgeStyle=orthogonalEdgeStyle;rounded=0;orthogonalLoop=1;jettySize=auto;html=1;exitX=0.5;exitY=1;exitDx=0;exitDy=0;entryX=0.5;entryY=0;entryDx=0;entryDy=0;entryPerimeter=0;" edge="1" parent="1" source="05g8EHRjyKozir9RmIMq-337" target="05g8EHRjyKozir9RmIMq-319">
          <mxGeometry relative="1" as="geometry" />
        </mxCell>
        <mxCell id="05g8EHRjyKozir9RmIMq-337" value="&lt;span style=&quot;font-size: 12px;&quot;&gt;enable timer clock&lt;/span&gt;" style="rounded=0;whiteSpace=wrap;html=1;fontSize=16;fillColor=#d5e8d4;strokeColor=#82b366;" vertex="1" parent="1">
          <mxGeometry x="-1266.75" y="1030" width="103.5" height="44" as="geometry" />
        </mxCell>
        <mxCell id="05g8EHRjyKozir9RmIMq-342" value="TMR0_TimeOut_Ms" style="text;html=1;strokeColor=#666666;fillColor=#f5f5f5;align=center;verticalAlign=middle;whiteSpace=wrap;rounded=0;fontColor=#333333;" vertex="1" parent="1">
          <mxGeometry x="-762.12" y="378" width="150" height="30" as="geometry" />
        </mxCell>
        <mxCell id="05g8EHRjyKozir9RmIMq-375" style="edgeStyle=orthogonalEdgeStyle;rounded=0;orthogonalLoop=1;jettySize=auto;html=1;exitX=0.5;exitY=1;exitDx=0;exitDy=0;exitPerimeter=0;entryX=0.5;entryY=0;entryDx=0;entryDy=0;entryPerimeter=0;" edge="1" parent="1" source="05g8EHRjyKozir9RmIMq-344" target="05g8EHRjyKozir9RmIMq-350">
          <mxGeometry relative="1" as="geometry" />
        </mxCell>
        <UserObject label="&lt;div style=&quot;font-size: 1px&quot;&gt;&lt;font style=&quot;font-size: 11.29px; direction: ltr; letter-spacing: 0px; line-height: 120%; opacity: 1;&quot;&gt;start&lt;/font&gt;&lt;/div&gt;" Function="EN_DIO_Error_T DIO_init(uint8_t pinNumber, EN_DIO_PORT_T portNumber, EN_DIO_DIRECTION_T direction);" tags="Flowchart" id="05g8EHRjyKozir9RmIMq-344">
          <mxCell style="verticalAlign=middle;align=center;overflow=width;vsdxID=30;fillColor=#dae8fc;shape=stencil(tVLREoIgEPwaHnEQxsl3s/9gEpSJwDko7e+DsEkze2l627vdu5uFRaxyHe8FosR5sCcxqMZ3iO0Rpcp0ApQPCLEasUpaEC3Yi2lS3fOojOhsr3HDmObyMtsVcYqS29Qh5FEfklwrM5OXeUa/yjkcAwfr7TDpiyTfXvjkMR+Vw2A998qaBac5tAKHU1hq3i4oNwjRr9ofvayt/+Rk+yX/4iWA159KpXWKxJx/z0Bopfyw+g4=);strokeColor=#6c8ebf;spacingTop=-1;spacingBottom=-1;spacingLeft=-1;spacingRight=-1;points=[[0.5,1,0],[0.5,0,0],[0,0.5,0],[1,0.5,0]];labelBackgroundColor=none;rounded=1;html=1;whiteSpace=wrap;fontFamily=Calibri;" vertex="1" parent="1">
            <mxGeometry x="-737.6199999999998" y="430" width="101" height="38" as="geometry" />
          </mxCell>
        </UserObject>
        <UserObject label="&lt;div style=&quot;font-size: 1px&quot;&gt;&lt;font style=&quot;font-size: 11.29px; direction: ltr; letter-spacing: 0px; line-height: 120%; opacity: 1;&quot;&gt;end&lt;/font&gt;&lt;/div&gt;" Function="EN_DIO_Error_T DIO_init(uint8_t pinNumber, EN_DIO_PORT_T portNumber, EN_DIO_DIRECTION_T direction);" tags="Flowchart" id="05g8EHRjyKozir9RmIMq-347">
          <mxCell style="verticalAlign=middle;align=center;overflow=width;vsdxID=30;fillColor=#dae8fc;shape=stencil(tVLREoIgEPwaHnEQxsl3s/9gEpSJwDko7e+DsEkze2l627vdu5uFRaxyHe8FosR5sCcxqMZ3iO0Rpcp0ApQPCLEasUpaEC3Yi2lS3fOojOhsr3HDmObyMtsVcYqS29Qh5FEfklwrM5OXeUa/yjkcAwfr7TDpiyTfXvjkMR+Vw2A998qaBac5tAKHU1hq3i4oNwjRr9ofvayt/+Rk+yX/4iWA159KpXWKxJx/z0Bopfyw+g4=);strokeColor=#6c8ebf;spacingTop=-1;spacingBottom=-1;spacingLeft=-1;spacingRight=-1;points=[[0.5,1,0],[0.5,0,0],[0,0.5,0],[1,0.5,0]];labelBackgroundColor=none;rounded=1;html=1;whiteSpace=wrap;fontFamily=Calibri;" vertex="1" parent="1">
            <mxGeometry x="-726.7499999999998" y="1073.72" width="101" height="38" as="geometry" />
          </mxCell>
        </UserObject>
        <mxCell id="05g8EHRjyKozir9RmIMq-348" value="true" style="edgeStyle=orthogonalEdgeStyle;rounded=0;orthogonalLoop=1;jettySize=auto;html=1;exitX=1;exitY=0.5;exitDx=0;exitDy=0;exitPerimeter=0;entryX=0.5;entryY=0;entryDx=0;entryDy=0;" edge="1" parent="1" source="05g8EHRjyKozir9RmIMq-350" target="05g8EHRjyKozir9RmIMq-353">
          <mxGeometry relative="1" as="geometry" />
        </mxCell>
        <mxCell id="05g8EHRjyKozir9RmIMq-349" value="false" style="edgeStyle=orthogonalEdgeStyle;rounded=0;orthogonalLoop=1;jettySize=auto;html=1;entryX=0.5;entryY=0;entryDx=0;entryDy=0;" edge="1" parent="1" source="05g8EHRjyKozir9RmIMq-350" target="05g8EHRjyKozir9RmIMq-357">
          <mxGeometry relative="1" as="geometry" />
        </mxCell>
        <UserObject label="if(delay &lt; MAX_DELAY_MS(P_1024))" Function="EN_DIO_Error_T DIO_init(uint8_t pinNumber, EN_DIO_PORT_T portNumber, EN_DIO_DIRECTION_T direction);" tags="Flowchart" id="05g8EHRjyKozir9RmIMq-350">
          <mxCell style="vsdxID=219;fillColor=#fff2cc;shape=stencil(UzV2Ls5ILEhVNTIoLinKz04tz0wpyVA1dlE1MsrMy0gtyiwBslSNXVWNndPyi1LTi/JL81Ig/IJEkEoQKze/DGRCBUSfAUiHkUElhGcK4bpBVOZk5iGpNEVVikeloQHZpsK0YlWLz1QgA+HFtMycHEgIIcujBwlQCBKcxq4A);strokeColor=#d6b656;spacingTop=-1;spacingBottom=-1;spacingLeft=-1;spacingRight=-1;points=[[0,0.5,0],[1,0.5,0],[0.5,0,0],[0.5,1,0]];labelBackgroundColor=none;rounded=1;html=1;whiteSpace=wrap;fontFamily=Calibri;" vertex="1" parent="1">
            <mxGeometry x="-763.75" y="500" width="153.25" height="93.72" as="geometry" />
          </mxCell>
        </UserObject>
        <mxCell id="05g8EHRjyKozir9RmIMq-351" value="&lt;div style=&quot;font-size: 1px&quot;&gt;&lt;br&gt;&lt;/div&gt;" style="text;vsdxID=219;fillColor=none;gradientColor=none;strokeColor=none;spacingTop=-1;spacingBottom=-1;spacingLeft=-1;spacingRight=-1;points=[[0,0.5,0],[1,0.5,0],[0.5,0,0],[0.5,1,0]];labelBackgroundColor=none;rounded=1;html=1;whiteSpace=wrap;verticalAlign=middle;align=center;overflow=width;;html=1;fontColor=#000000;fontFamily=Calibri;" vertex="1" parent="05g8EHRjyKozir9RmIMq-350">
          <mxGeometry x="12.851757425742576" y="11.505363157894738" width="128.47205445544554" height="70.47497368421054" as="geometry" />
        </mxCell>
        <mxCell id="05g8EHRjyKozir9RmIMq-352" value="" style="edgeStyle=orthogonalEdgeStyle;rounded=0;orthogonalLoop=1;jettySize=auto;html=1;" edge="1" parent="1" source="05g8EHRjyKozir9RmIMq-353" target="05g8EHRjyKozir9RmIMq-355">
          <mxGeometry relative="1" as="geometry" />
        </mxCell>
        <mxCell id="05g8EHRjyKozir9RmIMq-353" value="&lt;font style=&quot;font-size: 12px;&quot;&gt;initial value=delay&lt;/font&gt;" style="rounded=0;whiteSpace=wrap;html=1;fontSize=16;fillColor=#d5e8d4;strokeColor=#82b366;" vertex="1" parent="1">
          <mxGeometry x="-570" y="587.72" width="103.5" height="44" as="geometry" />
        </mxCell>
        <mxCell id="05g8EHRjyKozir9RmIMq-354" style="edgeStyle=orthogonalEdgeStyle;rounded=0;orthogonalLoop=1;jettySize=auto;html=1;exitX=0.5;exitY=1;exitDx=0;exitDy=0;entryX=1;entryY=0.5;entryDx=0;entryDy=0;" edge="1" parent="1" source="05g8EHRjyKozir9RmIMq-355" target="05g8EHRjyKozir9RmIMq-361">
          <mxGeometry relative="1" as="geometry" />
        </mxCell>
        <mxCell id="05g8EHRjyKozir9RmIMq-355" value="&lt;font style=&quot;font-size: 12px;&quot;&gt;num_of_ov=0&lt;/font&gt;" style="rounded=0;whiteSpace=wrap;html=1;fontSize=16;fillColor=#d5e8d4;strokeColor=#82b366;" vertex="1" parent="1">
          <mxGeometry x="-570" y="673.72" width="103.5" height="44" as="geometry" />
        </mxCell>
        <mxCell id="05g8EHRjyKozir9RmIMq-356" style="edgeStyle=orthogonalEdgeStyle;rounded=0;orthogonalLoop=1;jettySize=auto;html=1;exitX=0.5;exitY=1;exitDx=0;exitDy=0;entryX=0.5;entryY=0;entryDx=0;entryDy=0;" edge="1" parent="1" source="05g8EHRjyKozir9RmIMq-357" target="05g8EHRjyKozir9RmIMq-359">
          <mxGeometry relative="1" as="geometry" />
        </mxCell>
        <mxCell id="05g8EHRjyKozir9RmIMq-357" value="&lt;span style=&quot;font-size: 12px;&quot;&gt;num_of_ov=delay/max delay&lt;/span&gt;" style="rounded=0;whiteSpace=wrap;html=1;fontSize=16;fillColor=#d5e8d4;strokeColor=#82b366;" vertex="1" parent="1">
          <mxGeometry x="-910" y="583.72" width="130" height="60" as="geometry" />
        </mxCell>
        <mxCell id="05g8EHRjyKozir9RmIMq-358" style="edgeStyle=orthogonalEdgeStyle;rounded=0;orthogonalLoop=1;jettySize=auto;html=1;exitX=0.5;exitY=1;exitDx=0;exitDy=0;entryX=0;entryY=0.5;entryDx=0;entryDy=0;" edge="1" parent="1" source="05g8EHRjyKozir9RmIMq-359" target="05g8EHRjyKozir9RmIMq-361">
          <mxGeometry relative="1" as="geometry" />
        </mxCell>
        <mxCell id="05g8EHRjyKozir9RmIMq-359" value="&lt;font style=&quot;font-size: 12px;&quot;&gt;initial value= max timer count-1&lt;/font&gt;" style="rounded=0;whiteSpace=wrap;html=1;fontSize=16;fillColor=#d5e8d4;strokeColor=#82b366;" vertex="1" parent="1">
          <mxGeometry x="-896.75" y="673.72" width="103.5" height="44" as="geometry" />
        </mxCell>
        <mxCell id="05g8EHRjyKozir9RmIMq-360" style="edgeStyle=orthogonalEdgeStyle;rounded=0;orthogonalLoop=1;jettySize=auto;html=1;exitX=0.5;exitY=1;exitDx=0;exitDy=0;entryX=0.5;entryY=0;entryDx=0;entryDy=0;" edge="1" parent="1" source="05g8EHRjyKozir9RmIMq-361" target="05g8EHRjyKozir9RmIMq-363">
          <mxGeometry relative="1" as="geometry" />
        </mxCell>
        <mxCell id="05g8EHRjyKozir9RmIMq-361" value="" style="ellipse;whiteSpace=wrap;html=1;aspect=fixed;" vertex="1" parent="1">
          <mxGeometry x="-690" y="743.72" width="30" height="30" as="geometry" />
        </mxCell>
        <mxCell id="05g8EHRjyKozir9RmIMq-362" value="" style="edgeStyle=orthogonalEdgeStyle;rounded=0;orthogonalLoop=1;jettySize=auto;html=1;" edge="1" parent="1" source="05g8EHRjyKozir9RmIMq-363" target="05g8EHRjyKozir9RmIMq-365">
          <mxGeometry relative="1" as="geometry" />
        </mxCell>
        <mxCell id="05g8EHRjyKozir9RmIMq-363" value="&lt;span style=&quot;font-size: 12px;&quot;&gt;set timer initial value&lt;/span&gt;" style="rounded=0;whiteSpace=wrap;html=1;fontSize=16;fillColor=#d5e8d4;strokeColor=#82b366;" vertex="1" parent="1">
          <mxGeometry x="-726.75" y="803.72" width="103.5" height="44" as="geometry" />
        </mxCell>
        <mxCell id="05g8EHRjyKozir9RmIMq-371" style="edgeStyle=orthogonalEdgeStyle;rounded=0;orthogonalLoop=1;jettySize=auto;html=1;exitX=0.5;exitY=1;exitDx=0;exitDy=0;entryX=0.5;entryY=0;entryDx=0;entryDy=0;" edge="1" parent="1" source="05g8EHRjyKozir9RmIMq-365" target="05g8EHRjyKozir9RmIMq-368">
          <mxGeometry relative="1" as="geometry" />
        </mxCell>
        <mxCell id="05g8EHRjyKozir9RmIMq-365" value="&lt;span style=&quot;font-size: 12px;&quot;&gt;set compare match register=initial value&lt;/span&gt;" style="rounded=0;whiteSpace=wrap;html=1;fontSize=16;fillColor=#d5e8d4;strokeColor=#82b366;" vertex="1" parent="1">
          <mxGeometry x="-748.37" y="873.72" width="146.75" height="40" as="geometry" />
        </mxCell>
        <mxCell id="05g8EHRjyKozir9RmIMq-374" style="edgeStyle=orthogonalEdgeStyle;rounded=0;orthogonalLoop=1;jettySize=auto;html=1;exitX=0.5;exitY=1;exitDx=0;exitDy=0;entryX=0.5;entryY=0;entryDx=0;entryDy=0;entryPerimeter=0;" edge="1" parent="1" source="05g8EHRjyKozir9RmIMq-367" target="05g8EHRjyKozir9RmIMq-347">
          <mxGeometry relative="1" as="geometry" />
        </mxCell>
        <mxCell id="05g8EHRjyKozir9RmIMq-367" value="&lt;span style=&quot;font-size: 12px;&quot;&gt;enable timer clock&lt;/span&gt;" style="rounded=0;whiteSpace=wrap;html=1;fontSize=16;fillColor=#d5e8d4;strokeColor=#82b366;" vertex="1" parent="1">
          <mxGeometry x="-726.75" y="1009.72" width="103.5" height="44" as="geometry" />
        </mxCell>
        <mxCell id="05g8EHRjyKozir9RmIMq-373" style="edgeStyle=orthogonalEdgeStyle;rounded=0;orthogonalLoop=1;jettySize=auto;html=1;exitX=0.5;exitY=1;exitDx=0;exitDy=0;entryX=0.5;entryY=0;entryDx=0;entryDy=0;" edge="1" parent="1" source="05g8EHRjyKozir9RmIMq-368" target="05g8EHRjyKozir9RmIMq-367">
          <mxGeometry relative="1" as="geometry" />
        </mxCell>
        <mxCell id="05g8EHRjyKozir9RmIMq-368" value="&lt;font style=&quot;font-size: 12px;&quot;&gt;clear&amp;nbsp;g_timeout_flag=0&lt;/font&gt;" style="rounded=0;whiteSpace=wrap;html=1;fontSize=16;fillColor=#d5e8d4;strokeColor=#82b366;" vertex="1" parent="1">
          <mxGeometry x="-738.37" y="943.72" width="126.75" height="44" as="geometry" />
        </mxCell>
        <UserObject label="&lt;div style=&quot;font-size: 1px&quot;&gt;&lt;font style=&quot;font-size: 11.29px; direction: ltr; letter-spacing: 0px; line-height: 120%; opacity: 1;&quot;&gt;start&lt;/font&gt;&lt;/div&gt;" Function="EN_DIO_Error_T DIO_init(uint8_t pinNumber, EN_DIO_PORT_T portNumber, EN_DIO_DIRECTION_T direction);" tags="Flowchart" id="05g8EHRjyKozir9RmIMq-377">
          <mxCell style="verticalAlign=middle;align=center;overflow=width;vsdxID=30;fillColor=#dae8fc;shape=stencil(tVLREoIgEPwaHnEQxsl3s/9gEpSJwDko7e+DsEkze2l627vdu5uFRaxyHe8FosR5sCcxqMZ3iO0Rpcp0ApQPCLEasUpaEC3Yi2lS3fOojOhsr3HDmObyMtsVcYqS29Qh5FEfklwrM5OXeUa/yjkcAwfr7TDpiyTfXvjkMR+Vw2A998qaBac5tAKHU1hq3i4oNwjRr9ofvayt/+Rk+yX/4iWA159KpXWKxJx/z0Bopfyw+g4=);strokeColor=#6c8ebf;spacingTop=-1;spacingBottom=-1;spacingLeft=-1;spacingRight=-1;points=[[0.5,1,0],[0.5,0,0],[0,0.5,0],[1,0.5,0]];labelBackgroundColor=none;rounded=1;html=1;whiteSpace=wrap;fontFamily=Calibri;" vertex="1" parent="1">
            <mxGeometry x="-2429.0699999999997" y="-92" width="101" height="38" as="geometry" />
          </mxCell>
        </UserObject>
        <mxCell id="05g8EHRjyKozir9RmIMq-378" value="TMR2_PWM_Init" style="text;html=1;strokeColor=#666666;fillColor=#f5f5f5;align=center;verticalAlign=middle;whiteSpace=wrap;rounded=0;fontColor=#333333;" vertex="1" parent="1">
          <mxGeometry x="-2433.5699999999997" y="-140" width="110" height="30" as="geometry" />
        </mxCell>
        <mxCell id="05g8EHRjyKozir9RmIMq-379" value="&lt;font style=&quot;font-size: 12px;&quot;&gt;set pin direction to output&lt;br&gt;&lt;/font&gt;" style="rounded=0;whiteSpace=wrap;html=1;fontSize=16;fillColor=#d5e8d4;strokeColor=#82b366;" vertex="1" parent="1">
          <mxGeometry x="-2430.31" y="-21" width="108.86" height="64" as="geometry" />
        </mxCell>
        <mxCell id="05g8EHRjyKozir9RmIMq-380" style="edgeStyle=orthogonalEdgeStyle;rounded=0;orthogonalLoop=1;jettySize=auto;html=1;exitX=0.5;exitY=1;exitDx=0;exitDy=0;exitPerimeter=0;entryX=0.5;entryY=0;entryDx=0;entryDy=0;" edge="1" parent="1" source="05g8EHRjyKozir9RmIMq-377" target="05g8EHRjyKozir9RmIMq-379">
          <mxGeometry relative="1" as="geometry" />
        </mxCell>
        <mxCell id="05g8EHRjyKozir9RmIMq-381" value="&lt;font style=&quot;font-size: 12px;&quot;&gt;calculate PWM&lt;br&gt;&amp;nbsp;periodic time in ms&lt;br&gt;&lt;span style=&quot;&quot;&gt;g_period_time=1.0F/pwm_frequency&lt;/span&gt;&lt;br&gt;&lt;/font&gt;" style="whiteSpace=wrap;html=1;fontSize=16;fillColor=#d5e8d4;strokeColor=#82b366;rounded=0;" vertex="1" parent="1">
          <mxGeometry x="-2480.88" y="80" width="210" height="77" as="geometry" />
        </mxCell>
        <mxCell id="05g8EHRjyKozir9RmIMq-382" style="edgeStyle=orthogonalEdgeStyle;rounded=0;orthogonalLoop=1;jettySize=auto;html=1;exitX=0.5;exitY=1;exitDx=0;exitDy=0;entryX=0.5;entryY=0;entryDx=0;entryDy=0;" edge="1" parent="1" source="05g8EHRjyKozir9RmIMq-379" target="05g8EHRjyKozir9RmIMq-381">
          <mxGeometry relative="1" as="geometry" />
        </mxCell>
        <UserObject label="&lt;div style=&quot;font-size: 1px&quot;&gt;&lt;font style=&quot;font-size: 11.29px; direction: ltr; letter-spacing: 0px; line-height: 120%; opacity: 1;&quot;&gt;end&lt;/font&gt;&lt;/div&gt;" Function="EN_DIO_Error_T DIO_init(uint8_t pinNumber, EN_DIO_PORT_T portNumber, EN_DIO_DIRECTION_T direction);" tags="Flowchart" id="05g8EHRjyKozir9RmIMq-383">
          <mxCell style="verticalAlign=middle;align=center;overflow=width;vsdxID=30;fillColor=#dae8fc;shape=stencil(tVLREoIgEPwaHnEQxsl3s/9gEpSJwDko7e+DsEkze2l627vdu5uFRaxyHe8FosR5sCcxqMZ3iO0Rpcp0ApQPCLEasUpaEC3Yi2lS3fOojOhsr3HDmObyMtsVcYqS29Qh5FEfklwrM5OXeUa/yjkcAwfr7TDpiyTfXvjkMR+Vw2A998qaBac5tAKHU1hq3i4oNwjRr9ofvayt/+Rk+yX/4iWA159KpXWKxJx/z0Bopfyw+g4=);strokeColor=#6c8ebf;spacingTop=-1;spacingBottom=-1;spacingLeft=-1;spacingRight=-1;points=[[0.5,1,0],[0.5,0,0],[0,0.5,0],[1,0.5,0]];labelBackgroundColor=none;rounded=1;html=1;whiteSpace=wrap;fontFamily=Calibri;" vertex="1" parent="1">
            <mxGeometry x="-2426.38" y="283.5" width="101" height="38" as="geometry" />
          </mxCell>
        </UserObject>
        <mxCell id="05g8EHRjyKozir9RmIMq-384" style="edgeStyle=orthogonalEdgeStyle;rounded=0;orthogonalLoop=1;jettySize=auto;html=1;exitX=0.5;exitY=1;exitDx=0;exitDy=0;entryX=0.5;entryY=0;entryDx=0;entryDy=0;entryPerimeter=0;" edge="1" parent="1" source="05g8EHRjyKozir9RmIMq-385" target="05g8EHRjyKozir9RmIMq-383">
          <mxGeometry relative="1" as="geometry" />
        </mxCell>
        <mxCell id="05g8EHRjyKozir9RmIMq-385" value="&lt;font style=&quot;font-size: 12px;&quot;&gt;Enable Timer2 Overflow Interrupt&lt;/font&gt;" style="whiteSpace=wrap;html=1;fontSize=16;fillColor=#d5e8d4;strokeColor=#82b366;rounded=0;" vertex="1" parent="1">
          <mxGeometry x="-2440" y="186" width="128.25" height="60" as="geometry" />
        </mxCell>
        <mxCell id="05g8EHRjyKozir9RmIMq-386" value="" style="edgeStyle=orthogonalEdgeStyle;rounded=0;orthogonalLoop=1;jettySize=auto;html=1;" edge="1" parent="1" source="05g8EHRjyKozir9RmIMq-381" target="05g8EHRjyKozir9RmIMq-385">
          <mxGeometry relative="1" as="geometry" />
        </mxCell>
        <UserObject label="&lt;div style=&quot;font-size: 1px&quot;&gt;&lt;font style=&quot;font-size: 11.29px; direction: ltr; letter-spacing: 0px; line-height: 120%; opacity: 1;&quot;&gt;start&lt;/font&gt;&lt;/div&gt;" Function="EN_DIO_Error_T DIO_init(uint8_t pinNumber, EN_DIO_PORT_T portNumber, EN_DIO_DIRECTION_T direction);" tags="Flowchart" id="05g8EHRjyKozir9RmIMq-387">
          <mxCell style="verticalAlign=middle;align=center;overflow=width;vsdxID=30;fillColor=#dae8fc;shape=stencil(tVLREoIgEPwaHnEQxsl3s/9gEpSJwDko7e+DsEkze2l627vdu5uFRaxyHe8FosR5sCcxqMZ3iO0Rpcp0ApQPCLEasUpaEC3Yi2lS3fOojOhsr3HDmObyMtsVcYqS29Qh5FEfklwrM5OXeUa/yjkcAwfr7TDpiyTfXvjkMR+Vw2A998qaBac5tAKHU1hq3i4oNwjRr9ofvayt/+Rk+yX/4iWA159KpXWKxJx/z0Bopfyw+g4=);strokeColor=#6c8ebf;spacingTop=-1;spacingBottom=-1;spacingLeft=-1;spacingRight=-1;points=[[0.5,1,0],[0.5,0,0],[0,0.5,0],[1,0.5,0]];labelBackgroundColor=none;rounded=1;html=1;whiteSpace=wrap;fontFamily=Calibri;" vertex="1" parent="1">
            <mxGeometry x="-2898.1899999999996" y="-92" width="101" height="38" as="geometry" />
          </mxCell>
        </UserObject>
        <mxCell id="05g8EHRjyKozir9RmIMq-388" value="TMR2_PWM_start" style="text;html=1;strokeColor=#666666;fillColor=#f5f5f5;align=center;verticalAlign=middle;whiteSpace=wrap;rounded=0;fontColor=#333333;" vertex="1" parent="1">
          <mxGeometry x="-2902.6899999999996" y="-140" width="110" height="30" as="geometry" />
        </mxCell>
        <mxCell id="05g8EHRjyKozir9RmIMq-389" value="&lt;font style=&quot;font-size: 12px;&quot;&gt;time_on=(g_period_time*duty_cycle)/100&lt;br&gt;&lt;/font&gt;" style="rounded=0;whiteSpace=wrap;html=1;fontSize=16;fillColor=#d5e8d4;strokeColor=#82b366;" vertex="1" parent="1">
          <mxGeometry x="-2932.4" y="-31" width="169.43" height="51" as="geometry" />
        </mxCell>
        <mxCell id="05g8EHRjyKozir9RmIMq-390" style="edgeStyle=orthogonalEdgeStyle;rounded=0;orthogonalLoop=1;jettySize=auto;html=1;exitX=0.5;exitY=1;exitDx=0;exitDy=0;exitPerimeter=0;entryX=0.5;entryY=0;entryDx=0;entryDy=0;" edge="1" parent="1" source="05g8EHRjyKozir9RmIMq-387" target="05g8EHRjyKozir9RmIMq-389">
          <mxGeometry relative="1" as="geometry" />
        </mxCell>
        <mxCell id="05g8EHRjyKozir9RmIMq-409" style="edgeStyle=orthogonalEdgeStyle;rounded=0;orthogonalLoop=1;jettySize=auto;html=1;exitX=0.5;exitY=1;exitDx=0;exitDy=0;entryX=0.5;entryY=0;entryDx=0;entryDy=0;" edge="1" parent="1" source="05g8EHRjyKozir9RmIMq-391" target="05g8EHRjyKozir9RmIMq-397">
          <mxGeometry relative="1" as="geometry" />
        </mxCell>
        <mxCell id="05g8EHRjyKozir9RmIMq-391" value="&lt;font style=&quot;&quot;&gt;&lt;font style=&quot;font-size: 12px;&quot;&gt;time_off=g_period_time-time_on;&lt;/font&gt;&lt;span style=&quot;font-size: 12px;&quot;&gt;&lt;/span&gt;&lt;br&gt;&lt;/font&gt;" style="whiteSpace=wrap;html=1;fontSize=16;fillColor=#d5e8d4;strokeColor=#82b366;rounded=0;" vertex="1" parent="1">
          <mxGeometry x="-2940.51" y="53" width="185.65" height="39.5" as="geometry" />
        </mxCell>
        <mxCell id="05g8EHRjyKozir9RmIMq-392" style="edgeStyle=orthogonalEdgeStyle;rounded=0;orthogonalLoop=1;jettySize=auto;html=1;exitX=0.5;exitY=1;exitDx=0;exitDy=0;entryX=0.5;entryY=0;entryDx=0;entryDy=0;" edge="1" parent="1" source="05g8EHRjyKozir9RmIMq-389" target="05g8EHRjyKozir9RmIMq-391">
          <mxGeometry relative="1" as="geometry" />
        </mxCell>
        <UserObject label="&lt;div style=&quot;font-size: 1px&quot;&gt;&lt;font style=&quot;font-size: 11.29px; direction: ltr; letter-spacing: 0px; line-height: 120%; opacity: 1;&quot;&gt;end&lt;/font&gt;&lt;/div&gt;" Function="EN_DIO_Error_T DIO_init(uint8_t pinNumber, EN_DIO_PORT_T portNumber, EN_DIO_DIRECTION_T direction);" tags="Flowchart" id="05g8EHRjyKozir9RmIMq-393">
          <mxCell style="verticalAlign=middle;align=center;overflow=width;vsdxID=30;fillColor=#dae8fc;shape=stencil(tVLREoIgEPwaHnEQxsl3s/9gEpSJwDko7e+DsEkze2l627vdu5uFRaxyHe8FosR5sCcxqMZ3iO0Rpcp0ApQPCLEasUpaEC3Yi2lS3fOojOhsr3HDmObyMtsVcYqS29Qh5FEfklwrM5OXeUa/yjkcAwfr7TDpiyTfXvjkMR+Vw2A998qaBac5tAKHU1hq3i4oNwjRr9ofvayt/+Rk+yX/4iWA159KpXWKxJx/z0Bopfyw+g4=);strokeColor=#6c8ebf;spacingTop=-1;spacingBottom=-1;spacingLeft=-1;spacingRight=-1;points=[[0.5,1,0],[0.5,0,0],[0,0.5,0],[1,0.5,0]];labelBackgroundColor=none;rounded=1;html=1;whiteSpace=wrap;fontFamily=Calibri;" vertex="1" parent="1">
            <mxGeometry x="-2898.19" y="662" width="101" height="38" as="geometry" />
          </mxCell>
        </UserObject>
        <mxCell id="05g8EHRjyKozir9RmIMq-399" value="" style="edgeStyle=orthogonalEdgeStyle;rounded=0;orthogonalLoop=1;jettySize=auto;html=1;" edge="1" parent="1" source="05g8EHRjyKozir9RmIMq-397" target="05g8EHRjyKozir9RmIMq-398">
          <mxGeometry relative="1" as="geometry" />
        </mxCell>
        <mxCell id="05g8EHRjyKozir9RmIMq-397" value="&lt;font style=&quot;font-size: 13px;&quot;&gt;calculate prescaler value of on time&lt;/font&gt;" style="shape=process;whiteSpace=wrap;html=1;backgroundOutline=1;fontSize=16;fillColor=#ffe6cc;strokeColor=#d79b00;" vertex="1" parent="1">
          <mxGeometry x="-2910.53" y="126" width="125.69" height="60" as="geometry" />
        </mxCell>
        <mxCell id="05g8EHRjyKozir9RmIMq-401" value="" style="edgeStyle=orthogonalEdgeStyle;rounded=0;orthogonalLoop=1;jettySize=auto;html=1;" edge="1" parent="1" source="05g8EHRjyKozir9RmIMq-398" target="05g8EHRjyKozir9RmIMq-400">
          <mxGeometry relative="1" as="geometry" />
        </mxCell>
        <mxCell id="05g8EHRjyKozir9RmIMq-398" value="&lt;font style=&quot;font-size: 13px;&quot;&gt;calculate prescaler value of off time&lt;/font&gt;" style="shape=process;whiteSpace=wrap;html=1;backgroundOutline=1;fontSize=16;fillColor=#ffe6cc;strokeColor=#d79b00;" vertex="1" parent="1">
          <mxGeometry x="-2910.53" y="218" width="125.69" height="60" as="geometry" />
        </mxCell>
        <mxCell id="05g8EHRjyKozir9RmIMq-403" value="" style="edgeStyle=orthogonalEdgeStyle;rounded=0;orthogonalLoop=1;jettySize=auto;html=1;" edge="1" parent="1" source="05g8EHRjyKozir9RmIMq-400" target="05g8EHRjyKozir9RmIMq-402">
          <mxGeometry relative="1" as="geometry" />
        </mxCell>
        <mxCell id="05g8EHRjyKozir9RmIMq-400" value="&lt;font style=&quot;font-size: 13px;&quot;&gt;calculate initial value of on time&lt;/font&gt;" style="shape=process;whiteSpace=wrap;html=1;backgroundOutline=1;fontSize=16;fillColor=#ffe6cc;strokeColor=#d79b00;" vertex="1" parent="1">
          <mxGeometry x="-2910.53" y="311" width="125.69" height="60" as="geometry" />
        </mxCell>
        <mxCell id="05g8EHRjyKozir9RmIMq-407" style="edgeStyle=orthogonalEdgeStyle;rounded=0;orthogonalLoop=1;jettySize=auto;html=1;exitX=0.5;exitY=1;exitDx=0;exitDy=0;entryX=0.5;entryY=0;entryDx=0;entryDy=0;" edge="1" parent="1" source="05g8EHRjyKozir9RmIMq-402" target="05g8EHRjyKozir9RmIMq-404">
          <mxGeometry relative="1" as="geometry" />
        </mxCell>
        <mxCell id="05g8EHRjyKozir9RmIMq-402" value="&lt;font style=&quot;font-size: 13px;&quot;&gt;calculate initial value of off time&lt;/font&gt;" style="shape=process;whiteSpace=wrap;html=1;backgroundOutline=1;fontSize=16;fillColor=#ffe6cc;strokeColor=#d79b00;" vertex="1" parent="1">
          <mxGeometry x="-2910.53" y="401" width="125.69" height="60" as="geometry" />
        </mxCell>
        <mxCell id="05g8EHRjyKozir9RmIMq-406" style="edgeStyle=orthogonalEdgeStyle;rounded=0;orthogonalLoop=1;jettySize=auto;html=1;exitX=0.5;exitY=1;exitDx=0;exitDy=0;entryX=0.5;entryY=0;entryDx=0;entryDy=0;" edge="1" parent="1" source="05g8EHRjyKozir9RmIMq-404" target="05g8EHRjyKozir9RmIMq-405">
          <mxGeometry relative="1" as="geometry" />
        </mxCell>
        <mxCell id="05g8EHRjyKozir9RmIMq-404" value="&lt;font style=&quot;font-size: 12px;&quot;&gt;set timer initial value=on time&lt;/font&gt;" style="whiteSpace=wrap;html=1;fontSize=16;fillColor=#d5e8d4;strokeColor=#82b366;rounded=0;" vertex="1" parent="1">
          <mxGeometry x="-2913.09" y="483" width="128.25" height="60" as="geometry" />
        </mxCell>
        <mxCell id="05g8EHRjyKozir9RmIMq-408" style="edgeStyle=orthogonalEdgeStyle;rounded=0;orthogonalLoop=1;jettySize=auto;html=1;exitX=0.5;exitY=1;exitDx=0;exitDy=0;entryX=0.5;entryY=0;entryDx=0;entryDy=0;entryPerimeter=0;" edge="1" parent="1" source="05g8EHRjyKozir9RmIMq-405" target="05g8EHRjyKozir9RmIMq-393">
          <mxGeometry relative="1" as="geometry" />
        </mxCell>
        <mxCell id="05g8EHRjyKozir9RmIMq-405" value="&lt;font style=&quot;font-size: 13px;&quot;&gt;set prescaler&lt;/font&gt;" style="shape=process;whiteSpace=wrap;html=1;backgroundOutline=1;fontSize=16;fillColor=#ffe6cc;strokeColor=#d79b00;" vertex="1" parent="1">
          <mxGeometry x="-2911.8100000000004" y="571.72" width="125.69" height="60" as="geometry" />
        </mxCell>
        <UserObject label="&lt;div style=&quot;font-size: 1px&quot;&gt;&lt;font style=&quot;font-size: 11.29px; direction: ltr; letter-spacing: 0px; line-height: 120%; opacity: 1;&quot;&gt;start&lt;/font&gt;&lt;/div&gt;" Function="EN_DIO_Error_T DIO_init(uint8_t pinNumber, EN_DIO_PORT_T portNumber, EN_DIO_DIRECTION_T direction);" tags="Flowchart" id="05g8EHRjyKozir9RmIMq-411">
          <mxCell style="verticalAlign=middle;align=center;overflow=width;vsdxID=30;fillColor=#dae8fc;shape=stencil(tVLREoIgEPwaHnEQxsl3s/9gEpSJwDko7e+DsEkze2l627vdu5uFRaxyHe8FosR5sCcxqMZ3iO0Rpcp0ApQPCLEasUpaEC3Yi2lS3fOojOhsr3HDmObyMtsVcYqS29Qh5FEfklwrM5OXeUa/yjkcAwfr7TDpiyTfXvjkMR+Vw2A998qaBac5tAKHU1hq3i4oNwjRr9ofvayt/+Rk+yX/4iWA159KpXWKxJx/z0Bopfyw+g4=);strokeColor=#6c8ebf;spacingTop=-1;spacingBottom=-1;spacingLeft=-1;spacingRight=-1;points=[[0.5,1,0],[0.5,0,0],[0,0.5,0],[1,0.5,0]];labelBackgroundColor=none;rounded=1;html=1;whiteSpace=wrap;fontFamily=Calibri;" vertex="1" parent="1">
            <mxGeometry x="-3219.0699999999997" y="858" width="101" height="38" as="geometry" />
          </mxCell>
        </UserObject>
        <mxCell id="05g8EHRjyKozir9RmIMq-412" value="TMR1_Init" style="text;html=1;strokeColor=#666666;fillColor=#f5f5f5;align=center;verticalAlign=middle;whiteSpace=wrap;rounded=0;fontColor=#333333;" vertex="1" parent="1">
          <mxGeometry x="-3223.5699999999997" y="810" width="110" height="30" as="geometry" />
        </mxCell>
        <mxCell id="05g8EHRjyKozir9RmIMq-413" value="&lt;font style=&quot;&quot;&gt;&lt;font style=&quot;font-size: 13px;&quot;&gt;set timer initial value&lt;/font&gt;&lt;br&gt;&lt;/font&gt;" style="rounded=0;whiteSpace=wrap;html=1;fontSize=16;fillColor=#d5e8d4;strokeColor=#82b366;" vertex="1" parent="1">
          <mxGeometry x="-3220.31" y="929" width="110.31" height="41" as="geometry" />
        </mxCell>
        <mxCell id="05g8EHRjyKozir9RmIMq-414" style="edgeStyle=orthogonalEdgeStyle;rounded=0;orthogonalLoop=1;jettySize=auto;html=1;exitX=0.5;exitY=1;exitDx=0;exitDy=0;exitPerimeter=0;entryX=0.5;entryY=0;entryDx=0;entryDy=0;" edge="1" parent="1" source="05g8EHRjyKozir9RmIMq-411" target="05g8EHRjyKozir9RmIMq-413">
          <mxGeometry relative="1" as="geometry" />
        </mxCell>
        <mxCell id="05g8EHRjyKozir9RmIMq-415" value="&lt;font style=&quot;font-size: 12px;&quot;&gt;set compare initial value&lt;/font&gt;" style="whiteSpace=wrap;html=1;fontSize=16;fillColor=#d5e8d4;strokeColor=#82b366;rounded=0;" vertex="1" parent="1">
          <mxGeometry x="-3225.16" y="1000" width="120" height="46.28" as="geometry" />
        </mxCell>
        <mxCell id="05g8EHRjyKozir9RmIMq-416" style="edgeStyle=orthogonalEdgeStyle;rounded=0;orthogonalLoop=1;jettySize=auto;html=1;exitX=0.5;exitY=1;exitDx=0;exitDy=0;entryX=0.5;entryY=0;entryDx=0;entryDy=0;" edge="1" parent="1" source="05g8EHRjyKozir9RmIMq-413" target="05g8EHRjyKozir9RmIMq-415">
          <mxGeometry relative="1" as="geometry" />
        </mxCell>
        <UserObject label="&lt;div style=&quot;font-size: 1px&quot;&gt;&lt;font style=&quot;font-size: 11.29px; direction: ltr; letter-spacing: 0px; line-height: 120%; opacity: 1;&quot;&gt;end&lt;/font&gt;&lt;/div&gt;" Function="EN_DIO_Error_T DIO_init(uint8_t pinNumber, EN_DIO_PORT_T portNumber, EN_DIO_DIRECTION_T direction);" tags="Flowchart" id="05g8EHRjyKozir9RmIMq-417">
          <mxCell style="verticalAlign=middle;align=center;overflow=width;vsdxID=30;fillColor=#dae8fc;shape=stencil(tVLREoIgEPwaHnEQxsl3s/9gEpSJwDko7e+DsEkze2l627vdu5uFRaxyHe8FosR5sCcxqMZ3iO0Rpcp0ApQPCLEasUpaEC3Yi2lS3fOojOhsr3HDmObyMtsVcYqS29Qh5FEfklwrM5OXeUa/yjkcAwfr7TDpiyTfXvjkMR+Vw2A998qaBac5tAKHU1hq3i4oNwjRr9ofvayt/+Rk+yX/4iWA159KpXWKxJx/z0Bopfyw+g4=);strokeColor=#6c8ebf;spacingTop=-1;spacingBottom=-1;spacingLeft=-1;spacingRight=-1;points=[[0.5,1,0],[0.5,0,0],[0,0.5,0],[1,0.5,0]];labelBackgroundColor=none;rounded=1;html=1;whiteSpace=wrap;fontFamily=Calibri;" vertex="1" parent="1">
            <mxGeometry x="-3216.17" y="1590" width="101" height="38" as="geometry" />
          </mxCell>
        </UserObject>
        <mxCell id="05g8EHRjyKozir9RmIMq-422" value="" style="edgeStyle=orthogonalEdgeStyle;rounded=0;orthogonalLoop=1;jettySize=auto;html=1;" edge="1" parent="1" source="05g8EHRjyKozir9RmIMq-419" target="05g8EHRjyKozir9RmIMq-421">
          <mxGeometry relative="1" as="geometry" />
        </mxCell>
        <mxCell id="05g8EHRjyKozir9RmIMq-419" value="&lt;font style=&quot;font-size: 12px;&quot;&gt;set input capture initial value&lt;/font&gt;" style="whiteSpace=wrap;html=1;fontSize=16;fillColor=#d5e8d4;strokeColor=#82b366;rounded=0;" vertex="1" parent="1">
          <mxGeometry x="-3220.3100000000004" y="1074" width="109.28" height="60" as="geometry" />
        </mxCell>
        <mxCell id="05g8EHRjyKozir9RmIMq-420" value="" style="edgeStyle=orthogonalEdgeStyle;rounded=0;orthogonalLoop=1;jettySize=auto;html=1;" edge="1" parent="1" source="05g8EHRjyKozir9RmIMq-415" target="05g8EHRjyKozir9RmIMq-419">
          <mxGeometry relative="1" as="geometry" />
        </mxCell>
        <mxCell id="05g8EHRjyKozir9RmIMq-424" value="" style="edgeStyle=orthogonalEdgeStyle;rounded=0;orthogonalLoop=1;jettySize=auto;html=1;" edge="1" parent="1" source="05g8EHRjyKozir9RmIMq-421" target="05g8EHRjyKozir9RmIMq-423">
          <mxGeometry relative="1" as="geometry" />
        </mxCell>
        <mxCell id="05g8EHRjyKozir9RmIMq-421" value="&lt;font style=&quot;font-size: 12px;&quot;&gt;set clock option&lt;/font&gt;" style="whiteSpace=wrap;html=1;fontSize=16;fillColor=#d5e8d4;strokeColor=#82b366;rounded=0;" vertex="1" parent="1">
          <mxGeometry x="-3220.3100000000004" y="1160" width="109.28" height="60" as="geometry" />
        </mxCell>
        <mxCell id="05g8EHRjyKozir9RmIMq-426" value="" style="edgeStyle=orthogonalEdgeStyle;rounded=0;orthogonalLoop=1;jettySize=auto;html=1;" edge="1" parent="1" source="05g8EHRjyKozir9RmIMq-423" target="05g8EHRjyKozir9RmIMq-425">
          <mxGeometry relative="1" as="geometry" />
        </mxCell>
        <mxCell id="05g8EHRjyKozir9RmIMq-423" value="&lt;font style=&quot;font-size: 12px;&quot;&gt;set&amp;nbsp; Input Capture Edge Select&lt;/font&gt;" style="whiteSpace=wrap;html=1;fontSize=16;fillColor=#d5e8d4;strokeColor=#82b366;rounded=0;" vertex="1" parent="1">
          <mxGeometry x="-3220.3100000000004" y="1240" width="109.28" height="60" as="geometry" />
        </mxCell>
        <mxCell id="05g8EHRjyKozir9RmIMq-428" value="" style="edgeStyle=orthogonalEdgeStyle;rounded=0;orthogonalLoop=1;jettySize=auto;html=1;" edge="1" parent="1" source="05g8EHRjyKozir9RmIMq-425" target="05g8EHRjyKozir9RmIMq-427">
          <mxGeometry relative="1" as="geometry" />
        </mxCell>
        <mxCell id="05g8EHRjyKozir9RmIMq-425" value="&lt;font style=&quot;font-size: 12px;&quot;&gt;set Input Capture Noise Canceler&amp;nbsp;&lt;/font&gt;" style="whiteSpace=wrap;html=1;fontSize=16;fillColor=#d5e8d4;strokeColor=#82b366;rounded=0;" vertex="1" parent="1">
          <mxGeometry x="-3220.3100000000004" y="1320" width="109.28" height="60" as="geometry" />
        </mxCell>
        <mxCell id="05g8EHRjyKozir9RmIMq-430" value="" style="edgeStyle=orthogonalEdgeStyle;rounded=0;orthogonalLoop=1;jettySize=auto;html=1;" edge="1" parent="1" source="05g8EHRjyKozir9RmIMq-427" target="05g8EHRjyKozir9RmIMq-429">
          <mxGeometry relative="1" as="geometry" />
        </mxCell>
        <mxCell id="05g8EHRjyKozir9RmIMq-427" value="&lt;font style=&quot;font-size: 12px;&quot;&gt;set wave generation mode&lt;/font&gt;" style="whiteSpace=wrap;html=1;fontSize=16;fillColor=#d5e8d4;strokeColor=#82b366;rounded=0;" vertex="1" parent="1">
          <mxGeometry x="-3220.3100000000004" y="1410" width="109.28" height="60" as="geometry" />
        </mxCell>
        <mxCell id="05g8EHRjyKozir9RmIMq-431" style="edgeStyle=orthogonalEdgeStyle;rounded=0;orthogonalLoop=1;jettySize=auto;html=1;exitX=0.5;exitY=1;exitDx=0;exitDy=0;entryX=0.5;entryY=0;entryDx=0;entryDy=0;entryPerimeter=0;" edge="1" parent="1" source="05g8EHRjyKozir9RmIMq-429" target="05g8EHRjyKozir9RmIMq-417">
          <mxGeometry relative="1" as="geometry" />
        </mxCell>
        <mxCell id="05g8EHRjyKozir9RmIMq-429" value="&lt;font style=&quot;font-size: 12px;&quot;&gt;set interrupt source&lt;/font&gt;" style="whiteSpace=wrap;html=1;fontSize=16;fillColor=#d5e8d4;strokeColor=#82b366;rounded=0;" vertex="1" parent="1">
          <mxGeometry x="-3219.28" y="1500" width="109.28" height="60" as="geometry" />
        </mxCell>
        <mxCell id="05g8EHRjyKozir9RmIMq-432" value="TMR1_ReadTime" style="text;html=1;strokeColor=#666666;fillColor=#f5f5f5;align=center;verticalAlign=middle;whiteSpace=wrap;rounded=0;fontColor=#333333;" vertex="1" parent="1">
          <mxGeometry x="-2990" y="820" width="150" height="30" as="geometry" />
        </mxCell>
        <mxCell id="05g8EHRjyKozir9RmIMq-433" style="edgeStyle=orthogonalEdgeStyle;rounded=0;orthogonalLoop=1;jettySize=auto;html=1;exitX=0.5;exitY=1;exitDx=0;exitDy=0;exitPerimeter=0;entryX=0.5;entryY=0;entryDx=0;entryDy=0;" edge="1" parent="1" source="05g8EHRjyKozir9RmIMq-434" target="05g8EHRjyKozir9RmIMq-436">
          <mxGeometry relative="1" as="geometry" />
        </mxCell>
        <UserObject label="&lt;div style=&quot;font-size: 1px&quot;&gt;&lt;font style=&quot;font-size: 11.29px; direction: ltr; letter-spacing: 0px; line-height: 120%; opacity: 1;&quot;&gt;start&lt;/font&gt;&lt;/div&gt;" Function="EN_DIO_Error_T DIO_init(uint8_t pinNumber, EN_DIO_PORT_T portNumber, EN_DIO_DIRECTION_T direction);" tags="Flowchart" id="05g8EHRjyKozir9RmIMq-434">
          <mxCell style="verticalAlign=middle;align=center;overflow=width;vsdxID=30;fillColor=#dae8fc;shape=stencil(tVLREoIgEPwaHnEQxsl3s/9gEpSJwDko7e+DsEkze2l627vdu5uFRaxyHe8FosR5sCcxqMZ3iO0Rpcp0ApQPCLEasUpaEC3Yi2lS3fOojOhsr3HDmObyMtsVcYqS29Qh5FEfklwrM5OXeUa/yjkcAwfr7TDpiyTfXvjkMR+Vw2A998qaBac5tAKHU1hq3i4oNwjRr9ofvayt/+Rk+yX/4iWA159KpXWKxJx/z0Bopfyw+g4=);strokeColor=#6c8ebf;spacingTop=-1;spacingBottom=-1;spacingLeft=-1;spacingRight=-1;points=[[0.5,1,0],[0.5,0,0],[0,0.5,0],[1,0.5,0]];labelBackgroundColor=none;rounded=1;html=1;whiteSpace=wrap;fontFamily=Calibri;" vertex="1" parent="1">
            <mxGeometry x="-2965.5" y="868" width="101" height="38" as="geometry" />
          </mxCell>
        </UserObject>
        <mxCell id="05g8EHRjyKozir9RmIMq-435" style="edgeStyle=orthogonalEdgeStyle;rounded=0;orthogonalLoop=1;jettySize=auto;html=1;exitX=0.5;exitY=1;exitDx=0;exitDy=0;entryX=0.5;entryY=0;entryDx=0;entryDy=0;entryPerimeter=0;" edge="1" parent="1" source="05g8EHRjyKozir9RmIMq-436" target="05g8EHRjyKozir9RmIMq-437">
          <mxGeometry relative="1" as="geometry" />
        </mxCell>
        <mxCell id="05g8EHRjyKozir9RmIMq-436" value="&lt;font style=&quot;font-size: 12px;&quot;&gt;return timer/counter register&lt;/font&gt;" style="rounded=0;whiteSpace=wrap;html=1;fontSize=16;fillColor=#d5e8d4;strokeColor=#82b366;" vertex="1" parent="1">
          <mxGeometry x="-2972.75" y="936.72" width="115.5" height="51" as="geometry" />
        </mxCell>
        <UserObject label="&lt;div style=&quot;font-size: 1px&quot;&gt;&lt;font style=&quot;font-size: 11.29px; direction: ltr; letter-spacing: 0px; line-height: 120%; opacity: 1;&quot;&gt;end&lt;/font&gt;&lt;/div&gt;" Function="EN_DIO_Error_T DIO_init(uint8_t pinNumber, EN_DIO_PORT_T portNumber, EN_DIO_DIRECTION_T direction);" tags="Flowchart" id="05g8EHRjyKozir9RmIMq-437">
          <mxCell style="verticalAlign=middle;align=center;overflow=width;vsdxID=30;fillColor=#dae8fc;shape=stencil(tVLREoIgEPwaHnEQxsl3s/9gEpSJwDko7e+DsEkze2l627vdu5uFRaxyHe8FosR5sCcxqMZ3iO0Rpcp0ApQPCLEasUpaEC3Yi2lS3fOojOhsr3HDmObyMtsVcYqS29Qh5FEfklwrM5OXeUa/yjkcAwfr7TDpiyTfXvjkMR+Vw2A998qaBac5tAKHU1hq3i4oNwjRr9ofvayt/+Rk+yX/4iWA159KpXWKxJx/z0Bopfyw+g4=);strokeColor=#6c8ebf;spacingTop=-1;spacingBottom=-1;spacingLeft=-1;spacingRight=-1;points=[[0.5,1,0],[0.5,0,0],[0,0.5,0],[1,0.5,0]];labelBackgroundColor=none;rounded=1;html=1;whiteSpace=wrap;fontFamily=Calibri;" vertex="1" parent="1">
            <mxGeometry x="-2964.25" y="1020" width="101" height="38" as="geometry" />
          </mxCell>
        </UserObject>
        <mxCell id="05g8EHRjyKozir9RmIMq-438" value="TMR1_Clear" style="text;html=1;strokeColor=#666666;fillColor=#f5f5f5;align=center;verticalAlign=middle;whiteSpace=wrap;rounded=0;fontColor=#333333;" vertex="1" parent="1">
          <mxGeometry x="-2784.84" y="820" width="150" height="30" as="geometry" />
        </mxCell>
        <mxCell id="05g8EHRjyKozir9RmIMq-439" style="edgeStyle=orthogonalEdgeStyle;rounded=0;orthogonalLoop=1;jettySize=auto;html=1;exitX=0.5;exitY=1;exitDx=0;exitDy=0;exitPerimeter=0;entryX=0.5;entryY=0;entryDx=0;entryDy=0;" edge="1" parent="1" source="05g8EHRjyKozir9RmIMq-440" target="05g8EHRjyKozir9RmIMq-442">
          <mxGeometry relative="1" as="geometry" />
        </mxCell>
        <UserObject label="&lt;div style=&quot;font-size: 1px&quot;&gt;&lt;font style=&quot;font-size: 11.29px; direction: ltr; letter-spacing: 0px; line-height: 120%; opacity: 1;&quot;&gt;start&lt;/font&gt;&lt;/div&gt;" Function="EN_DIO_Error_T DIO_init(uint8_t pinNumber, EN_DIO_PORT_T portNumber, EN_DIO_DIRECTION_T direction);" tags="Flowchart" id="05g8EHRjyKozir9RmIMq-440">
          <mxCell style="verticalAlign=middle;align=center;overflow=width;vsdxID=30;fillColor=#dae8fc;shape=stencil(tVLREoIgEPwaHnEQxsl3s/9gEpSJwDko7e+DsEkze2l627vdu5uFRaxyHe8FosR5sCcxqMZ3iO0Rpcp0ApQPCLEasUpaEC3Yi2lS3fOojOhsr3HDmObyMtsVcYqS29Qh5FEfklwrM5OXeUa/yjkcAwfr7TDpiyTfXvjkMR+Vw2A998qaBac5tAKHU1hq3i4oNwjRr9ofvayt/+Rk+yX/4iWA159KpXWKxJx/z0Bopfyw+g4=);strokeColor=#6c8ebf;spacingTop=-1;spacingBottom=-1;spacingLeft=-1;spacingRight=-1;points=[[0.5,1,0],[0.5,0,0],[0,0.5,0],[1,0.5,0]];labelBackgroundColor=none;rounded=1;html=1;whiteSpace=wrap;fontFamily=Calibri;" vertex="1" parent="1">
            <mxGeometry x="-2760.34" y="868" width="101" height="38" as="geometry" />
          </mxCell>
        </UserObject>
        <mxCell id="05g8EHRjyKozir9RmIMq-441" style="edgeStyle=orthogonalEdgeStyle;rounded=0;orthogonalLoop=1;jettySize=auto;html=1;exitX=0.5;exitY=1;exitDx=0;exitDy=0;entryX=0.5;entryY=0;entryDx=0;entryDy=0;entryPerimeter=0;" edge="1" parent="1" source="05g8EHRjyKozir9RmIMq-442" target="05g8EHRjyKozir9RmIMq-443">
          <mxGeometry relative="1" as="geometry" />
        </mxCell>
        <mxCell id="05g8EHRjyKozir9RmIMq-442" value="&lt;font style=&quot;font-size: 12px;&quot;&gt;reset timer/counter register&lt;/font&gt;" style="rounded=0;whiteSpace=wrap;html=1;fontSize=16;fillColor=#d5e8d4;strokeColor=#82b366;" vertex="1" parent="1">
          <mxGeometry x="-2767.59" y="936.72" width="115.5" height="51" as="geometry" />
        </mxCell>
        <UserObject label="&lt;div style=&quot;font-size: 1px&quot;&gt;&lt;font style=&quot;font-size: 11.29px; direction: ltr; letter-spacing: 0px; line-height: 120%; opacity: 1;&quot;&gt;end&lt;/font&gt;&lt;/div&gt;" Function="EN_DIO_Error_T DIO_init(uint8_t pinNumber, EN_DIO_PORT_T portNumber, EN_DIO_DIRECTION_T direction);" tags="Flowchart" id="05g8EHRjyKozir9RmIMq-443">
          <mxCell style="verticalAlign=middle;align=center;overflow=width;vsdxID=30;fillColor=#dae8fc;shape=stencil(tVLREoIgEPwaHnEQxsl3s/9gEpSJwDko7e+DsEkze2l627vdu5uFRaxyHe8FosR5sCcxqMZ3iO0Rpcp0ApQPCLEasUpaEC3Yi2lS3fOojOhsr3HDmObyMtsVcYqS29Qh5FEfklwrM5OXeUa/yjkcAwfr7TDpiyTfXvjkMR+Vw2A998qaBac5tAKHU1hq3i4oNwjRr9ofvayt/+Rk+yX/4iWA159KpXWKxJx/z0Bopfyw+g4=);strokeColor=#6c8ebf;spacingTop=-1;spacingBottom=-1;spacingLeft=-1;spacingRight=-1;points=[[0.5,1,0],[0.5,0,0],[0,0.5,0],[1,0.5,0]];labelBackgroundColor=none;rounded=1;html=1;whiteSpace=wrap;fontFamily=Calibri;" vertex="1" parent="1">
            <mxGeometry x="-2759.09" y="1020" width="101" height="38" as="geometry" />
          </mxCell>
        </UserObject>
        <mxCell id="05g8EHRjyKozir9RmIMq-445" value="TMR1_Stop" style="text;html=1;strokeColor=#666666;fillColor=#f5f5f5;align=center;verticalAlign=middle;whiteSpace=wrap;rounded=0;fontColor=#333333;" vertex="1" parent="1">
          <mxGeometry x="-2584" y="820" width="150" height="30" as="geometry" />
        </mxCell>
        <mxCell id="05g8EHRjyKozir9RmIMq-446" style="edgeStyle=orthogonalEdgeStyle;rounded=0;orthogonalLoop=1;jettySize=auto;html=1;exitX=0.5;exitY=1;exitDx=0;exitDy=0;exitPerimeter=0;entryX=0.5;entryY=0;entryDx=0;entryDy=0;" edge="1" parent="1" source="05g8EHRjyKozir9RmIMq-447" target="05g8EHRjyKozir9RmIMq-449">
          <mxGeometry relative="1" as="geometry" />
        </mxCell>
        <UserObject label="&lt;div style=&quot;font-size: 1px&quot;&gt;&lt;font style=&quot;font-size: 11.29px; direction: ltr; letter-spacing: 0px; line-height: 120%; opacity: 1;&quot;&gt;start&lt;/font&gt;&lt;/div&gt;" Function="EN_DIO_Error_T DIO_init(uint8_t pinNumber, EN_DIO_PORT_T portNumber, EN_DIO_DIRECTION_T direction);" tags="Flowchart" id="05g8EHRjyKozir9RmIMq-447">
          <mxCell style="verticalAlign=middle;align=center;overflow=width;vsdxID=30;fillColor=#dae8fc;shape=stencil(tVLREoIgEPwaHnEQxsl3s/9gEpSJwDko7e+DsEkze2l627vdu5uFRaxyHe8FosR5sCcxqMZ3iO0Rpcp0ApQPCLEasUpaEC3Yi2lS3fOojOhsr3HDmObyMtsVcYqS29Qh5FEfklwrM5OXeUa/yjkcAwfr7TDpiyTfXvjkMR+Vw2A998qaBac5tAKHU1hq3i4oNwjRr9ofvayt/+Rk+yX/4iWA159KpXWKxJx/z0Bopfyw+g4=);strokeColor=#6c8ebf;spacingTop=-1;spacingBottom=-1;spacingLeft=-1;spacingRight=-1;points=[[0.5,1,0],[0.5,0,0],[0,0.5,0],[1,0.5,0]];labelBackgroundColor=none;rounded=1;html=1;whiteSpace=wrap;fontFamily=Calibri;" vertex="1" parent="1">
            <mxGeometry x="-2559.5" y="868" width="101" height="38" as="geometry" />
          </mxCell>
        </UserObject>
        <mxCell id="05g8EHRjyKozir9RmIMq-452" value="" style="edgeStyle=orthogonalEdgeStyle;rounded=0;orthogonalLoop=1;jettySize=auto;html=1;" edge="1" parent="1" source="05g8EHRjyKozir9RmIMq-449" target="05g8EHRjyKozir9RmIMq-451">
          <mxGeometry relative="1" as="geometry" />
        </mxCell>
        <mxCell id="05g8EHRjyKozir9RmIMq-449" value="&lt;font style=&quot;font-size: 12px;&quot;&gt;clear timer clock&lt;/font&gt;" style="rounded=0;whiteSpace=wrap;html=1;fontSize=16;fillColor=#d5e8d4;strokeColor=#82b366;" vertex="1" parent="1">
          <mxGeometry x="-2566.75" y="936.72" width="115.5" height="51" as="geometry" />
        </mxCell>
        <UserObject label="&lt;div style=&quot;font-size: 1px&quot;&gt;&lt;font style=&quot;font-size: 11.29px; direction: ltr; letter-spacing: 0px; line-height: 120%; opacity: 1;&quot;&gt;end&lt;/font&gt;&lt;/div&gt;" Function="EN_DIO_Error_T DIO_init(uint8_t pinNumber, EN_DIO_PORT_T portNumber, EN_DIO_DIRECTION_T direction);" tags="Flowchart" id="05g8EHRjyKozir9RmIMq-450">
          <mxCell style="verticalAlign=middle;align=center;overflow=width;vsdxID=30;fillColor=#dae8fc;shape=stencil(tVLREoIgEPwaHnEQxsl3s/9gEpSJwDko7e+DsEkze2l627vdu5uFRaxyHe8FosR5sCcxqMZ3iO0Rpcp0ApQPCLEasUpaEC3Yi2lS3fOojOhsr3HDmObyMtsVcYqS29Qh5FEfklwrM5OXeUa/yjkcAwfr7TDpiyTfXvjkMR+Vw2A998qaBac5tAKHU1hq3i4oNwjRr9ofvayt/+Rk+yX/4iWA159KpXWKxJx/z0Bopfyw+g4=);strokeColor=#6c8ebf;spacingTop=-1;spacingBottom=-1;spacingLeft=-1;spacingRight=-1;points=[[0.5,1,0],[0.5,0,0],[0,0.5,0],[1,0.5,0]];labelBackgroundColor=none;rounded=1;html=1;whiteSpace=wrap;fontFamily=Calibri;" vertex="1" parent="1">
            <mxGeometry x="-2559.5" y="1100" width="101" height="38" as="geometry" />
          </mxCell>
        </UserObject>
        <mxCell id="05g8EHRjyKozir9RmIMq-453" style="edgeStyle=orthogonalEdgeStyle;rounded=0;orthogonalLoop=1;jettySize=auto;html=1;exitX=0.5;exitY=1;exitDx=0;exitDy=0;entryX=0.5;entryY=0;entryDx=0;entryDy=0;entryPerimeter=0;" edge="1" parent="1" source="05g8EHRjyKozir9RmIMq-451" target="05g8EHRjyKozir9RmIMq-450">
          <mxGeometry relative="1" as="geometry" />
        </mxCell>
        <mxCell id="05g8EHRjyKozir9RmIMq-451" value="&lt;font style=&quot;font-size: 12px;&quot;&gt;clear timer interrupt&lt;/font&gt;" style="rounded=0;whiteSpace=wrap;html=1;fontSize=16;fillColor=#d5e8d4;strokeColor=#82b366;" vertex="1" parent="1">
          <mxGeometry x="-2566.75" y="1020" width="115.5" height="51" as="geometry" />
        </mxCell>
      </root>
    </mxGraphModel>
  </diagram>
</mxfile>
